<svg xmlns="http://www.w3.org/2000/svg" width="706" height="721" viewBox="0 0 706 721">
<g>
<path d="M 359.50 692.63 C350.70,697.77 342.83,701.96 342.00,701.95 C340.23,701.94 319.85,690.62 297.82,677.43 C252.94,650.55 196.77,608.51 163.67,577.02 L 154.76 568.54 L 159.01 564.77 C161.34,562.70 163.78,561.00 164.41,561.00 C165.04,561.00 169.65,564.71 174.64,569.25 C204.11,596.03 223.15,611.64 245.05,627.00 C260.29,637.68 263.98,640.30 267.50,642.90 C269.70,644.53 273.75,647.19 276.50,648.82 C279.25,650.45 284.53,653.97 288.23,656.64 C297.18,663.11 301.07,665.55 310.00,670.27 C314.12,672.45 321.18,676.47 325.69,679.21 C330.19,681.95 334.28,683.95 334.76,683.65 C335.26,683.34 335.75,661.81 335.88,635.30 C336.25,555.58 336.47,545.81 337.97,542.74 L 339.33 539.98 L 341.91 544.24 L 344.50 548.50 L 344.79 615.16 C345.04,672.16 344.96,682.92 347.68,683.68 C348.31,683.86 349.09,683.50 350.05,683.06 C350.24,682.97 350.44,682.88 350.64,682.79 C353.92,681.34 367.29,673.61 371.00,671.01 C372.38,670.05 376.20,667.83 379.50,666.08 C386.29,662.48 389.27,660.74 390.00,659.97 C390.99,658.92 417.20,641.90 420.79,639.97 C422.81,638.89 425.28,638.00 426.27,638.00 C428.21,638.00 433.00,640.79 433.00,641.92 C433.00,642.29 430.86,644.81 428.25,647.50 C421.73,654.22 392.99,673.08 359.50,692.63 ZM 130.81 560.48 C122.87,562.28 119.55,562.29 111.39,560.51 C103.03,558.69 98.04,555.95 91.80,549.73 C76.03,534.02 75.16,511.44 89.64,493.80 C94.19,488.26 109.54,475.03 134.50,455.12 C144.40,447.23 152.95,440.26 153.50,439.63 C154.05,439.01 157.20,436.26 160.50,433.51 C166.43,428.58 170.16,425.29 180.97,415.47 C184.01,412.70 189.20,408.22 192.50,405.52 C195.80,402.82 203.13,396.09 208.78,390.57 C220.88,378.75 222.75,377.47 226.43,378.39 C228.87,379.00 229.08,379.40 228.51,382.29 C228.09,384.43 226.16,387.05 222.69,390.17 C219.84,392.74 216.38,396.02 215.00,397.46 C189.22,424.39 159.79,451.19 122.39,481.78 C95.31,503.93 92.69,507.35 92.31,521.08 C92.11,528.13 92.44,530.36 94.14,533.58 C98.59,542.04 107.84,548.60 116.80,549.66 C123.09,550.41 131.82,547.90 138.47,543.44 C150.00,535.71 193.79,495.30 230.26,458.72 C243.33,445.62 254.41,435.14 254.90,435.44 C255.38,435.73 256.33,435.31 257.01,434.49 C260.03,430.85 261.45,434.32 259.40,440.33 C258.37,443.37 255.08,447.75 248.86,454.37 C243.89,459.67 240.20,464.00 240.65,464.00 C241.95,464.00 218.61,487.19 192.50,511.84 C147.94,553.90 143.17,557.66 130.81,560.48 ZM 97.07 465.16 C92.60,469.12 90.27,469.92 89.49,467.75 C86.81,460.34 85.57,456.10 83.75,448.00 C81.64,438.61 81.61,437.02 81.28,309.25 C80.99,196.95 81.13,180.00 82.39,180.00 C83.96,180.00 89.68,182.84 91.61,184.58 C92.92,185.77 95.01,300.69 95.01,371.50 C95.01,416.26 96.13,437.69 99.18,451.41 L 101.39 461.33 ZM 158.79 509.75 C153.24,514.89 151.00,516.09 151.00,513.92 C151.00,513.33 149.82,509.84 148.38,506.17 C145.78,499.55 140.26,492.54 136.80,491.44 C135.81,491.12 135.00,490.26 135.00,489.53 C135.00,488.79 141.19,483.10 148.75,476.89 C156.31,470.67 165.68,462.87 169.57,459.54 C173.47,456.22 178.38,452.15 180.50,450.50 C185.58,446.55 191.93,440.98 200.50,432.97 C212.78,421.50 232.00,405.26 232.00,406.37 C232.00,406.64 233.69,405.27 235.75,403.33 C237.81,401.38 239.50,399.43 239.50,398.98 C239.50,397.80 240.19,397.36 243.14,396.65 C245.39,396.11 245.88,396.40 246.43,398.59 C246.79,400.01 247.94,402.10 249.00,403.23 C251.38,405.79 250.56,407.60 245.02,411.99 C242.29,414.14 241.00,415.95 241.00,417.61 C241.00,423.13 233.79,433.98 221.55,446.87 C190.21,479.91 180.17,489.96 158.79,509.75 ZM 145.75 422.61 C139.67,428.22 139.55,428.25 137.98,424.70 C134.78,417.50 135.86,214.89 139.14,208.75 C140.19,206.78 140.87,206.63 142.94,207.94 C144.04,208.64 144.42,211.47 144.54,219.68 C144.63,225.63 145.28,237.25 146.00,245.50 C147.17,258.97 147.54,272.93 147.89,317.14 C148.02,333.42 148.70,334.38 155.44,327.74 C157.80,325.41 165.88,317.44 173.37,310.04 L 187.00 296.58 L 187.03 290.54 C187.06,284.63 188.52,281.00 190.86,281.00 C191.49,281.00 192.00,281.87 192.00,282.94 C192.00,284.01 192.45,285.16 193.00,285.50 C194.50,286.43 194.17,295.15 192.53,298.00 C191.73,299.38 190.65,301.45 190.12,302.60 C189.07,304.90 182.12,311.19 177.76,313.79 C176.25,314.69 175.12,315.91 175.26,316.51 C175.49,317.56 167.14,327.30 154.25,341.01 L 148.00 347.66 L 148.00 364.22 C148.00,378.86 148.20,380.86 149.69,381.44 C150.93,381.91 154.32,379.20 162.44,371.22 C168.52,365.24 177.77,356.40 183.00,351.56 L 192.50 342.78 L 201.57 343.43 C211.56,344.14 216.50,345.17 216.50,346.54 C216.50,348.04 208.87,349.84 202.00,349.95 C194.98,350.07 194.23,350.46 189.12,356.50 C187.26,358.70 177.47,368.89 167.37,379.15 L 149.00 397.80 L 149.00 419.61 ZM 308.17 615.90 C308.35,617.22 308.05,618.43 307.50,618.59 C305.07,619.31 255.05,583.92 236.00,568.00 C215.09,550.53 196.00,533.60 196.00,532.51 C196.00,531.17 203.42,524.00 204.82,524.00 C205.26,524.00 206.95,525.40 208.56,527.10 C213.02,531.82 234.57,550.88 242.77,557.37 C252.53,565.08 273.05,580.61 279.68,585.28 C282.63,587.36 287.39,590.85 290.27,593.03 C293.15,595.21 296.06,596.99 296.75,597.00 C297.69,597.00 298.05,593.19 298.18,581.75 C298.28,573.36 298.27,565.15 298.15,563.50 C297.98,561.09 294.99,557.54 282.95,545.46 L 267.95 530.43 L 259.73 530.46 C252.68,530.49 251.03,530.17 248.23,528.17 C243.80,525.01 241.00,519.21 241.00,513.19 C241.00,500.73 255.39,492.80 265.93,499.46 C271.81,503.17 272.69,505.03 272.91,514.12 L 273.11 522.20 L 288.55 537.27 C297.04,545.56 303.76,552.57 303.49,552.85 C303.21,553.12 303.85,554.29 304.91,555.43 C306.68,557.34 306.87,559.65 307.34,585.50 C307.62,600.90 308.00,614.58 308.17,615.90 ZM 133.65 175.75 C134.34,177.42 129.84,177.28 124.00,175.46 C121.53,174.69 118.60,174.11 117.50,174.17 C115.54,174.27 72.83,155.43 68.32,152.47 C65.46,150.60 62.48,144.77 61.67,139.50 C60.79,133.76 64.12,118.77 68.06,110.68 C73.92,98.66 85.28,89.08 93.73,89.02 C98.56,88.99 104.57,91.75 105.86,94.60 C105.91,94.69 105.95,94.78 105.99,94.87 C106.69,96.41 107.00,97.09 106.86,97.66 C106.75,98.14 106.31,98.54 105.53,99.33 C104.40,100.46 103.17,100.60 100.28,99.92 C98.20,99.44 95.55,99.04 94.39,99.02 C91.29,98.99 86.84,103.83 87.20,106.83 C87.53,109.52 87.71,109.65 96.50,113.73 C102.19,116.37 105.37,118.60 110.74,123.75 C112.03,124.99 113.63,126.01 114.30,126.02 C116.76,126.05 122.00,131.73 122.00,134.36 C122.00,135.79 122.72,138.77 123.61,140.98 C124.49,143.19 124.94,145.70 124.61,146.57 C124.28,147.44 124.52,149.10 125.14,150.27 C125.77,151.44 126.42,154.40 126.58,156.85 C126.74,159.30 127.47,161.68 128.19,162.14 C128.91,162.60 129.09,162.98 128.60,162.98 C128.10,162.99 128.36,163.79 129.17,164.75 C129.99,165.71 131.21,168.30 131.89,170.50 C132.57,172.70 133.36,175.06 133.65,175.75 ZM 340.96 517.25 C341.02,519.64 339.36,519.47 338.71,517.01 C338.43,515.92 337.14,514.60 335.85,514.07 C334.56,513.55 327.96,507.92 321.18,501.56 C314.41,495.20 308.24,490.00 307.48,490.00 C306.71,490.00 304.43,491.12 302.40,492.50 C295.72,497.04 285.68,495.21 281.31,488.67 C276.64,481.68 277.57,472.75 283.57,466.93 C286.32,464.27 287.92,463.59 292.33,463.22 C301.96,462.42 309.45,468.17 309.45,476.34 C309.45,480.00 310.15,480.89 321.32,491.60 C327.84,497.86 334.34,503.55 335.75,504.24 C337.61,505.16 338.66,506.86 339.61,510.50 C340.33,513.25 340.93,516.29 340.96,517.25 ZM 380.32 614.75 C378.99,615.99 376.96,617.00 375.80,617.00 C373.71,617.00 373.70,616.83 374.27,598.25 C374.85,579.04 376.14,570.55 378.60,569.60 C379.38,569.30 380.00,569.67 380.00,570.45 C380.00,571.21 380.56,572.02 381.25,572.25 C382.13,572.54 382.60,576.23 382.83,584.83 C383.16,596.62 383.24,597.00 385.38,597.00 C386.59,597.00 390.04,595.68 393.04,594.07 C403.41,588.51 405.33,587.83 407.66,588.89 C410.85,590.35 409.59,593.43 404.94,595.53 C402.81,596.49 400.30,598.11 399.37,599.14 C398.45,600.16 397.11,601.00 396.39,601.00 C395.27,601.00 392.56,603.31 380.32,614.75 ZM 130.33 524.95 C127.67,527.05 123.07,527.51 119.50,526.05 C114.48,524.00 111.82,517.16 113.91,511.70 C115.99,506.29 127.32,504.27 131.97,508.48 C135.85,511.99 134.92,521.34 130.33,524.95 ZM 252.92 520.08 C256.64,523.79 259.38,523.77 263.16,520.00 C265.66,517.49 266.08,516.40 265.68,513.43 C265.09,509.04 262.65,507.07 257.75,507.03 C250.14,506.97 247.35,514.50 252.92,520.08 ZM 289.17 484.69 C291.95,487.64 296.15,487.66 299.41,484.75 C303.14,481.42 303.64,477.83 300.82,474.70 C295.79,469.09 287.00,471.95 287.00,479.19 C287.00,481.08 287.88,483.31 289.17,484.69 ZM 180.00 261.69 C180.00,263.55 179.34,263.32 177.60,260.84 C175.73,258.17 176.76,255.95 178.65,258.54 C179.39,259.55 180.00,260.97 180.00,261.69 Z" fill="rgb(168,140,97)"/>
<path d="M 133.65 175.75 C133.36,175.06 132.57,172.70 131.89,170.50 C131.21,168.30 129.99,165.71 129.17,164.75 C128.36,163.79 128.10,162.99 128.60,162.98 C129.09,162.98 128.91,162.60 128.19,162.14 C127.47,161.68 126.74,159.30 126.58,156.85 C126.42,154.40 125.77,151.44 125.14,150.27 C124.52,149.10 124.28,147.44 124.61,146.57 C124.94,145.70 124.49,143.19 123.61,140.98 C122.72,138.77 122.00,135.79 122.00,134.36 C122.00,131.73 116.76,126.05 114.30,126.02 C113.63,126.01 112.03,124.99 110.74,123.75 C105.37,118.60 102.19,116.37 96.50,113.73 C87.71,109.65 87.53,109.52 87.20,106.83 C86.84,103.83 91.29,98.99 94.39,99.02 C95.55,99.04 98.20,99.44 100.28,99.92 C103.17,100.60 104.40,100.46 105.53,99.33 C106.31,98.54 106.75,98.14 106.86,97.66 C107.00,97.09 106.69,96.41 105.99,94.87 C105.95,94.78 105.91,94.69 105.86,94.60 C104.57,91.75 98.56,88.99 93.73,89.02 C86.23,89.07 76.44,96.63 70.24,106.72 C72.29,102.85 74.56,99.39 76.89,96.79 C85.84,86.81 92.86,85.69 106.88,92.00 C111.77,94.20 116.38,96.01 117.13,96.02 C117.88,96.03 120.97,97.42 124.00,99.10 C127.03,100.79 135.80,104.87 143.50,108.17 C169.74,119.43 174.37,121.83 176.25,125.11 C178.60,129.22 178.45,130.85 175.66,131.55 C173.32,132.14 162.09,127.89 134.50,116.00 C98.85,100.63 95.54,99.57 90.93,102.04 C88.48,103.35 88.37,108.15 90.75,110.20 C92.90,112.05 99.07,114.97 109.10,118.86 C129.18,126.67 176.25,148.44 179.18,151.28 C179.91,151.99 183.31,154.71 186.75,157.34 C190.19,159.97 193.01,162.88 193.02,163.81 C193.06,166.15 196.74,176.95 198.36,179.45 C199.09,180.58 199.95,183.98 200.26,187.00 C200.76,191.73 203.70,200.05 207.09,206.29 C207.63,207.28 207.80,208.51 207.47,209.04 C206.52,210.59 204.10,210.10 193.00,206.07 C172.96,198.81 166.69,196.30 150.50,189.05 C148.30,188.07 139.52,184.31 131.00,180.70 C122.20,176.98 110.36,171.78 99.33,166.86 C108.68,170.91 116.68,174.21 117.50,174.17 C118.60,174.11 121.53,174.69 124.00,175.46 C129.84,177.28 134.34,177.42 133.65,175.75 ZM 340.96 517.25 C340.93,516.29 340.33,513.25 339.61,510.50 C338.66,506.86 337.61,505.16 335.75,504.24 C334.34,503.55 327.84,497.86 321.32,491.60 C310.15,480.89 309.45,480.00 309.45,476.34 C309.45,475.05 309.27,473.82 308.92,472.67 C309.28,473.56 309.60,474.50 309.87,475.51 C310.88,479.25 317.53,486.61 329.50,497.20 C329.67,497.35 329.83,497.49 329.99,497.63 C331.57,499.04 332.66,500.01 333.40,499.79 C335.03,499.33 335.03,493.23 335.04,473.82 C335.04,472.93 335.04,472.02 335.04,471.08 L 335.05 441.67 L 331.50 438.74 C321.52,430.52 321.74,418.22 331.99,411.25 C334.43,409.59 336.74,409.00 340.78,409.00 C350.90,409.00 356.44,414.73 356.36,425.12 C356.31,431.65 353.97,436.11 348.54,440.00 L 345.06 442.50 L 345.03 485.64 C345.00,524.45 345.16,528.85 346.61,529.41 C348.23,530.02 352.30,526.91 360.10,519.10 C362.08,517.12 366.58,512.76 370.10,509.41 C373.62,506.05 377.05,502.23 377.72,500.91 C378.51,499.34 379.04,491.97 379.22,479.71 C379.52,459.77 379.70,459.05 384.50,459.02 C386.45,459.00 386.50,459.61 386.36,481.52 L 386.21 504.03 L 382.66 508.37 C380.70,510.76 371.93,519.91 363.16,528.71 C354.40,537.51 346.72,545.65 346.11,546.79 C345.50,547.93 345.05,551.49 345.12,554.68 C345.22,559.45 345.37,559.96 346.00,557.50 C346.42,555.85 346.82,583.11 346.88,618.08 C346.95,653.05 347.28,681.95 347.62,682.29 C348.48,683.14 353.91,680.29 371.50,669.73 C412.49,645.11 453.24,616.67 483.50,591.53 C489.55,586.51 496.98,580.56 500.00,578.32 C505.40,574.31 513.99,570.00 516.56,570.00 C517.28,570.00 518.15,569.10 518.50,568.00 C518.85,566.90 519.55,566.00 520.07,566.00 C521.70,566.00 521.09,567.31 517.98,570.52 C516.31,572.24 514.76,574.65 514.52,575.88 C513.89,579.16 499.85,592.83 481.54,608.00 C477.23,611.58 470.57,617.20 466.75,620.50 C455.91,629.86 426.26,652.00 424.56,652.00 C424.34,652.00 417.81,656.17 409.53,661.57 C418.84,655.30 425.51,650.32 428.25,647.50 C430.86,644.81 433.00,642.29 433.00,641.92 C433.00,640.79 428.21,638.00 426.27,638.00 C425.28,638.00 422.81,638.89 420.79,639.97 C417.20,641.90 390.99,658.92 390.00,659.97 C389.27,660.74 386.29,662.48 379.50,666.08 C376.20,667.83 372.38,670.05 371.00,671.01 C367.29,673.61 353.92,681.34 350.64,682.79 C350.44,682.88 350.24,682.97 350.05,683.06 C349.09,683.50 348.31,683.86 347.68,683.68 C344.96,682.92 345.04,672.16 344.79,615.16 L 344.50 548.50 L 341.91 544.24 L 339.33 539.98 L 337.97 542.74 C336.47,545.81 336.25,555.58 335.88,635.30 C335.81,648.35 335.66,660.19 335.47,668.89 C335.47,668.71 335.47,668.53 335.47,668.35 C335.45,660.18 335.34,622.41 335.22,584.41 L 335.00 515.32 L 322.25 503.54 C315.24,497.07 309.00,491.57 308.38,491.33 C307.76,491.08 305.56,492.04 303.49,493.44 C298.54,496.80 291.05,496.98 286.47,493.84 C284.62,492.57 283.07,491.06 281.84,489.41 C286.46,495.34 295.98,496.86 302.40,492.50 C304.43,491.12 306.71,490.00 307.48,490.00 C308.24,490.00 314.41,495.20 321.18,501.56 C327.96,507.92 334.56,513.55 335.85,514.07 C337.14,514.60 338.43,515.92 338.71,517.01 C339.36,519.47 341.02,519.64 340.96,517.25 ZM 575.03 302.75 C571.27,305.29 571.15,305.32 568.77,303.93 C566.11,302.38 567.17,298.11 571.97,291.04 C576.72,284.05 582.47,272.17 584.54,265.11 C588.68,250.94 588.91,245.76 588.28,180.59 L 587.68 118.08 L 582.31 115.54 C579.36,114.14 576.73,113.00 576.46,113.00 C575.94,113.00 574.71,112.45 554.00,103.01 C546.58,99.62 538.03,95.98 535.00,94.92 C531.97,93.86 528.60,92.58 527.50,92.07 C522.64,89.82 511.03,85.62 500.70,82.39 C494.54,80.46 485.98,77.79 481.69,76.44 C477.39,75.10 472.89,73.98 471.69,73.96 C470.48,73.94 465.00,72.34 459.50,70.40 C454.00,68.47 447.81,66.41 445.75,65.82 C441.90,64.73 440.94,63.34 443.39,62.40 C444.15,62.11 451.01,62.33 458.64,62.88 C469.18,63.65 475.61,64.75 485.50,67.48 C511.79,74.73 543.16,85.68 563.00,94.51 C568.78,97.08 577.10,100.79 581.50,102.74 C585.90,104.70 591.69,107.48 594.36,108.92 C595.89,109.75 597.12,110.35 598.11,111.23 C602.23,114.86 602.16,123.24 601.74,172.21 C601.72,173.89 601.71,175.62 601.69,177.40 C601.04,253.44 600.34,259.35 589.09,283.00 C584.32,293.03 579.62,299.64 575.03,302.75 ZM 150.67 396.79 C149.29,397.85 149.00,399.96 149.00,408.84 L 149.00 397.80 L 167.37 379.15 C177.47,368.89 187.26,358.70 189.12,356.50 C194.23,350.46 194.98,350.07 202.00,349.95 C208.87,349.84 216.50,348.04 216.50,346.54 C216.50,345.17 211.56,344.14 201.57,343.43 L 192.50 342.78 L 183.00 351.56 C177.77,356.40 168.52,365.24 162.44,371.22 C154.32,379.20 150.93,381.91 149.69,381.44 C148.20,380.86 148.00,378.86 148.00,364.22 L 148.00 347.66 L 154.25 341.01 C167.14,327.30 175.49,317.56 175.26,316.51 C175.12,315.91 176.25,314.69 177.76,313.79 C182.12,311.19 189.07,304.90 190.12,302.60 C190.65,301.45 191.73,299.38 192.53,298.00 C194.17,295.15 194.50,286.43 193.00,285.50 C192.45,285.16 192.00,284.01 192.00,282.94 C192.00,281.87 191.49,281.00 190.86,281.00 C188.52,281.00 187.06,284.63 187.03,290.54 L 187.00 296.58 L 173.37 310.04 C165.88,317.44 157.80,325.41 155.44,327.74 C148.70,334.38 148.02,333.42 147.89,317.14 C147.54,272.93 147.17,258.97 146.00,245.50 C145.28,237.25 144.63,225.63 144.54,219.68 C144.42,211.47 144.04,208.64 142.94,207.94 C140.87,206.63 140.19,206.78 139.14,208.75 C137.63,211.58 136.58,256.11 136.21,304.02 C136.09,248.76 136.27,205.00 136.63,205.00 C139.01,205.00 148.01,208.57 148.43,209.69 C148.72,210.43 148.99,236.79 149.05,268.27 C149.14,322.64 149.36,330.05 150.86,329.96 C151.21,329.94 159.04,322.60 168.25,313.66 L 185.00 297.40 L 185.00 272.37 L 180.49 268.99 C174.47,264.48 173.00,261.99 173.00,256.29 C173.01,245.86 182.56,237.75 192.25,239.95 C200.67,241.85 205.38,246.66 206.56,254.58 C207.27,259.30 204.70,265.51 200.73,268.66 C197.02,271.60 196.79,272.52 196.42,285.57 C196.18,294.20 195.61,298.80 194.56,300.73 C193.72,302.25 183.13,313.62 171.03,326.00 L 149.01 348.50 L 149.01 364.82 C149.00,378.07 149.26,381.09 150.36,380.82 C151.11,380.65 160.85,371.63 172.02,360.78 L 192.31 341.06 L 204.91 340.78 L 217.50 340.50 L 218.00 324.50 C218.46,309.83 218.69,308.23 220.80,305.27 C222.07,303.49 223.69,301.69 224.41,301.27 C227.73,299.30 238.99,288.34 238.99,287.07 C239.00,286.29 238.49,284.22 237.86,282.48 C236.19,277.88 237.55,272.52 241.34,268.73 C244.41,265.65 244.93,265.50 251.40,265.68 C257.05,265.85 258.48,266.24 259.68,267.96 C260.48,269.10 261.56,269.77 262.07,269.46 C262.58,269.14 263.00,269.44 263.00,270.11 C263.00,270.79 263.75,272.17 264.66,273.18 C267.17,275.95 266.59,282.86 263.60,285.85 L 261.21 288.24 L 261.74 281.71 C262.47,272.59 261.78,270.66 257.06,268.53 C253.66,266.99 252.62,266.91 250.04,267.99 C248.37,268.68 247.00,269.72 247.00,270.29 C247.00,270.87 246.34,272.08 245.52,272.97 C243.58,275.12 243.06,278.85 244.24,282.24 C245.41,285.62 250.41,289.96 253.33,290.12 C254.52,290.19 253.10,290.60 250.17,291.03 C244.02,291.92 242.46,293.15 233.37,304.35 L 227.00 312.20 L 227.00 328.91 C227.00,344.61 226.87,345.76 224.86,347.92 C221.12,351.93 216.93,353.01 206.07,352.75 L 196.05 352.51 L 174.20 374.00 C162.18,385.83 151.59,396.08 150.67,396.79 ZM 381.18 615.28 C377.70,617.33 374.71,619.00 374.54,619.00 C373.31,619.00 373.00,612.37 373.00,586.54 L 373.00 557.23 L 389.59 541.40 C398.72,532.69 407.01,524.98 408.01,524.28 C410.25,522.71 412.64,523.50 413.29,526.02 C413.77,527.82 410.18,531.98 388.28,555.00 L 383.04 560.50 L 383.02 568.75 C383.01,573.60 383.41,577.00 384.00,577.00 C384.59,577.00 385.00,580.65 385.00,585.94 C385.00,590.86 385.44,595.15 385.97,595.48 C387.31,596.31 401.34,586.74 427.50,567.18 C452.21,548.69 457.01,546.26 458.93,551.25 C460.03,554.12 458.18,556.18 443.03,568.88 C415.80,591.71 396.05,606.52 381.18,615.28 ZM 182.19 487.51 C192.39,477.43 203.40,466.01 221.55,446.87 C233.79,433.98 241.00,423.13 241.00,417.61 C241.00,415.95 242.29,414.14 245.02,411.99 C250.56,407.60 251.38,405.79 249.00,403.23 C247.94,402.10 246.79,400.01 246.43,398.59 C245.88,396.40 245.39,396.11 243.14,396.65 C240.19,397.36 239.50,397.80 239.50,398.98 C239.50,399.43 237.81,401.38 235.75,403.33 C233.69,405.27 232.00,406.64 232.00,406.37 C232.00,405.26 212.78,421.50 200.50,432.97 C191.93,440.98 185.58,446.55 180.50,450.50 C178.38,452.15 173.47,456.22 169.57,459.54 C165.68,462.87 156.31,470.67 148.75,476.89 C141.38,482.95 135.31,488.50 135.01,489.46 C135.27,488.54 140.00,483.98 145.75,479.14 C157.26,469.44 173.14,455.69 184.50,445.59 C217.47,416.28 219.39,414.54 233.00,401.40 C239.32,395.30 247.88,387.20 252.00,383.40 C256.12,379.61 265.80,370.04 273.50,362.14 C285.93,349.39 292.62,344.00 295.98,344.00 C296.57,344.00 297.48,345.12 298.00,346.50 C298.52,347.88 299.41,349.00 299.98,349.00 C301.52,349.00 301.21,352.70 299.36,356.30 C297.92,359.09 282.74,378.65 280.96,380.00 C280.60,380.27 278.55,382.80 276.40,385.60 C270.80,392.93 264.96,400.05 261.77,403.44 C260.24,405.06 259.00,406.74 259.00,407.18 C259.00,408.00 247.75,421.00 238.02,431.42 C234.99,434.67 231.82,438.09 231.00,439.01 C226.83,443.68 206.30,464.40 197.50,472.83 C193.60,476.56 187.60,482.31 182.19,487.51 ZM 236.02 469.40 C239.31,465.98 241.03,464.00 240.65,464.00 C240.20,464.00 243.89,459.67 248.86,454.37 C255.08,447.75 258.37,443.37 259.40,440.33 C261.45,434.32 260.03,430.85 257.01,434.49 C256.33,435.31 255.38,435.73 254.90,435.44 C254.41,435.14 243.33,445.62 230.26,458.72 C201.76,487.31 168.79,518.24 150.23,534.08 C183.24,505.51 259.38,428.64 296.86,385.19 C315.24,363.88 316.22,362.89 318.39,363.20 C319.54,363.36 320.64,364.35 320.84,365.38 C321.50,368.83 319.14,372.33 297.42,400.15 C292.97,405.84 289.14,411.02 288.92,411.66 C287.99,414.25 258.21,446.85 238.02,467.38 C237.37,468.04 236.70,468.71 236.02,469.40 ZM 535.85 262.51 C531.66,266.30 530.96,266.56 529.30,264.90 C528.51,264.11 528.56,263.08 529.50,261.15 C534.42,251.13 534.50,250.15 534.50,202.80 C534.50,171.19 534.83,157.78 535.62,156.98 C536.23,156.37 538.48,156.01 540.61,156.18 C544.38,156.49 544.50,156.62 545.12,161.00 C546.48,170.61 546.06,231.60 544.57,241.00 C542.95,251.25 539.84,258.91 535.85,262.51 ZM 160.74 449.28 C181.01,431.40 198.73,414.46 215.00,397.46 C216.38,396.02 219.84,392.74 222.69,390.17 C226.16,387.05 228.09,384.43 228.51,382.29 C229.08,379.40 228.87,379.00 226.43,378.39 C222.75,377.47 220.88,378.75 208.78,390.57 C203.13,396.09 195.80,402.82 192.50,405.52 C189.20,408.22 184.01,412.70 180.97,415.47 C170.16,425.29 166.43,428.58 160.50,433.51 C157.20,436.26 154.05,439.01 153.50,439.63 C152.95,440.26 144.40,447.23 134.50,455.12 C130.38,458.40 126.53,461.51 122.94,464.42 C128.71,459.65 133.74,455.47 135.70,453.84 C145.39,445.74 175.47,419.58 182.05,413.52 C185.65,410.21 193.52,403.00 199.54,397.50 C213.08,385.12 231.27,367.58 252.93,345.98 C271.63,327.34 271.95,327.06 275.16,326.48 C281.31,325.38 280.66,330.91 273.65,339.50 C263.80,351.55 197.92,418.00 187.35,426.53 C184.06,429.20 172.22,439.32 160.74,449.28 ZM 380.32 614.75 C392.56,603.31 395.27,601.00 396.39,601.00 C397.11,601.00 398.45,600.16 399.37,599.14 C400.30,598.11 402.81,596.49 404.94,595.53 C409.59,593.43 410.85,590.35 407.66,588.89 C405.33,587.83 403.41,588.51 393.04,594.07 C390.04,595.68 386.59,597.00 385.38,597.00 C383.24,597.00 383.16,596.62 382.83,584.83 C382.60,576.23 382.13,572.54 381.25,572.25 C380.56,572.02 380.00,571.21 380.00,570.45 C380.00,569.67 379.38,569.30 378.60,569.60 C376.14,570.55 374.85,579.04 374.27,598.25 C373.70,616.83 373.71,617.00 375.80,617.00 C376.96,617.00 378.99,615.99 380.32,614.75 ZM 510.34 174.48 C510.47,178.51 510.16,179.53 508.75,179.80 C507.78,179.99 506.79,179.55 506.54,178.82 C506.01,177.26 504.99,158.51 504.70,145.00 L 504.50 135.50 L 512.50 135.50 L 512.48 144.00 C512.47,150.53 512.00,153.43 510.44,156.50 C508.77,159.80 508.57,161.29 509.29,165.00 C509.78,167.48 510.25,171.74 510.34,174.48 ZM 165.27 86.14 C161.55,87.82 156.93,89.36 155.00,89.56 C150.99,89.96 142.00,87.19 142.00,85.56 C142.00,84.43 153.23,79.90 160.70,78.01 C163.00,77.43 166.38,77.21 168.20,77.53 C175.51,78.81 174.44,81.98 165.27,86.14 ZM 444.77 119.16 C439.95,122.22 408.03,116.97 409.42,113.34 C409.74,112.51 410.00,111.68 410.00,111.48 C410.00,111.28 411.93,110.83 414.30,110.48 C420.57,109.54 440.69,113.81 444.27,116.85 C445.65,118.01 445.76,118.54 444.77,119.16 ZM 308.17 615.90 C308.00,614.58 307.62,600.90 307.34,585.50 C306.87,559.65 306.68,557.34 304.91,555.43 C303.85,554.29 303.21,553.12 303.49,552.85 C303.76,552.57 297.04,545.56 288.55,537.27 L 273.11 522.20 L 272.91 514.12 C272.79,508.88 272.44,506.04 271.04,503.87 C271.57,504.50 272.07,505.17 272.55,505.89 C274.68,509.12 275.08,510.78 274.90,515.80 C274.89,515.96 274.88,516.11 274.88,516.26 C274.82,517.77 274.78,518.95 274.97,520.08 C275.64,524.03 279.16,527.50 294.99,543.50 L 309.82 558.50 L 309.95 586.08 C310.03,602.64 309.67,614.73 309.06,616.33 C308.51,617.80 307.70,618.98 307.27,618.95 C305.88,618.86 294.60,611.29 281.11,601.74 C294.94,611.45 306.37,618.93 307.50,618.59 C308.05,618.43 308.35,617.22 308.17,615.90 ZM 97.24 439.44 C95.64,425.53 95.01,405.08 95.01,371.50 C95.01,300.69 92.92,185.77 91.61,184.58 C89.93,183.07 85.41,180.73 83.21,180.14 C83.33,180.05 83.45,179.99 83.58,179.96 C84.10,179.86 84.72,180.27 85.46,180.77 C85.83,181.02 86.23,181.29 86.67,181.52 C88.23,182.36 90.74,183.47 92.25,184.00 L 95.00 184.95 L 95.00 297.23 C95.01,389.77 95.34,421.98 97.24,439.44 ZM 336.07 429.37 C338.62,432.61 342.68,432.83 346.37,429.93 C350.01,427.06 350.01,421.94 346.37,419.07 C342.87,416.32 339.45,416.45 336.45,419.45 C333.45,422.45 333.32,425.87 336.07,429.37 ZM 185.07 260.37 C189.13,265.53 196.21,263.20 197.60,256.25 C198.10,253.74 197.72,252.63 195.66,250.57 C192.55,247.46 189.17,247.29 185.63,250.07 C182.39,252.62 182.17,256.68 185.07,260.37 ZM 562.00 346.11 C562.00,346.60 560.82,347.00 559.38,347.00 C557.58,347.00 555.42,345.60 552.50,342.55 C550.15,340.10 548.01,338.33 547.73,338.60 C547.45,338.88 546.26,337.88 545.08,336.38 C542.98,333.71 543.51,332.06 546.50,332.02 C547.78,332.00 562.00,344.93 562.00,346.11 ZM 442.00 497.00 C436.25,502.37 434.90,500.17 440.50,494.57 C442.42,492.64 444.00,490.18 444.00,489.09 C444.00,485.78 445.68,485.83 448.53,489.22 L 451.24 492.44 L 448.22 493.22 C446.57,493.65 443.76,495.35 442.00,497.00 ZM 130.33 524.95 C134.55,521.64 135.68,513.47 132.82,509.44 C136.78,513.20 137.71,519.49 132.60,524.60 C128.07,529.13 122.93,529.37 118.10,525.32 C118.54,525.61 119.01,525.85 119.50,526.05 C123.07,527.51 127.67,527.05 130.33,524.95 ZM 254.55 521.50 C255.34,521.76 256.31,521.68 257.84,521.40 C263.21,520.45 266.16,517.39 265.66,513.30 C265.67,513.35 265.68,513.39 265.68,513.43 C266.08,516.40 265.66,517.49 263.16,520.00 C259.95,523.20 257.49,523.70 254.55,521.50 ZM 180.00 261.69 C180.00,260.97 179.39,259.55 178.65,258.54 C176.76,255.95 175.73,258.17 177.60,260.84 C179.34,263.32 180.00,263.55 180.00,261.69 ZM 81.29 198.81 C81.09,216.29 81.12,249.09 81.28,309.25 C81.25,299.31 81.23,290.13 81.20,281.64 C81.08,238.57 81.01,213.35 81.29,198.81 ZM 64.28 121.09 C62.30,128.18 61.10,135.78 61.67,139.50 C60.97,134.93 62.08,128.13 64.28,121.09 ZM 141.51 556.48 C149.94,551.67 161.73,540.88 192.50,511.84 L 192.95 511.42 C179.71,524.01 166.98,535.85 158.00,543.85 C150.96,550.12 146.07,553.96 141.51,556.48 ZM 359.50 692.63 C372.16,685.24 384.14,677.95 394.50,671.37 C382.93,678.84 375.81,683.11 359.50,692.63 ZM 241.00 513.09 C241.00,513.12 241.00,513.16 241.00,513.19 C241.00,519.21 243.80,525.01 248.23,528.17 C243.39,524.72 240.82,518.79 241.00,513.09 ZM 304.55 466.45 C301.47,464.07 297.17,462.82 292.33,463.22 C297.40,462.80 301.50,463.89 304.55,466.45 ZM 125.98 506.26 C122.60,506.02 118.89,506.92 116.42,508.68 C117.08,508.16 117.85,507.71 118.71,507.35 C121.26,506.28 123.74,505.98 125.98,506.26 ZM 137.01 414.29 C137.27,420.14 137.59,423.84 137.98,424.70 C138.67,426.25 139.08,427.12 139.83,427.13 C139.07,427.12 138.66,426.25 137.96,424.70 C137.54,423.77 137.24,421.12 137.01,414.29 ZM 250.07 514.77 C249.47,510.65 252.43,506.99 257.75,507.03 C252.60,506.99 249.56,510.60 250.07,514.77 ZM 113.64 512.50 C113.01,514.66 113.07,516.99 113.69,519.12 C112.91,516.84 112.91,514.52 113.64,512.50 ZM 96.62 486.76 C94.56,488.66 92.88,490.29 91.57,491.65 C92.07,491.11 92.58,490.58 93.11,490.05 C93.90,489.26 95.11,488.12 96.62,486.76 ZM 256.35 497.09 C254.27,497.25 252.25,497.81 250.38,498.71 C252.28,497.76 254.30,497.23 256.35,497.09 ZM 334.90 683.04 C334.86,683.41 334.81,683.62 334.76,683.65 C334.75,683.65 334.74,683.66 334.72,683.66 C334.78,683.58 334.84,683.37 334.90,683.04 ZM 267.05 500.18 C266.75,499.98 266.44,499.78 266.11,499.57 C266.43,499.76 266.74,499.97 267.05,500.18 Z" fill="rgb(206,181,139)"/>
<path d="M 278.35 216.47 C279.67,219.92 281.04,218.59 287.89,207.18 C295.75,194.11 297.48,188.48 294.44,185.95 C292.71,184.52 279.56,178.50 268.00,173.85 C263.88,172.20 259.15,170.23 257.50,169.48 C255.85,168.74 251.57,166.94 248.00,165.50 C244.43,164.05 239.56,161.99 237.20,160.91 C234.83,159.83 222.71,154.65 210.26,149.41 C197.82,144.17 172.98,133.55 155.07,125.82 C137.15,118.09 120.03,110.73 117.00,109.47 C113.97,108.20 108.87,105.78 105.65,104.09 C105.29,103.90 104.94,103.72 104.58,103.55 C110.64,105.78 119.84,109.68 134.50,116.00 C162.09,127.89 173.32,132.14 175.66,131.55 C178.45,130.85 178.60,129.22 176.25,125.11 C174.37,121.83 169.74,119.43 143.50,108.17 C135.80,104.87 127.03,100.79 124.00,99.10 C120.97,97.42 117.88,96.03 117.13,96.02 C116.38,96.01 111.77,94.20 106.88,92.00 C92.86,85.69 85.84,86.81 76.89,96.79 C74.56,99.39 72.29,102.85 70.24,106.72 C70.09,106.96 69.95,107.20 69.80,107.45 C70.88,105.27 72.15,102.78 73.67,99.86 C75.63,96.07 83.22,89.36 87.68,87.46 C92.48,85.43 98.52,86.11 104.86,89.41 C115.21,94.80 126.18,100.08 129.73,101.38 C136.07,103.72 152.93,110.94 171.50,119.27 C177.00,121.74 183.75,124.77 186.50,126.00 C189.25,127.23 194.79,129.77 198.82,131.64 C202.84,133.51 211.62,137.31 218.32,140.08 C225.02,142.86 235.50,147.33 241.62,150.02 C247.74,152.71 254.71,155.70 257.12,156.66 C259.53,157.61 266.00,160.61 271.50,163.32 C277.00,166.03 285.33,169.73 290.00,171.54 C294.67,173.36 306.60,178.43 316.50,182.81 C326.40,187.20 338.33,192.37 343.00,194.30 C347.67,196.23 354.97,199.45 359.20,201.44 C367.85,205.51 370.82,205.45 373.62,201.17 C374.57,199.72 376.40,197.41 377.68,196.03 C378.95,194.65 380.00,193.21 380.00,192.82 C380.00,192.44 382.83,190.73 386.28,189.03 C392.34,186.05 392.80,185.98 399.55,186.94 C407.99,188.13 411.34,189.70 416.16,194.70 C424.36,203.20 426.30,213.69 422.09,226.76 C420.98,230.21 420.32,233.66 420.61,234.43 C421.66,237.16 436.13,245.35 445.73,248.65 C452.54,250.99 469.49,250.97 478.30,248.62 C486.06,246.55 489.30,247.00 491.56,250.45 C493.01,252.67 492.99,253.08 491.33,255.68 C488.64,259.89 487.24,260.74 478.50,263.53 C466.05,267.50 455.96,267.78 442.04,264.54 C435.74,263.07 428.31,261.04 425.54,260.02 C422.77,259.01 417.87,257.22 414.66,256.05 C411.45,254.88 408.08,254.16 407.16,254.45 C406.25,254.75 403.48,258.15 401.00,262.01 C392.69,274.99 378.51,296.47 375.92,300.00 C374.51,301.92 370.02,308.23 365.96,314.00 C355.29,329.15 344.85,343.34 343.51,344.50 C342.88,345.05 337.23,352.25 330.95,360.50 C324.68,368.75 318.78,376.40 317.85,377.50 C316.91,378.60 311.33,385.35 305.43,392.50 C299.32,399.91 293.20,407.15 287.01,414.30 C288.12,412.93 288.79,412.02 288.92,411.66 C289.14,411.02 292.97,405.84 297.42,400.15 C319.14,372.33 321.50,368.83 320.84,365.38 C320.64,364.35 319.54,363.36 318.39,363.20 C316.22,362.89 315.24,363.88 296.86,385.19 C284.60,399.40 268.20,417.19 250.53,435.70 C251.52,434.23 253.89,431.42 256.62,428.50 C270.31,413.87 293.78,386.44 322.86,351.07 C324.86,348.64 327.09,346.05 327.82,345.32 C328.55,344.60 328.85,344.00 328.50,344.00 C328.15,344.00 328.65,343.21 329.61,342.25 C331.12,340.75 337.44,332.59 348.28,318.19 C349.80,316.16 352.66,312.05 354.64,309.06 C356.61,306.07 360.56,300.67 363.42,297.06 C366.28,293.45 370.17,288.30 372.06,285.62 C373.95,282.93 378.09,277.08 381.25,272.62 C384.41,268.15 387.30,263.83 387.67,263.00 C388.03,262.17 389.53,259.70 390.99,257.50 C403.52,238.64 411.78,224.49 413.09,219.64 C415.06,212.35 412.59,204.98 406.78,200.84 C403.28,198.35 394.58,198.13 390.16,200.42 C387.51,201.79 377.97,212.69 373.02,220.00 C370.68,223.46 354.10,245.03 353.04,246.00 C352.74,246.27 347.57,253.02 341.55,261.00 C328.46,278.35 310.60,300.08 292.51,320.65 C291.95,321.28 289.25,324.37 286.50,327.53 C265.77,351.34 212.93,404.15 190.49,423.80 C207.19,408.63 264.52,350.68 273.65,339.50 C280.66,330.91 281.31,325.38 275.16,326.48 C271.95,327.06 271.63,327.34 252.93,345.98 C231.27,367.58 213.08,385.12 199.54,397.50 C193.52,403.00 185.65,410.21 182.05,413.52 C185.65,410.21 193.51,403.00 199.53,397.50 C205.54,392.00 211.76,386.15 213.36,384.50 C214.96,382.85 229.82,367.72 246.38,350.89 C275.56,321.22 287.16,308.97 295.50,299.00 C305.79,286.69 315.53,275.20 319.99,270.10 C329.74,258.96 331.89,256.29 341.37,243.67 C347.50,235.50 351.00,229.94 351.00,228.36 C351.00,226.25 349.87,225.37 343.25,222.32 C313.41,208.60 307.10,208.45 293.89,221.09 C282.83,231.68 274.17,236.93 267.70,236.99 C265.60,237.00 250.34,232.36 247.68,230.90 C246.68,230.35 240.38,227.72 233.68,225.06 C219.88,219.58 191.74,207.50 169.50,197.52 C165.16,195.58 161.71,194.03 158.82,192.74 C169.57,197.43 176.77,200.19 193.00,206.07 C204.10,210.10 206.52,210.59 207.47,209.04 C207.80,208.51 207.63,207.28 207.09,206.29 C203.70,200.05 200.76,191.73 200.26,187.00 C199.95,183.98 199.09,180.58 198.36,179.45 C196.74,176.95 193.06,166.15 193.02,163.81 C193.01,162.88 190.19,159.97 186.75,157.34 C183.31,154.71 179.91,151.99 179.18,151.28 C177.31,149.47 157.42,139.93 138.06,131.24 C145.71,134.62 153.28,138.02 158.86,140.63 C164.01,143.03 168.52,145.00 168.88,145.00 C169.79,145.00 183.15,150.56 190.95,154.19 C194.50,155.84 199.45,158.00 201.95,158.99 C206.84,160.92 246.89,178.76 253.50,181.95 C255.70,183.01 262.59,185.99 268.80,188.57 C275.02,191.14 280.71,193.85 281.45,194.60 C281.71,194.85 281.92,195.06 282.07,195.30 C282.75,196.40 282.26,198.24 279.48,208.57 L 279.44 208.72 C278.52,212.15 278.03,215.64 278.35,216.47 ZM 575.03 302.75 C579.62,299.64 584.32,293.03 589.09,283.00 C600.34,259.35 601.04,253.44 601.69,177.40 C601.71,175.62 601.72,173.89 601.74,172.21 C602.16,123.24 602.23,114.86 598.11,111.23 C597.12,110.35 595.89,109.75 594.36,108.92 C591.69,107.48 585.90,104.70 581.50,102.74 C577.10,100.79 568.78,97.08 563.00,94.51 C543.16,85.68 511.79,74.73 485.50,67.48 C475.61,64.75 469.18,63.65 458.64,62.88 C451.01,62.33 444.15,62.11 443.39,62.40 C440.94,63.34 441.90,64.73 445.75,65.82 C447.81,66.41 454.00,68.47 459.50,70.40 C465.00,72.34 470.48,73.94 471.69,73.96 C472.89,73.98 477.39,75.10 481.69,76.44 C485.98,77.79 494.54,80.46 500.70,82.39 C511.03,85.62 522.64,89.82 527.50,92.07 C528.60,92.58 531.97,93.86 535.00,94.92 C538.03,95.98 546.58,99.62 554.00,103.01 C560.52,105.98 565.12,108.07 568.36,109.54 C545.33,99.35 497.72,82.18 485.00,79.52 C483.08,79.12 477.83,77.74 473.33,76.45 C458.01,72.06 420.06,65.04 401.00,63.06 C373.47,60.21 363.48,59.62 342.00,59.62 C309.17,59.61 276.84,62.38 249.00,67.58 C211.28,74.63 195.72,78.57 163.84,89.13 C159.08,90.71 154.58,92.00 153.84,92.01 C153.10,92.01 148.98,90.59 144.68,88.86 C138.11,86.22 137.07,85.50 138.20,84.37 C140.03,82.55 158.52,75.91 171.19,72.53 C176.86,71.01 185.77,68.50 191.00,66.94 C216.19,59.43 244.58,53.52 262.71,52.03 C268.88,51.53 274.85,50.62 275.97,50.01 C277.10,49.41 281.73,48.73 286.26,48.50 C308.57,47.36 315.54,46.94 328.00,45.98 C349.92,44.28 399.24,47.22 420.50,51.49 C424.35,52.26 432.00,53.59 437.50,54.45 C470.55,59.60 528.86,76.87 554.50,89.10 C556.70,90.15 558.81,91.00 559.19,91.00 C559.58,91.00 563.18,92.50 567.19,94.33 C571.21,96.16 574.84,97.73 575.26,97.82 C577.03,98.19 586.56,103.35 587.14,104.26 C587.49,104.81 588.28,104.95 588.89,104.57 C589.50,104.19 590.00,104.36 590.00,104.94 C590.00,105.52 590.59,106.00 591.30,106.00 C592.02,106.00 594.72,107.34 597.30,108.98 L 602.00 111.96 L 602.00 172.73 C601.99,207.04 601.54,238.51 600.95,245.00 C598.29,274.13 588.58,293.65 564.88,317.43 C557.80,324.54 552.00,330.65 552.00,331.01 C552.00,331.37 555.68,335.01 560.18,339.08 C579.71,356.79 593.70,380.08 597.15,400.62 C597.97,405.49 598.66,407.51 599.09,406.33 C599.90,404.15 600.04,406.89 600.14,427.00 C600.22,444.09 599.61,453.55 598.19,457.00 C596.51,461.08 595.72,463.39 595.35,465.28 C594.85,467.84 588.88,483.31 587.91,484.55 C587.46,485.12 585.10,489.62 582.65,494.55 C576.57,506.83 569.05,518.50 558.99,531.30 C554.32,537.24 549.24,543.76 547.69,545.80 C543.45,551.40 519.04,576.09 505.47,588.51 C493.07,599.87 476.35,614.03 466.26,621.73 C459.72,626.72 452.81,631.89 446.54,636.52 C454.29,630.65 462.19,624.44 466.75,620.50 C470.57,617.20 477.23,611.58 481.54,608.00 C499.85,592.83 513.89,579.16 514.52,575.88 C514.76,574.65 516.31,572.24 517.98,570.52 C521.09,567.31 521.70,566.00 520.07,566.00 C519.55,566.00 518.85,566.90 518.50,568.00 C518.15,569.10 517.28,570.00 516.56,570.00 C513.99,570.00 505.40,574.31 500.00,578.32 C496.98,580.56 489.55,586.51 483.50,591.53 C474.37,599.11 464.30,606.99 453.55,614.98 C453.92,614.67 454.27,614.38 454.59,614.11 C456.29,612.68 464.17,606.07 472.09,599.44 C517.00,561.83 544.79,532.64 561.87,505.14 C574.58,484.67 579.93,472.51 584.71,453.22 C587.00,443.97 587.37,440.37 587.39,427.00 C587.42,407.87 585.28,397.74 577.93,382.17 C570.03,365.40 559.96,353.77 539.64,337.94 C535.72,334.88 532.37,331.68 532.21,330.83 C532.03,329.91 535.87,325.85 541.70,320.79 C552.08,311.80 559.98,304.18 560.03,303.13 C560.05,302.78 562.74,299.40 566.00,295.60 C578.10,281.53 585.37,262.30 587.02,240.00 C587.53,233.12 587.95,202.92 587.97,172.87 L 587.98 149.54 L 588.28 180.59 C588.91,245.76 588.68,250.94 584.54,265.11 C582.47,272.17 576.72,284.05 571.97,291.04 C567.17,298.11 566.11,302.38 568.77,303.93 C571.15,305.32 571.27,305.29 575.03,302.75 ZM 388.52 610.73 C402.40,601.70 420.06,588.14 443.03,568.88 C458.18,556.18 460.03,554.12 458.93,551.25 C457.01,546.26 452.21,548.69 427.50,567.18 C408.89,581.10 396.41,589.96 390.28,593.61 L 390.30 593.60 C392.06,592.18 397.10,588.45 401.50,585.31 C412.20,577.68 431.85,562.75 446.21,551.35 C462.32,538.56 495.16,506.67 500.77,498.37 C502.21,496.24 503.86,493.96 504.44,493.31 C505.02,492.65 507.65,489.05 510.27,485.31 C526.61,461.99 531.67,449.68 532.73,430.66 C533.81,411.19 529.31,401.02 513.63,387.50 C512.99,386.95 504.15,378.43 493.98,368.57 C483.82,358.71 472.22,347.46 468.21,343.57 L 460.91 336.50 L 419.84 336.88 C386.64,337.18 378.62,337.00 377.96,335.94 C376.94,334.28 378.96,330.30 382.49,327.00 L 385.16 324.50 L 421.33 324.74 C448.67,324.92 458.02,324.68 459.62,323.74 C461.60,322.58 480.40,304.83 510.19,276.00 C517.29,269.12 524.69,261.12 526.63,258.21 C532.14,249.96 532.96,241.91 532.98,196.18 C532.99,171.72 533.37,157.17 534.04,155.93 C534.84,154.44 536.15,154.00 539.84,154.00 C542.46,154.00 545.14,154.54 545.80,155.20 C546.69,156.09 547.00,166.55 547.00,196.07 C547.00,257.24 546.50,258.86 520.00,283.60 C473.57,326.93 472.04,328.34 472.00,329.78 C472.00,329.83 472.00,329.88 472.00,329.93 C472.00,329.96 472.00,329.99 472.00,330.01 C472.00,331.77 493.34,352.91 508.66,366.34 C524.49,380.21 538.61,395.27 540.12,399.90 C540.76,401.88 541.73,403.78 542.26,404.13 C543.86,405.17 546.10,414.97 546.69,423.50 C547.78,439.27 543.75,454.50 534.02,471.39 C530.71,477.14 528.00,482.30 528.00,482.87 C528.00,483.44 527.44,484.26 526.75,484.70 C526.06,485.14 523.94,487.75 522.03,490.50 C517.70,496.74 517.03,497.61 514.27,500.62 C513.05,501.95 512.07,503.30 512.11,503.60 C512.38,505.98 463.75,554.51 453.22,562.36 C450.34,564.51 438.94,574.02 438.00,575.05 C437.19,575.94 401.11,602.23 394.00,607.10 C392.46,608.16 390.51,609.44 388.52,610.73 ZM 454.20 126.75 C452.67,127.96 448.79,128.46 447.89,127.56 C447.65,127.32 440.71,125.76 432.47,124.09 C371.13,111.71 309.38,111.49 249.67,123.43 C242.61,124.84 235.64,125.99 234.17,125.98 C230.60,125.96 220.50,120.80 220.50,119.00 C220.50,117.66 228.43,114.92 240.86,111.98 C245.29,110.93 265.49,108.01 285.50,105.53 C305.12,103.09 335.61,101.73 354.00,102.45 C403.87,104.42 407.32,104.78 438.50,111.08 C455.60,114.54 457.49,115.68 456.41,121.89 C456.06,123.87 455.07,126.06 454.20,126.75 ZM 346.88 618.08 C346.82,583.11 346.42,555.85 346.00,557.50 C345.37,559.96 345.22,559.45 345.12,554.68 C345.05,551.49 345.50,547.93 346.11,546.79 C346.72,545.65 354.40,537.51 363.16,528.71 C371.93,519.91 380.70,510.76 382.66,508.37 L 386.21 504.03 L 386.36 481.52 C386.50,459.61 386.45,459.00 384.50,459.02 C379.70,459.05 379.52,459.77 379.22,479.71 C379.04,491.97 378.51,499.34 377.72,500.91 C377.05,502.23 373.62,506.05 370.10,509.41 C366.58,512.76 362.08,517.12 360.10,519.10 C352.30,526.91 348.23,530.02 346.61,529.41 C345.16,528.85 345.00,524.45 345.03,485.64 L 345.06 442.50 L 348.54 440.00 C353.97,436.11 356.31,431.65 356.36,425.12 C356.44,414.73 350.90,409.00 340.78,409.00 C336.74,409.00 334.43,409.59 331.99,411.25 C326.65,414.89 324.03,419.97 324.16,425.17 C323.83,421.91 324.12,418.64 325.13,416.76 C326.57,414.06 330.62,410.00 331.87,410.00 C332.40,410.00 333.01,409.48 333.22,408.85 C333.43,408.22 336.10,407.49 339.14,407.24 C343.93,406.84 345.29,407.16 349.09,409.55 C354.81,413.14 356.78,415.46 358.03,420.10 C359.88,426.99 358.30,431.88 352.33,437.71 L 347.00 442.91 L 347.00 486.04 C347.00,512.67 347.36,529.04 347.94,528.83 C348.46,528.65 355.21,522.28 362.94,514.67 L 377.00 500.84 L 377.01 460.50 L 391.76 445.89 C399.87,437.86 408.66,429.42 411.31,427.14 L 416.12 423.00 L 443.61 423.00 C474.03,423.00 474.47,422.92 479.00,416.58 C483.42,410.41 491.73,408.94 500.11,412.87 C502.53,414.00 504.12,414.94 503.66,414.96 C503.20,414.98 504.01,416.41 505.46,418.14 C506.92,419.87 507.88,421.86 507.61,422.58 C507.34,423.29 507.60,424.03 508.20,424.23 C508.92,424.47 509.04,426.22 508.58,429.34 C507.71,435.13 504.03,439.63 497.48,442.90 C493.32,444.98 492.34,445.12 488.91,444.09 C486.70,443.43 482.48,440.56 479.07,437.40 L 473.10 431.87 L 450.30 432.09 C437.76,432.22 425.80,432.52 423.72,432.77 C420.42,433.17 417.96,435.17 404.47,448.45 L 389.00 463.68 L 389.00 504.17 L 368.00 525.33 L 347.00 546.49 L 347.00 614.08 C347.00,651.22 347.28,681.90 347.62,682.29 C347.28,681.91 346.95,653.03 346.88,618.08 ZM 253.51 414.13 C256.80,410.28 259.00,407.54 259.00,407.18 C259.00,406.74 260.24,405.06 261.77,403.44 C264.96,400.05 270.80,392.93 276.40,385.60 C278.55,382.80 280.60,380.27 280.96,380.00 C282.74,378.65 297.92,359.09 299.36,356.30 C301.21,352.70 301.52,349.00 299.98,349.00 C299.41,349.00 298.52,347.88 298.00,346.50 C297.48,345.12 296.57,344.00 295.98,344.00 C292.62,344.00 285.93,349.39 273.50,362.14 C265.80,370.04 256.12,379.61 252.00,383.40 C247.88,387.20 239.32,395.30 233.00,401.40 C219.39,414.54 217.47,416.28 184.50,445.59 C180.62,449.04 176.20,452.92 171.62,456.92 C180.04,449.56 189.49,441.17 201.49,430.44 C213.35,419.83 288.96,344.41 300.66,331.50 C319.25,311.01 319.51,310.72 324.00,304.84 C325.38,303.04 327.17,300.85 328.00,299.98 C328.83,299.11 333.30,293.69 337.95,287.95 C342.60,282.20 346.67,277.27 347.00,277.00 C347.33,276.73 349.94,273.58 352.80,270.00 C355.65,266.42 359.88,261.14 362.20,258.25 C366.72,252.61 368.69,251.90 371.42,254.92 C372.88,256.53 372.96,257.21 371.93,259.17 C369.32,264.11 344.43,300.85 342.91,302.00 C342.55,302.27 341.41,303.86 340.38,305.53 C337.72,309.83 316.81,337.88 306.50,350.97 C298.16,361.57 277.83,386.41 272.85,392.07 C269.75,395.61 261.88,404.58 255.38,412.00 C254.77,412.70 254.14,413.41 253.51,414.13 ZM 386.02 595.51 C386.00,595.50 385.99,595.49 385.97,595.48 C385.44,595.15 385.00,590.86 385.00,585.94 C385.00,580.65 384.59,577.00 384.00,577.00 C383.41,577.00 383.01,573.60 383.02,568.75 L 383.04 560.50 L 388.28 555.00 C410.18,531.98 413.77,527.82 413.29,526.02 C412.64,523.50 410.25,522.71 408.01,524.28 C407.01,524.98 398.72,532.69 389.59,541.40 L 373.00 557.23 L 373.00 556.47 L 406.61 523.52 L 440.22 490.56 L 439.60 485.21 C439.11,481.07 439.40,478.92 440.89,475.68 C442.69,471.75 448.00,464.83 448.00,466.42 C448.00,466.82 448.72,466.42 449.61,465.54 C451.62,463.52 460.98,464.32 465.48,466.89 C469.45,469.15 474.11,475.91 473.65,478.72 C473.45,479.94 473.70,480.68 474.21,480.37 C476.05,479.23 473.73,487.57 471.15,491.41 C468.46,495.39 462.42,498.94 458.26,498.98 C457.03,498.99 453.98,498.45 451.47,497.78 L 446.91 496.56 L 427.70 516.11 C417.14,526.87 403.21,541.07 396.75,547.68 L 385.00 559.69 L 385.00 577.28 C385.00,588.31 385.37,594.90 386.02,595.51 ZM 535.85 262.51 C539.84,258.91 542.95,251.25 544.57,241.00 C546.06,231.60 546.48,170.61 545.12,161.00 C544.50,156.62 544.38,156.49 540.61,156.18 C538.48,156.01 536.23,156.37 535.62,156.98 C534.83,157.78 534.50,171.19 534.50,202.80 C534.50,250.15 534.42,251.13 529.50,261.15 C528.56,263.08 528.51,264.11 529.30,264.90 C530.96,266.56 531.66,266.30 535.85,262.51 ZM 513.25 207.61 C510.85,209.43 505.48,209.33 503.57,207.43 C502.20,206.06 502.00,201.39 502.00,171.36 C502.00,149.50 502.38,136.16 503.04,134.93 C503.81,133.49 505.14,133.00 508.34,133.00 C510.68,133.00 513.14,133.54 513.80,134.20 C514.69,135.09 515.00,144.61 515.00,170.84 C515.00,203.42 514.86,206.39 513.25,207.61 ZM 216.38 352.30 C220.24,351.66 222.63,350.31 224.86,347.92 C226.87,345.76 227.00,344.61 227.00,328.91 L 227.00 312.20 L 233.37 304.35 C242.46,293.15 244.02,291.92 250.17,291.03 C253.10,290.60 254.52,290.19 253.33,290.12 C250.41,289.96 245.41,285.62 244.24,282.24 C243.06,278.85 243.58,275.12 245.52,272.97 C246.34,272.08 247.00,270.87 247.00,270.29 C247.00,269.72 248.37,268.68 250.04,267.99 C252.62,266.91 253.66,266.99 257.06,268.53 C261.78,270.66 262.47,272.59 261.74,281.71 L 261.21 288.24 L 263.60 285.85 C266.59,282.86 267.17,275.95 264.66,273.18 C263.75,272.17 263.00,270.79 263.00,270.11 C263.00,269.44 262.58,269.14 262.07,269.46 C261.56,269.77 260.48,269.10 259.68,267.96 C258.48,266.24 257.05,265.85 251.40,265.68 C244.93,265.50 244.41,265.65 241.34,268.73 C237.55,272.52 236.19,277.88 237.86,282.48 C238.49,284.22 239.00,286.29 238.99,287.07 C238.99,288.34 227.73,299.30 224.41,301.27 C223.69,301.69 222.07,303.49 220.80,305.27 C218.69,308.23 218.46,309.83 218.00,324.50 L 217.50 340.50 L 204.91 340.78 L 193.95 341.02 L 204.41 340.78 L 216.50 340.50 L 217.01 324.50 C217.31,315.15 218.01,307.67 218.69,306.50 C219.33,305.40 223.74,300.74 228.49,296.15 C234.79,290.06 236.95,287.35 236.47,286.15 C232.87,277.24 236.76,267.52 245.83,262.75 C249.45,260.85 255.00,260.39 255.00,262.00 C255.00,262.55 255.84,263.00 256.86,263.00 C259.41,263.00 268.00,270.73 268.00,273.03 C268.00,274.05 268.45,275.16 269.00,275.50 C271.65,277.14 268.72,286.52 264.14,291.07 C260.66,294.53 260.10,294.72 251.67,295.36 C246.59,295.74 242.34,296.57 241.67,297.30 C241.02,298.00 237.71,301.54 234.30,305.15 L 228.10 311.72 L 228.24 328.11 C228.37,342.48 228.16,344.84 226.55,347.29 C224.36,350.62 222.58,351.83 216.38,352.30 ZM 483.62 208.23 C481.59,209.57 477.34,209.03 475.80,207.25 C474.55,205.81 474.27,201.70 474.23,184.00 C474.17,164.23 474.32,162.36 476.04,160.75 C478.68,158.29 481.30,158.57 484.39,161.66 L 487.05 164.33 L 486.50 183.91 C485.94,203.88 485.58,206.94 483.62,208.23 ZM 381.54 386.72 C376.32,391.21 367.30,388.35 364.33,381.25 C362.91,377.84 362.93,377.29 364.59,374.21 C366.59,370.50 368.28,369.31 372.00,368.99 C377.43,368.53 379.32,369.13 382.20,372.22 C384.86,375.06 385.15,375.96 384.70,379.94 C384.34,383.17 383.45,385.08 381.54,386.72 ZM 418.93 385.27 C416.35,388.40 415.23,389.00 412.00,389.00 C408.99,389.00 407.35,388.26 404.57,385.63 C399.49,380.84 399.80,375.25 405.46,369.42 C406.87,367.97 415.07,368.40 417.73,370.06 C422.78,373.22 423.31,379.96 418.93,385.27 ZM 455.77 207.16 C455.07,207.61 453.60,207.97 452.50,207.97 C447.51,207.97 446.00,204.31 446.00,192.22 C446.00,181.48 447.11,179.00 451.89,179.00 C456.90,179.00 457.68,180.34 458.38,190.21 C459.06,199.68 458.13,205.66 455.77,207.16 ZM 453.39 386.91 C451.92,388.06 449.55,388.99 448.12,388.99 C444.48,388.97 439.37,384.66 437.98,380.43 C436.94,377.28 437.07,376.52 439.16,373.43 C441.81,369.50 446.00,367.92 450.50,369.15 C453.83,370.05 459.00,375.18 459.00,377.57 C459.00,380.07 456.23,384.67 453.39,386.91 ZM 485.50 134.59 C480.03,140.06 470.80,136.28 470.80,128.56 C470.80,120.90 476.60,116.66 482.87,119.73 C489.39,122.91 490.56,129.53 485.50,134.59 ZM 510.34 174.48 C510.25,171.74 509.78,167.48 509.29,165.00 C508.57,161.29 508.77,159.80 510.44,156.50 C512.00,153.43 512.47,150.53 512.48,144.00 L 512.50 135.50 L 504.50 135.50 L 504.70 145.00 C504.99,158.51 506.01,177.26 506.54,178.82 C506.79,179.55 507.78,179.99 508.75,179.80 C510.16,179.53 510.47,178.51 510.34,174.48 ZM 165.27 86.14 C174.44,81.98 175.51,78.81 168.20,77.53 C166.38,77.21 163.00,77.43 160.70,78.01 C153.23,79.90 142.00,84.43 142.00,85.56 C142.00,87.19 150.99,89.96 155.00,89.56 C156.93,89.36 161.55,87.82 165.27,86.14 ZM 444.77 119.16 C445.76,118.54 445.65,118.01 444.27,116.85 C440.69,113.81 420.57,109.54 414.30,110.48 C411.93,110.83 410.00,111.28 410.00,111.48 C410.00,111.68 409.74,112.51 409.42,113.34 C408.03,116.97 439.95,122.22 444.77,119.16 ZM 453.50 488.81 C456.61,490.57 458.88,490.21 461.55,487.55 C464.48,484.62 464.88,478.63 462.35,475.83 C460.31,473.58 455.23,473.45 452.22,475.56 C450.52,476.75 450.00,478.10 450.02,481.31 C450.03,485.97 450.58,487.15 453.50,488.81 ZM 391.15 234.92 C387.33,236.97 383.86,235.61 381.64,231.20 C379.81,227.55 381.87,222.32 385.51,221.41 C388.63,220.63 393.14,222.39 394.79,225.03 C396.34,227.52 394.22,233.28 391.15,234.92 ZM 485.65 432.17 C487.75,434.48 493.70,434.58 496.17,432.35 C498.20,430.51 498.62,425.03 496.96,421.93 C495.52,419.24 489.13,419.30 486.19,422.04 C483.55,424.49 483.29,429.55 485.65,432.17 ZM 247.60 283.69 C250.46,286.55 253.92,286.64 257.37,283.93 C262.35,280.01 259.57,272.00 253.22,272.00 C246.63,272.00 243.15,279.24 247.60,283.69 ZM 562.00 346.11 C562.00,344.93 547.78,332.00 546.50,332.02 C543.51,332.06 542.98,333.71 545.08,336.38 C546.26,337.88 547.45,338.88 547.73,338.60 C548.01,338.33 550.15,340.10 552.50,342.55 C555.42,345.60 557.58,347.00 559.38,347.00 C560.82,347.00 562.00,346.60 562.00,346.11 ZM 119.00 548.05 C123.76,548.56 126.52,548.63 129.17,547.98 C124.81,549.45 120.40,550.09 116.80,549.66 C107.84,548.60 98.59,542.04 94.14,533.58 C92.93,531.29 92.41,529.50 92.29,526.11 C92.64,527.86 93.44,529.38 94.98,532.01 C96.75,535.03 99.16,538.56 100.35,539.85 C103.91,543.73 111.98,547.28 119.00,548.05 ZM 442.00 497.00 C443.76,495.35 446.57,493.65 448.22,493.22 L 451.24 492.44 L 448.53 489.22 C445.68,485.83 444.00,485.78 444.00,489.09 C444.00,490.18 442.42,492.64 440.50,494.57 C434.90,500.17 436.25,502.37 442.00,497.00 ZM 149.17 302.32 C149.11,293.78 149.07,282.67 149.05,268.27 C148.99,236.79 148.72,210.43 148.43,209.69 C148.01,208.57 139.01,205.00 136.63,205.00 C136.27,205.00 136.09,248.24 136.21,303.03 L 135.94 202.85 L 138.22 203.53 C139.47,203.91 142.41,205.04 144.75,206.05 L 149.00 207.89 L 149.19 252.19 C149.27,271.02 149.26,290.84 149.17,302.32 ZM 312.00 670.41 C313.32,671.58 316.49,673.69 320.06,675.88 C316.46,673.80 312.63,671.66 310.00,670.27 C301.07,665.55 297.18,663.11 288.23,656.64 C286.77,655.59 285.07,654.41 283.38,653.26 C286.62,655.25 289.02,656.58 289.72,656.72 C291.51,657.08 309.25,667.98 312.00,670.41 ZM 125.98 506.26 C123.74,505.98 121.26,506.28 118.71,507.35 C117.85,507.71 117.08,508.16 116.42,508.68 C115.68,509.21 115.05,509.81 114.58,510.47 C115.09,509.47 115.75,508.48 116.54,507.50 C118.73,504.81 119.54,504.51 124.48,504.55 C129.14,504.60 130.44,505.05 132.99,507.49 C135.53,509.92 135.97,511.00 136.00,515.35 C135.65,513.11 134.51,511.04 132.82,509.44 C132.57,509.08 132.29,508.76 131.97,508.48 C130.48,507.13 128.31,506.42 125.98,506.26 ZM 206.08 481.08 C184.02,503.04 163.59,522.52 150.23,534.08 C147.77,536.18 145.56,538.02 143.65,539.55 C147.65,536.28 153.22,531.35 162.00,523.41 C170.09,516.11 188.30,498.52 206.08,481.08 ZM 262.72 639.43 C262.98,639.62 263.25,639.81 263.51,640.00 C260.25,637.67 255.22,634.13 245.05,627.00 C234.93,619.90 225.42,612.75 215.20,604.46 C226.09,613.22 236.77,621.10 250.50,630.74 C254.90,633.83 260.40,637.74 262.72,639.43 ZM 426.04 634.63 C412.43,643.99 398.22,653.28 383.85,662.19 C396.97,654.00 412.61,643.75 426.04,634.63 ZM 93.77 510.96 C96.31,503.75 103.23,497.45 122.39,481.78 C103.30,497.40 96.40,503.82 93.77,510.96 ZM 174.07 374.13 C162.14,385.87 151.63,396.05 150.68,396.79 C151.63,396.05 162.20,385.81 174.20,374.00 L 196.05 352.51 L 202.64 352.67 L 195.80 352.76 ZM 275.15 648.00 C272.55,646.40 269.36,644.28 267.50,642.90 C266.54,642.19 265.57,641.49 264.36,640.61 C267.74,643.02 271.53,645.62 275.15,648.00 ZM 132.60 524.60 C134.39,522.81 135.44,520.87 135.88,518.94 C135.61,521.27 134.82,522.38 132.60,524.60 ZM 188.72 515.43 C190.12,514.10 191.53,512.76 192.95,511.42 C200.79,504.01 208.37,496.74 215.10,490.21 C207.88,497.25 200.37,504.45 192.50,511.87 C191.21,513.09 189.95,514.27 188.72,515.43 ZM 89.21 107.54 C89.67,109.13 90.92,110.49 93.67,112.10 C92.35,111.38 91.38,110.74 90.75,110.20 C89.98,109.53 89.47,108.58 89.21,107.54 ZM 64.28 121.09 C64.00,122.00 63.73,122.91 63.48,123.81 C64.08,121.25 64.74,119.02 65.71,116.49 C65.20,117.96 64.72,119.52 64.28,121.09 ZM 244.52 460.70 C250.79,454.19 257.53,447.04 263.82,440.26 C257.56,447.05 251.15,453.84 244.52,460.70 ZM 333.63 683.41 C332.14,682.85 329.41,681.44 326.40,679.64 C329.46,681.38 332.18,682.82 333.63,683.41 ZM 114.36 520.90 C113.77,519.76 113.40,518.58 113.24,517.36 C113.34,517.95 113.49,518.54 113.69,519.12 C113.87,519.73 114.09,520.33 114.36,520.90 ZM 150.83 329.96 C151.20,329.94 159.04,322.60 168.25,313.66 C159.04,322.60 151.21,329.94 150.86,329.96 C150.84,329.96 150.83,329.96 150.82,329.96 C150.82,329.96 150.82,329.96 150.83,329.96 ZM 121.32 527.37 C120.12,526.86 118.93,526.09 117.75,525.09 C117.87,525.17 117.98,525.25 118.10,525.32 C119.16,526.21 120.24,526.89 121.32,527.37 ZM 91.25 101.87 C90.51,102.29 89.93,102.85 89.54,103.56 C89.86,102.90 90.33,102.36 90.93,102.04 C91.04,101.98 91.14,101.92 91.25,101.87 ZM 366.42 672.76 C359.13,677.09 354.48,679.74 351.61,681.14 C354.44,679.75 359.07,677.12 366.42,672.76 ZM 94.78 101.02 C93.85,101.04 93.01,101.18 92.27,101.42 C93.02,101.16 93.81,101.01 94.78,101.02 ZM 141.51 556.48 C141.58,556.45 141.64,556.41 141.71,556.37 C138.32,558.34 135.49,559.33 132.21,560.14 C135.42,559.35 138.21,558.37 141.51,556.48 ZM 238.03 431.42 C234.99,434.67 231.83,438.09 231.00,439.01 C231.83,438.09 234.99,434.67 238.02,431.42 C238.23,431.20 238.44,430.98 238.64,430.75 C238.42,430.99 238.21,431.22 238.03,431.42 ZM 236.02 469.40 C236.39,469.03 236.76,468.66 237.12,468.29 C236.69,468.73 236.26,469.17 235.83,469.60 ZM 137.96 424.70 C137.93,424.62 137.89,424.52 137.85,424.41 C137.89,424.52 137.93,424.62 137.96,424.70 C138.03,424.85 138.09,424.98 138.15,425.11 C138.09,424.98 138.03,424.85 137.96,424.70 Z" fill="rgb(238,216,171)"/>
<path d="M 0.00 360.50 L 0.00 0.00 L 353.00 0.00 L 706.00 0.00 L 706.00 360.50 L 706.00 721.00 L 353.00 721.00 L 0.00 721.00 L 0.00 360.50 ZM 359.50 692.63 C380.82,680.19 386.44,676.71 406.81,663.35 C416.33,657.11 424.31,652.00 424.55,652.00 C425.52,652.00 447.41,636.11 466.26,621.73 C476.35,614.03 493.07,599.87 505.47,588.51 C519.04,576.09 543.45,551.40 547.69,545.80 C549.24,543.76 554.32,537.24 558.99,531.30 C569.05,518.50 576.57,506.83 582.65,494.55 C585.10,489.62 587.46,485.12 587.91,484.55 C588.88,483.31 594.85,467.84 595.35,465.28 C595.72,463.39 596.51,461.08 598.19,457.00 C599.61,453.55 600.22,444.09 600.14,427.00 C600.04,406.89 599.90,404.15 599.09,406.33 C598.66,407.51 597.97,405.49 597.15,400.62 C593.70,380.08 579.71,356.79 560.18,339.08 C555.68,335.01 552.00,331.37 552.00,331.01 C552.00,330.65 557.80,324.54 564.88,317.43 C588.58,293.65 598.29,274.13 600.95,245.00 C601.54,238.51 601.99,207.04 602.00,172.73 L 602.00 111.96 L 597.30 108.98 C594.72,107.34 592.02,106.00 591.30,106.00 C590.59,106.00 590.00,105.52 590.00,104.94 C590.00,104.36 589.50,104.19 588.89,104.57 C588.28,104.95 587.49,104.81 587.14,104.26 C586.56,103.35 577.03,98.19 575.26,97.82 C574.84,97.73 571.21,96.16 567.19,94.33 C563.18,92.50 559.58,91.00 559.19,91.00 C558.81,91.00 556.70,90.15 554.50,89.10 C528.86,76.87 470.55,59.60 437.50,54.45 C432.00,53.59 424.35,52.26 420.50,51.49 C399.24,47.22 349.92,44.28 328.00,45.98 C315.54,46.94 308.57,47.36 286.26,48.50 C281.73,48.73 277.10,49.41 275.97,50.01 C274.85,50.62 268.88,51.53 262.71,52.03 C244.58,53.52 216.19,59.43 191.00,66.94 C185.77,68.50 176.86,71.01 171.19,72.53 C158.52,75.91 140.03,82.55 138.20,84.37 C137.07,85.50 138.11,86.22 144.68,88.86 C148.98,90.59 153.10,92.01 153.84,92.01 C154.58,92.00 159.08,90.71 163.84,89.13 C195.72,78.57 211.28,74.63 249.00,67.58 C276.84,62.38 309.17,59.61 342.00,59.62 C363.48,59.62 373.47,60.21 401.00,63.06 C420.06,65.04 458.01,72.06 473.33,76.45 C477.83,77.74 483.08,79.12 485.00,79.52 C497.99,82.23 547.34,100.08 569.78,110.18 C573.23,111.73 576.25,113.00 576.50,113.00 C576.74,113.00 579.43,114.18 582.47,115.62 L 588.00 118.23 L 587.97 172.87 C587.95,202.92 587.53,233.12 587.02,240.00 C585.37,262.30 578.10,281.53 566.00,295.60 C562.74,299.40 560.05,302.78 560.03,303.13 C559.98,304.18 552.08,311.80 541.70,320.79 C535.87,325.85 532.03,329.91 532.21,330.83 C532.37,331.68 535.72,334.88 539.64,337.94 C559.96,353.77 570.03,365.40 577.93,382.17 C585.28,397.74 587.42,407.87 587.39,427.00 C587.37,440.37 587.00,443.97 584.71,453.22 C579.93,472.51 574.58,484.67 561.87,505.14 C544.79,532.64 517.00,561.83 472.09,599.44 C464.17,606.07 456.29,612.68 454.59,614.11 C444.15,622.94 399.58,652.87 374.00,668.23 C353.99,680.25 348.51,683.17 347.62,682.29 C347.28,681.95 347.00,651.25 347.00,614.08 L 347.00 546.49 L 368.00 525.33 L 389.00 504.17 L 389.00 483.92 L 389.00 463.68 L 404.47 448.45 C417.96,435.17 420.42,433.17 423.72,432.77 C425.80,432.52 437.76,432.22 450.30,432.09 L 473.10 431.87 L 479.07 437.40 C482.48,440.56 486.70,443.43 488.91,444.09 C492.34,445.12 493.32,444.98 497.48,442.90 C504.03,439.63 507.71,435.13 508.58,429.34 C509.04,426.22 508.92,424.47 508.20,424.23 C507.60,424.03 507.34,423.29 507.61,422.58 C507.88,421.86 506.92,419.87 505.46,418.14 C504.01,416.41 503.20,414.98 503.66,414.96 C504.12,414.94 502.53,414.00 500.11,412.87 C491.73,408.94 483.42,410.41 479.00,416.58 C474.47,422.92 474.03,423.00 443.61,423.00 L 416.12 423.00 L 411.31 427.14 C408.66,429.42 399.87,437.86 391.76,445.89 L 377.01 460.50 L 377.01 480.67 L 377.00 500.84 L 362.94 514.67 C355.21,522.28 348.46,528.65 347.94,528.83 C347.36,529.04 347.00,512.67 347.00,486.04 L 347.00 442.91 L 352.33 437.71 C358.30,431.88 359.88,426.99 358.03,420.10 C356.78,415.46 354.81,413.14 349.09,409.55 C345.29,407.16 343.93,406.84 339.14,407.24 C336.10,407.49 333.43,408.22 333.22,408.85 C333.01,409.48 332.40,410.00 331.87,410.00 C330.62,410.00 326.57,414.06 325.13,416.76 C323.36,420.06 323.79,427.66 325.97,431.94 C327.06,434.07 329.54,437.13 331.50,438.74 L 335.05 441.67 L 335.04 471.08 C335.02,503.05 335.19,502.24 329.50,497.20 C317.53,486.61 310.88,479.25 309.87,475.51 C307.48,466.65 301.50,462.46 292.33,463.22 C287.92,463.59 286.32,464.27 283.57,466.93 C275.59,474.67 276.95,487.32 286.47,493.84 C291.05,496.98 298.54,496.80 303.49,493.44 C305.56,492.04 307.76,491.08 308.38,491.33 C309.00,491.57 315.24,497.07 322.25,503.54 L 335.00 515.32 L 335.22 584.41 C335.34,622.41 335.45,660.18 335.47,668.35 C335.49,676.51 335.14,683.41 334.71,683.68 C333.79,684.25 315.69,673.67 312.00,670.41 C309.25,667.98 291.51,657.08 289.72,656.72 C287.76,656.33 272.70,646.69 262.72,639.43 C260.40,637.74 254.90,633.83 250.50,630.74 C221.80,610.59 206.42,598.12 174.64,569.25 C169.65,564.71 165.04,561.00 164.41,561.00 C163.78,561.00 161.34,562.70 159.01,564.77 L 154.76 568.54 L 163.67 577.02 C196.77,608.51 252.94,650.55 297.82,677.43 C319.85,690.62 340.23,701.94 342.00,701.95 C342.83,701.96 350.70,697.77 359.50,692.63 ZM 309.06 616.33 C309.67,614.73 310.03,602.64 309.95,586.08 L 309.82 558.50 L 294.99 543.50 C274.18,522.47 274.63,523.09 274.90,515.80 C275.08,510.78 274.68,509.12 272.55,505.89 C265.20,494.79 251.34,494.03 243.88,504.32 C238.67,511.51 240.73,522.82 248.23,528.17 C251.03,530.17 252.68,530.49 259.73,530.46 L 267.95 530.43 L 282.95 545.46 C294.99,557.54 297.98,561.09 298.15,563.50 C298.27,565.15 298.28,573.36 298.18,581.75 C298.05,593.19 297.69,597.00 296.75,597.00 C296.06,596.99 293.15,595.21 290.27,593.03 C287.39,590.85 282.63,587.36 279.68,585.28 C273.05,580.61 252.53,565.08 242.77,557.37 C234.57,550.88 213.02,531.82 208.56,527.10 C206.95,525.40 205.26,524.00 204.82,524.00 C203.42,524.00 196.00,531.17 196.00,532.51 C196.00,533.60 215.09,550.53 236.00,568.00 C252.66,581.92 304.18,618.74 307.27,618.95 C307.70,618.98 308.51,617.80 309.06,616.33 ZM 381.18 615.28 C384.66,613.23 390.42,609.55 394.00,607.10 C401.11,602.23 437.19,575.94 438.00,575.05 C438.94,574.02 450.34,564.51 453.22,562.36 C463.75,554.51 512.38,505.98 512.11,503.60 C512.07,503.30 513.05,501.95 514.27,500.62 C517.03,497.61 517.70,496.74 522.03,490.50 C523.94,487.75 526.06,485.14 526.75,484.70 C527.44,484.26 528.00,483.44 528.00,482.87 C528.00,482.30 530.71,477.14 534.02,471.39 C543.75,454.50 547.78,439.27 546.69,423.50 C546.10,414.97 543.86,405.17 542.26,404.13 C541.73,403.78 540.76,401.88 540.12,399.90 C538.61,395.27 524.49,380.21 508.66,366.34 C493.34,352.91 472.00,331.77 472.00,330.01 C472.00,328.37 471.16,329.18 520.00,283.60 C546.50,258.86 547.00,257.24 547.00,196.07 C547.00,166.55 546.69,156.09 545.80,155.20 C545.14,154.54 542.46,154.00 539.84,154.00 C536.15,154.00 534.84,154.44 534.04,155.93 C533.37,157.17 532.99,171.72 532.98,196.18 C532.96,241.91 532.14,249.96 526.63,258.21 C524.69,261.12 517.29,269.12 510.19,276.00 C480.40,304.83 461.60,322.58 459.62,323.74 C458.02,324.68 448.67,324.92 421.33,324.74 L 385.16 324.50 L 382.49 327.00 C378.96,330.30 376.94,334.28 377.96,335.94 C378.62,337.00 386.64,337.18 419.84,336.88 L 460.91 336.50 L 468.21 343.57 C472.22,347.46 483.82,358.71 493.98,368.57 C504.15,378.43 512.99,386.95 513.63,387.50 C529.31,401.02 533.81,411.19 532.73,430.66 C531.67,449.68 526.61,461.99 510.27,485.31 C507.65,489.05 505.02,492.65 504.44,493.31 C503.86,493.96 502.21,496.24 500.77,498.37 C495.16,506.67 462.32,538.56 446.21,551.35 C431.85,562.75 412.20,577.68 401.50,585.31 C397.10,588.45 392.06,592.18 390.30,593.60 C388.54,595.02 386.63,595.89 386.05,595.53 C385.38,595.12 385.00,588.49 385.00,577.28 L 385.00 559.69 L 396.75 547.68 C403.21,541.07 417.14,526.87 427.70,516.11 L 446.91 496.56 L 451.47 497.78 C453.98,498.45 457.03,498.99 458.26,498.98 C462.42,498.94 468.46,495.39 471.15,491.41 C473.73,487.57 476.05,479.23 474.21,480.37 C473.70,480.68 473.45,479.94 473.65,478.72 C474.11,475.91 469.45,469.15 465.48,466.89 C460.98,464.32 451.62,463.52 449.61,465.54 C448.72,466.42 448.00,466.82 448.00,466.42 C448.00,464.83 442.69,471.75 440.89,475.68 C439.40,478.92 439.11,481.07 439.60,485.21 L 440.22 490.56 L 406.61 523.52 L 373.00 556.47 L 373.00 586.15 C373.00,612.32 373.31,619.00 374.54,619.00 C374.71,619.00 377.70,617.33 381.18,615.28 ZM 130.81 560.48 C143.16,557.67 147.82,554.00 192.50,511.87 C238.27,468.71 271.89,433.17 305.43,392.50 C311.33,385.35 316.91,378.60 317.85,377.50 C318.78,376.40 324.68,368.75 330.95,360.50 C337.23,352.25 342.88,345.05 343.51,344.50 C344.85,343.34 355.29,329.15 365.96,314.00 C370.02,308.23 374.51,301.92 375.92,300.00 C378.51,296.47 392.69,274.99 401.00,262.01 C403.48,258.15 406.25,254.75 407.16,254.45 C408.08,254.16 411.45,254.88 414.66,256.05 C417.87,257.22 422.77,259.01 425.54,260.02 C428.31,261.04 435.74,263.07 442.04,264.54 C455.96,267.78 466.05,267.50 478.50,263.53 C487.24,260.74 488.64,259.89 491.33,255.68 C492.99,253.08 493.01,252.67 491.56,250.45 C489.30,247.00 486.06,246.55 478.30,248.62 C469.49,250.97 452.54,250.99 445.73,248.65 C436.13,245.35 421.66,237.16 420.61,234.43 C420.32,233.66 420.98,230.21 422.09,226.76 C426.30,213.69 424.36,203.20 416.16,194.70 C411.34,189.70 407.99,188.13 399.55,186.94 C392.80,185.98 392.34,186.05 386.28,189.03 C382.83,190.73 380.00,192.44 380.00,192.82 C380.00,193.21 378.95,194.65 377.68,196.03 C376.40,197.41 374.57,199.72 373.62,201.17 C370.82,205.45 367.85,205.51 359.20,201.44 C354.97,199.45 347.67,196.23 343.00,194.30 C338.33,192.37 326.40,187.20 316.50,182.81 C306.60,178.43 294.67,173.36 290.00,171.54 C285.33,169.73 277.00,166.03 271.50,163.32 C266.00,160.61 259.53,157.61 257.12,156.66 C254.71,155.70 247.74,152.71 241.62,150.02 C235.50,147.33 225.02,142.86 218.32,140.08 C211.62,137.31 202.84,133.51 198.82,131.64 C194.79,129.77 189.25,127.23 186.50,126.00 C183.75,124.77 177.00,121.74 171.50,119.27 C152.93,110.94 136.07,103.72 129.73,101.38 C126.18,100.08 115.21,94.80 104.86,89.41 C98.52,86.11 92.48,85.43 87.68,87.46 C83.22,89.36 75.63,96.07 73.67,99.86 C66.16,114.35 64.60,118.19 62.92,126.37 C61.80,131.84 61.30,137.09 61.67,139.50 C62.48,144.77 65.46,150.60 68.32,152.47 C71.12,154.31 109.84,171.74 131.00,180.70 C148.48,188.10 148.87,188.27 169.50,197.52 C191.74,207.50 219.88,219.58 233.68,225.06 C240.38,227.72 246.68,230.35 247.68,230.90 C250.34,232.36 265.60,237.00 267.70,236.99 C274.17,236.93 282.83,231.68 293.89,221.09 C307.10,208.45 313.41,208.60 343.25,222.32 C349.87,225.37 351.00,226.25 351.00,228.36 C351.00,229.94 347.50,235.50 341.37,243.67 C331.89,256.29 329.74,258.96 319.99,270.10 C315.53,275.20 305.79,286.69 295.50,299.00 C287.16,308.97 275.56,321.22 246.38,350.89 C229.82,367.72 214.96,382.85 213.36,384.50 C211.76,386.15 205.54,392.00 199.53,397.50 C193.51,403.00 185.65,410.21 182.05,413.52 C175.47,419.58 145.39,445.74 135.70,453.84 C132.84,456.23 123.37,464.07 114.66,471.27 C105.94,478.46 96.25,486.91 93.11,490.05 C75.30,507.86 74.75,532.75 91.80,549.73 C98.04,555.95 103.03,558.69 111.39,560.51 C119.55,562.29 122.87,562.28 130.81,560.48 ZM 97.07 465.16 L 101.39 461.33 L 99.18 451.41 C95.55,435.10 95.01,415.13 95.00,297.23 L 95.00 184.95 L 92.25 184.00 C90.74,183.47 88.23,182.36 86.67,181.52 C80.47,178.19 80.91,167.82 81.28,309.25 C81.61,437.02 81.64,438.61 83.75,448.00 C85.57,456.10 86.81,460.34 89.49,467.75 C90.27,469.92 92.60,469.12 97.07,465.16 ZM 145.75 422.61 L 149.00 419.61 L 149.00 408.84 C149.00,399.96 149.29,397.85 150.67,396.79 C151.59,396.08 162.12,385.88 174.07,374.13 L 195.80 352.76 L 208.15 352.59 C221.39,352.41 223.61,351.77 226.55,347.29 C228.16,344.84 228.37,342.48 228.24,328.11 L 228.10 311.72 L 234.30 305.15 C237.71,301.54 241.02,298.00 241.67,297.30 C242.34,296.57 246.59,295.74 251.67,295.36 C260.10,294.72 260.66,294.53 264.14,291.07 C268.72,286.52 271.65,277.14 269.00,275.50 C268.45,275.16 268.00,274.05 268.00,273.03 C268.00,270.73 259.41,263.00 256.86,263.00 C255.84,263.00 255.00,262.55 255.00,262.00 C255.00,260.39 249.45,260.85 245.83,262.75 C236.76,267.52 232.87,277.24 236.47,286.15 C236.95,287.35 234.79,290.06 228.49,296.15 C223.74,300.74 219.33,305.40 218.69,306.50 C218.01,307.67 217.31,315.15 217.01,324.50 L 216.50 340.50 L 204.41 340.78 L 192.31 341.06 L 172.01 360.78 C160.85,371.63 151.11,380.65 150.36,380.82 C149.26,381.09 149.00,378.07 149.01,364.82 L 149.01 348.50 L 171.03 326.00 C183.13,313.62 193.72,302.25 194.56,300.73 C195.61,298.80 196.18,294.20 196.42,285.57 C196.79,272.52 197.02,271.60 200.73,268.66 C204.70,265.51 207.27,259.30 206.56,254.58 C205.38,246.66 200.67,241.85 192.25,239.95 C182.56,237.75 173.01,245.86 173.00,256.29 C173.00,261.99 174.47,264.48 180.49,268.99 L 185.00 272.37 L 185.00 284.89 L 185.00 297.40 L 168.25 313.66 C159.04,322.60 151.20,329.94 150.83,329.96 C149.39,330.05 148.77,323.03 149.07,310.06 C149.24,302.60 149.30,276.56 149.19,252.19 L 149.00 207.89 L 144.75 206.05 C142.41,205.04 139.47,203.91 138.22,203.53 L 135.94 202.85 L 136.23 312.17 C136.48,404.72 136.75,421.99 137.96,424.70 C139.56,428.25 139.67,428.22 145.75,422.61 ZM 381.54 386.72 C383.45,385.08 384.34,383.17 384.70,379.94 C385.15,375.96 384.86,375.06 382.20,372.22 C379.32,369.13 377.43,368.53 372.00,368.99 C368.28,369.31 366.59,370.50 364.59,374.21 C362.93,377.29 362.91,377.84 364.33,381.25 C367.30,388.35 376.32,391.21 381.54,386.72 ZM 418.93 385.27 C423.31,379.96 422.78,373.22 417.73,370.06 C415.07,368.40 406.87,367.97 405.46,369.42 C399.80,375.25 399.49,380.84 404.57,385.63 C407.35,388.26 408.99,389.00 412.00,389.00 C415.23,389.00 416.35,388.40 418.93,385.27 ZM 453.39 386.91 C456.23,384.67 459.00,380.07 459.00,377.57 C459.00,375.18 453.83,370.05 450.50,369.15 C446.00,367.92 441.81,369.50 439.16,373.43 C437.07,376.52 436.94,377.28 437.98,380.43 C439.37,384.66 444.48,388.97 448.12,388.99 C449.55,388.99 451.92,388.06 453.39,386.91 ZM 483.62 208.23 C485.58,206.94 485.94,203.88 486.50,183.91 L 487.05 164.33 L 484.39 161.66 C481.30,158.57 478.68,158.29 476.04,160.75 C474.32,162.36 474.17,164.23 474.23,184.00 C474.27,201.70 474.55,205.81 475.80,207.25 C477.34,209.03 481.59,209.57 483.62,208.23 ZM 513.25 207.61 C514.86,206.39 515.00,203.42 515.00,170.84 C515.00,144.61 514.69,135.09 513.80,134.20 C513.14,133.54 510.68,133.00 508.34,133.00 C505.14,133.00 503.81,133.49 503.04,134.93 C502.38,136.16 502.00,149.50 502.00,171.36 C502.00,201.39 502.20,206.06 503.57,207.43 C505.48,209.33 510.85,209.43 513.25,207.61 ZM 455.77 207.16 C458.13,205.66 459.06,199.68 458.38,190.21 C457.68,180.34 456.90,179.00 451.89,179.00 C447.11,179.00 446.00,181.48 446.00,192.22 C446.00,204.31 447.51,207.97 452.50,207.97 C453.60,207.97 455.07,207.61 455.77,207.16 ZM 485.50 134.59 C490.56,129.53 489.39,122.91 482.87,119.73 C476.60,116.66 470.80,120.90 470.80,128.56 C470.80,136.28 480.03,140.06 485.50,134.59 ZM 454.20 126.75 C455.07,126.06 456.06,123.87 456.41,121.89 C457.49,115.68 455.60,114.54 438.50,111.08 C407.32,104.78 403.87,104.42 354.00,102.45 C335.61,101.73 305.12,103.09 285.50,105.53 C265.49,108.01 245.29,110.93 240.86,111.98 C228.43,114.92 220.50,117.66 220.50,119.00 C220.50,120.80 230.60,125.96 234.17,125.98 C235.64,125.99 242.61,124.84 249.67,123.43 C309.38,111.49 371.13,111.71 432.47,124.09 C440.71,125.76 447.65,127.32 447.89,127.56 C448.79,128.46 452.67,127.96 454.20,126.75 ZM 289.17 484.69 C287.88,483.31 287.00,481.08 287.00,479.19 C287.00,471.95 295.79,469.09 300.82,474.70 C303.64,477.83 303.14,481.42 299.41,484.75 C296.15,487.66 291.95,487.64 289.17,484.69 ZM 485.65 432.17 C483.29,429.55 483.55,424.49 486.19,422.04 C489.13,419.30 495.52,419.24 496.96,421.93 C498.62,425.03 498.20,430.51 496.17,432.35 C493.70,434.58 487.75,434.48 485.65,432.17 ZM 336.07 429.37 C333.32,425.87 333.45,422.45 336.45,419.45 C339.45,416.45 342.87,416.32 346.37,419.07 C350.01,421.94 350.01,427.06 346.37,429.93 C342.68,432.83 338.62,432.61 336.07,429.37 ZM 252.09 519.39 C247.63,513.72 250.72,506.97 257.75,507.03 C262.58,507.07 265.09,509.03 265.65,513.21 C266.21,517.34 263.25,520.44 257.84,521.40 C254.67,521.97 253.91,521.70 252.09,519.39 ZM 453.50 488.81 C450.58,487.15 450.03,485.97 450.02,481.31 C450.00,478.10 450.52,476.75 452.22,475.56 C455.23,473.45 460.31,473.58 462.35,475.83 C464.88,478.63 464.48,484.62 461.55,487.55 C458.88,490.21 456.61,490.57 453.50,488.81 ZM 119.00 548.05 C111.98,547.28 103.91,543.73 100.35,539.85 C99.16,538.56 96.75,535.03 94.98,532.01 C92.00,526.92 91.80,526.01 92.22,519.47 C93.00,507.27 96.37,503.06 122.39,481.78 C131.25,474.53 148.10,460.26 159.83,450.05 C171.56,439.85 183.00,430.02 185.25,428.22 C203.26,413.79 263.93,353.46 286.50,327.53 C289.25,324.37 291.95,321.28 292.51,320.65 C310.60,300.08 328.46,278.35 341.55,261.00 C347.57,253.02 352.74,246.27 353.04,246.00 C354.10,245.03 370.68,223.46 373.02,220.00 C377.97,212.69 387.51,201.79 390.16,200.42 C394.58,198.13 403.28,198.35 406.78,200.84 C412.59,204.98 415.06,212.35 413.09,219.64 C411.78,224.49 403.52,238.64 390.99,257.50 C389.53,259.70 388.03,262.17 387.67,263.00 C387.30,263.83 384.41,268.15 381.25,272.62 C378.09,277.08 373.95,282.93 372.06,285.62 C370.17,288.30 366.28,293.45 363.42,297.06 C360.56,300.67 356.61,306.07 354.64,309.06 C352.66,312.05 349.80,316.16 348.28,318.19 C337.44,332.59 331.12,340.75 329.61,342.25 C328.65,343.21 328.15,344.00 328.50,344.00 C328.85,344.00 328.55,344.60 327.82,345.32 C327.09,346.05 324.86,348.64 322.86,351.07 C293.78,386.44 270.31,413.87 256.62,428.50 C253.02,432.35 250.05,436.02 250.04,436.65 C249.99,438.19 180.23,506.94 162.00,523.41 C144.21,539.48 139.63,543.22 134.50,545.84 C129.22,548.54 126.76,548.89 119.00,548.05 ZM 132.60 524.60 C135.63,521.57 136.00,520.61 136.00,515.79 C136.00,511.07 135.61,510.00 132.99,507.49 C130.44,505.05 129.14,504.60 124.48,504.55 C119.54,504.51 118.73,504.81 116.54,507.50 C111.67,513.49 112.08,520.10 117.61,524.96 C122.61,529.35 127.98,529.22 132.60,524.60 ZM 158.79 509.75 C161.91,506.86 169.65,499.53 175.98,493.45 C182.32,487.38 192.00,478.10 197.50,472.83 C206.30,464.40 226.83,443.68 231.00,439.01 C231.82,438.09 234.99,434.67 238.03,431.42 C241.07,428.16 248.88,419.42 255.38,412.00 C261.88,404.58 269.75,395.61 272.85,392.07 C277.83,386.41 298.16,361.57 306.50,350.97 C316.81,337.88 337.72,309.83 340.38,305.53 C341.41,303.86 342.55,302.27 342.91,302.00 C344.43,300.85 369.32,264.11 371.93,259.17 C372.96,257.21 372.88,256.53 371.42,254.92 C368.69,251.90 366.72,252.61 362.20,258.25 C359.88,261.14 355.65,266.42 352.80,270.00 C349.94,273.58 347.33,276.73 347.00,277.00 C346.67,277.27 342.60,282.20 337.95,287.95 C333.30,293.69 328.83,299.11 328.00,299.98 C327.17,300.85 325.38,303.04 324.00,304.84 C319.51,310.72 319.25,311.01 300.66,331.50 C288.96,344.41 213.35,419.83 201.49,430.44 C176.37,452.90 162.41,465.10 145.75,479.14 C139.84,484.12 135.00,488.80 135.00,489.53 C135.00,490.27 135.81,491.12 136.80,491.44 C140.26,492.54 145.78,499.55 148.38,506.17 C149.82,509.84 151.00,513.33 151.00,513.92 C151.00,516.09 153.24,514.89 158.79,509.75 ZM 391.15 234.92 C394.22,233.28 396.34,227.52 394.79,225.03 C393.14,222.39 388.63,220.63 385.51,221.41 C381.87,222.32 379.81,227.55 381.64,231.20 C383.86,235.61 387.33,236.97 391.15,234.92 ZM 278.35 216.47 C278.03,215.64 278.52,212.15 279.44,208.72 C282.87,195.95 282.87,196.01 281.45,194.60 C280.71,193.85 275.02,191.14 268.80,188.57 C262.59,185.99 255.70,183.01 253.50,181.95 C246.89,178.76 206.84,160.92 201.95,158.99 C199.45,158.00 194.50,155.84 190.95,154.19 C183.15,150.56 169.79,145.00 168.88,145.00 C168.52,145.00 164.01,143.03 158.86,140.63 C144.67,134.01 117.63,122.18 109.10,118.86 C92.36,112.36 89.00,110.19 89.00,105.88 C89.00,100.18 96.68,99.35 105.65,104.09 C108.87,105.78 113.97,108.20 117.00,109.47 C120.03,110.73 137.15,118.09 155.07,125.82 C172.98,133.55 197.82,144.17 210.26,149.41 C222.71,154.65 234.83,159.83 237.20,160.91 C239.56,161.99 244.43,164.05 248.00,165.50 C251.57,166.94 255.85,168.74 257.50,169.48 C259.15,170.23 263.88,172.20 268.00,173.85 C279.56,178.50 292.71,184.52 294.44,185.95 C297.48,188.48 295.75,194.11 287.89,207.18 C281.04,218.59 279.67,219.92 278.35,216.47 ZM 247.60 283.69 C243.15,279.24 246.63,272.00 253.22,272.00 C259.57,272.00 262.35,280.01 257.37,283.93 C253.92,286.64 250.46,286.55 247.60,283.69 ZM 185.07 260.37 C182.17,256.68 182.39,252.62 185.63,250.07 C189.17,247.29 192.55,247.46 195.66,250.57 C197.72,252.63 198.10,253.74 197.60,256.25 C196.21,263.20 189.13,265.53 185.07,260.37 Z" fill="rgb(254,254,253)"/>
</g>
</svg>