<svg xmlns="http://www.w3.org/2000/svg" width="497" height="502" viewBox="0 0 497 502">
<g>
<path d="M 414.00 90.93 C414.00,91.52 413.89,91.96 413.75,91.92 C411.34,91.16 409.70,90.48 405.50,88.52 C378.82,76.02 337.92,63.21 310.00,58.61 C295.68,56.25 267.24,54.01 251.45,54.01 C214.87,53.99 171.74,60.91 138.84,72.06 C134.08,73.68 129.23,75.00 128.07,75.00 C125.18,75.00 114.01,68.62 116.17,68.21 C117.09,68.03 120.01,68.98 122.67,70.33 L 127.50 72.77 L 139.00 68.94 C179.07,55.62 216.32,50.25 261.50,51.29 C305.53,52.30 336.74,58.50 379.50,74.72 C394.83,80.54 414.00,89.54 414.00,90.93 ZM 211.24 169.38 C206.77,171.69 200.23,172.21 195.50,170.64 C193.30,169.91 186.32,166.96 180.00,164.09 C164.83,157.20 164.25,156.93 144.50,147.77 C135.15,143.44 121.43,137.49 114.00,134.55 C106.57,131.62 95.60,126.92 89.60,124.10 C83.61,121.29 76.93,118.46 74.76,117.81 C70.57,116.56 65.00,112.05 65.00,109.92 C65.00,109.13 65.85,109.43 67.25,110.73 C68.49,111.87 74.22,114.80 80.00,117.24 C113.89,131.59 132.71,139.65 159.50,151.29 C196.62,167.41 199.27,168.37 204.77,167.62 C210.57,166.82 213.80,164.99 219.05,159.51 C224.94,153.35 227.77,152.00 234.70,152.00 C239.05,152.00 242.06,152.74 246.74,154.95 C252.80,157.82 253.01,157.85 254.03,155.95 C254.60,154.88 255.52,154.00 256.06,154.00 C256.61,154.00 256.35,155.35 255.50,157.00 C253.61,160.66 252.15,160.72 243.60,157.50 C236.41,154.80 231.13,154.34 227.68,156.14 C226.48,156.76 223.01,159.62 219.97,162.50 C216.93,165.37 213.00,168.47 211.24,169.38 ZM 327.68 97.47 C327.33,98.55 322.78,99.45 321.93,98.60 C321.18,97.85 297.80,93.32 287.00,91.84 C280.93,91.00 267.76,90.56 250.50,90.63 C224.17,90.72 222.99,90.81 203.00,94.33 L 182.50 97.93 L 175.25 94.51 C171.26,92.64 168.00,90.63 168.00,90.05 L 168.00 90.01 C168.00,89.65 168.00,89.38 168.13,89.25 C168.51,88.86 169.94,89.51 175.44,91.97 L 175.66 92.07 L 182.50 95.15 L 192.50 93.08 C213.70,88.70 221.64,87.82 245.15,87.28 C271.40,86.68 283.55,87.58 304.33,91.68 C326.93,96.14 328.03,96.41 327.68,97.47 ZM 251.37 476.20 C251.10,476.64 250.57,476.99 250.19,476.99 C249.27,476.97 238.73,471.09 226.71,463.87 C221.33,460.64 216.70,458.00 216.43,458.00 C215.85,458.00 188.59,439.89 179.00,433.13 C163.44,422.17 141.37,403.49 131.65,393.07 C122.87,383.66 127.74,386.49 138.95,397.32 C162.61,420.17 202.28,448.20 241.18,469.55 C247.06,472.77 251.64,475.77 251.37,476.20 ZM 82.84 313.51 C85.09,320.18 84.86,322.30 82.50,316.65 C78.35,306.73 78.15,302.68 77.41,213.73 C76.87,150.31 76.98,128.00 77.81,128.00 C78.64,128.00 78.95,150.37 78.97,212.25 C78.99,258.59 79.41,298.98 79.91,302.02 C80.41,305.05 81.73,310.22 82.84,313.51 ZM 228.57 420.11 C230.23,422.80 224.23,419.95 214.96,413.66 C193.91,399.36 172.34,382.30 159.27,369.61 C151.72,362.27 154.77,362.62 162.75,370.00 C178.56,384.63 204.30,404.50 220.26,414.40 C224.52,417.05 228.26,419.62 228.57,420.11 ZM 221.36 134.23 C220.78,135.16 220.64,135.15 215.00,133.54 C212.52,132.83 205.77,129.98 200.00,127.20 C188.42,121.63 162.46,109.95 155.16,107.04 C145.44,103.15 134.76,97.91 135.35,97.31 C136.20,96.47 221.95,133.28 221.36,134.23 ZM 377.44 284.75 C378.73,288.92 376.36,287.04 374.01,282.02 C371.42,276.50 365.35,269.97 344.21,250.00 C334.31,240.65 328.86,236.22 326.46,235.57 C322.03,234.39 322.01,233.00 326.42,233.00 C329.44,233.00 331.43,234.50 343.17,245.68 C370.63,271.82 374.97,276.77 377.44,284.75 ZM 340.99 190.00 C334.34,193.40 324.37,193.32 310.60,189.76 C305.96,188.57 302.77,185.89 304.24,184.43 C304.61,184.06 308.45,184.71 312.77,185.88 C317.54,187.17 323.56,187.99 328.07,187.98 C334.87,187.95 337.94,187.49 345.00,185.39 C347.29,184.72 347.38,184.80 346.07,186.40 C345.28,187.36 343.00,188.98 340.99,190.00 ZM 411.55 272.25 C413.44,277.44 411.61,276.99 409.53,271.75 C405.10,260.55 395.07,247.83 381.52,236.24 C375.28,230.89 374.50,228.29 380.20,231.81 C384.48,234.46 399.76,250.19 403.72,256.02 C406.75,260.49 408.90,264.95 411.55,272.25 ZM 246.26 351.68 C246.68,352.33 246.90,372.80 246.76,397.18 L 246.50 441.50 L 245.86 397.31 L 245.22 353.11 L 236.51 344.48 C231.73,339.74 228.08,335.59 228.41,335.26 C228.96,334.70 244.57,349.05 246.26,351.68 ZM 90.17 80.38 C87.13,79.78 86.46,80.15 81.93,84.97 C76.33,90.94 75.65,90.52 79.93,83.77 C83.01,78.92 85.54,77.00 88.86,77.00 C91.57,77.00 119.59,89.30 118.05,89.82 C117.38,90.04 115.18,89.56 113.16,88.74 C101.42,84.00 93.07,80.96 90.17,80.38 ZM 110.88 383.38 C102.11,385.13 90.78,381.64 84.80,375.34 C82.14,372.53 77.43,363.23 78.26,362.41 C78.49,362.17 79.52,363.82 80.53,366.06 C82.88,371.27 90.64,378.28 95.76,379.81 C97.95,380.47 102.94,381.00 106.87,381.00 C114.23,381.00 116.38,382.27 110.88,383.38 ZM 223.02 382.25 C222.99,383.51 221.60,382.89 219.43,380.64 C218.29,379.46 213.70,375.01 209.25,370.75 C201.41,363.26 200.97,363.00 196.29,363.00 C193.52,363.00 190.49,362.33 189.22,361.44 C186.45,359.50 183.97,354.84 184.09,351.80 C184.16,349.93 184.35,350.10 185.10,352.67 C186.54,357.65 191.26,361.00 196.84,361.00 C201.41,361.00 201.77,361.24 212.28,371.25 C218.19,376.89 223.02,381.84 223.02,382.25 ZM 355.42 304.98 C353.95,306.45 348.79,307.07 346.42,306.07 C345.27,305.59 343.17,303.80 341.73,302.09 C339.45,299.38 338.47,298.99 333.81,298.90 C324.15,298.72 322.75,297.21 332.14,297.10 C338.95,297.02 340.91,297.32 341.36,298.49 C342.33,301.03 348.30,303.99 352.45,304.00 C355.03,304.00 356.06,304.34 355.42,304.98 ZM 191.96 133.67 C193.21,134.81 192.99,134.99 190.46,134.90 C187.25,134.80 173.18,129.58 174.00,128.79 C174.27,128.52 173.88,127.56 173.13,126.65 C172.19,125.52 172.12,125.00 172.92,125.00 C174.62,125.00 190.25,132.12 191.96,133.67 ZM 197.01 208.19 C195.78,209.19 193.82,209.94 192.64,209.86 C183.71,209.30 183.96,206.52 192.95,206.44 C199.16,206.39 199.21,206.41 197.01,208.19 ZM 223.36 339.50 C222.71,341.19 218.37,341.45 215.80,339.95 C214.87,339.41 213.08,337.51 211.83,335.73 L 209.55 332.50 L 212.85 335.25 C215.21,337.21 217.27,338.00 220.05,338.00 C223.09,338.00 223.81,338.33 223.36,339.50 ZM 329.50 149.50 C329.50,151.26 322.46,151.26 320.99,149.49 C319.79,148.04 320.14,147.91 324.58,148.19 C327.28,148.36 329.50,148.95 329.50,149.50 ZM 346.00 149.50 C346.00,150.42 345.07,151.00 343.61,151.00 C342.29,151.00 340.95,150.32 340.64,149.50 C340.21,148.37 340.80,148.00 343.03,148.00 C345.00,148.00 346.00,148.50 346.00,149.50 ZM 362.56 149.53 C360.11,151.38 359.36,151.38 358.64,149.50 C358.20,148.35 358.82,148.01 361.28,148.03 C364.33,148.06 364.40,148.14 362.56,149.53 ZM 158.00 136.50 C160.35,137.85 160.38,137.93 158.37,137.96 C157.20,137.98 155.68,137.32 155.00,136.50 C153.45,134.63 154.73,134.63 158.00,136.50 Z" fill="rgb(66,52,30)"/>
<path d="M 83.13 373.16 C81.84,371.41 80.67,369.37 79.57,367.00 C76.33,360.01 76.02,349.43 78.87,342.83 C81.34,337.13 94.79,324.57 111.72,312.15 C115.70,309.23 118.85,306.34 118.72,305.72 C118.60,305.10 118.98,304.57 119.56,304.55 C120.15,304.52 123.03,302.48 125.98,300.00 C135.89,291.67 148.49,280.77 150.10,279.13 C159.17,269.92 169.69,261.69 171.21,262.61 C172.04,263.11 171.96,262.71 171.00,261.50 C170.18,260.46 170.03,259.93 170.68,260.32 C171.36,260.73 172.53,260.07 173.44,258.77 C176.62,254.21 185.39,245.96 186.59,246.40 L 188.41 244.24 C189.76,242.65 190.24,242.24 191.13,242.80 L 186.62 246.41 C187.30,246.64 188.65,245.87 189.66,244.68 L 191.20 242.85 C191.46,243.02 191.74,243.27 192.09,243.58 C193.66,245.00 193.87,247.42 193.96,265.35 C193.97,267.35 193.99,269.15 194.01,270.78 C194.10,278.40 194.15,282.44 192.82,285.96 C191.05,290.70 186.81,294.50 176.88,304.80 L 164.27 317.89 L 152.38 318.94 C145.85,319.51 138.00,319.98 134.94,319.99 C129.81,320.00 128.97,320.35 124.17,324.45 L 118.96 328.90 L 122.71 331.45 C124.77,332.85 127.13,334.00 127.94,334.00 C128.75,334.00 131.14,332.31 133.25,330.25 L 137.09 326.50 L 151.29 325.96 L 165.50 325.41 L 175.00 315.88 C180.23,310.64 187.76,302.90 191.75,298.67 L 199.00 290.99 L 199.02 280.74 C199.02,275.11 199.37,269.96 199.79,269.30 C201.42,266.74 202.89,269.80 203.10,276.21 C203.21,279.88 203.62,283.38 203.99,283.99 C204.42,284.69 206.58,283.39 209.79,280.50 C212.61,277.97 215.27,276.03 215.70,276.20 C216.14,276.36 216.97,275.04 217.55,273.26 C219.31,267.82 222.10,265.06 226.27,264.64 C230.59,264.22 231.74,265.16 229.30,267.14 C227.87,268.29 227.74,268.29 228.46,267.10 C229.04,266.13 228.94,265.92 228.14,266.41 C227.49,266.81 227.24,267.59 227.58,268.13 C227.92,268.68 225.53,271.91 222.27,275.31 C219.01,278.72 215.50,282.85 214.47,284.50 C211.56,289.14 208.63,292.55 196.48,305.50 C190.28,312.10 182.78,320.20 179.82,323.50 C170.43,333.94 132.97,369.82 125.59,375.42 C121.75,378.34 116.52,381.43 113.84,382.36 C114.58,381.62 111.98,381.00 106.87,381.00 C102.94,381.00 97.95,380.47 95.76,379.81 C90.64,378.28 82.88,371.27 80.53,366.06 C79.52,363.82 78.49,362.17 78.26,362.41 C77.59,363.08 80.56,369.33 83.13,373.16 ZM 251.37 476.20 C251.64,475.77 247.06,472.77 241.18,469.55 C202.28,448.20 162.61,420.17 138.95,397.32 C132.29,390.89 127.87,387.27 127.22,387.38 C127.07,387.06 127.00,386.80 127.00,386.59 C127.00,385.77 128.61,383.87 130.58,382.37 L 134.17 379.63 L 143.83 389.57 C149.15,395.03 155.62,401.07 158.20,403.00 C160.79,404.92 168.44,410.80 175.20,416.05 C198.94,434.50 241.16,460.92 244.72,459.55 C246.11,459.02 246.22,453.29 245.80,406.05 L 245.50 372.28 L 245.86 397.31 L 246.50 441.50 L 246.76 397.18 C246.90,372.80 246.68,352.33 246.26,351.68 C244.57,349.05 228.96,334.70 228.41,335.26 C228.08,335.59 231.73,339.74 236.51,344.48 L 239.68 347.62 L 237.06 345.06 L 228.79 336.97 L 225.53 338.98 C224.63,339.54 223.52,340.04 222.46,340.40 C222.90,340.17 223.22,339.87 223.36,339.50 C223.81,338.33 223.09,338.00 220.05,338.00 C217.27,338.00 215.21,337.21 212.85,335.25 L 209.57 332.52 C209.38,331.74 208.99,330.78 208.62,330.19 C207.13,327.79 208.96,322.21 212.11,319.56 C214.46,317.59 216.26,317.00 219.99,317.00 C224.16,317.00 225.18,317.42 227.41,320.08 C228.83,321.77 230.00,323.94 230.00,324.91 C230.00,325.87 233.49,330.00 237.75,334.08 L 245.50 341.50 L 245.77 322.58 C246.05,303.68 246.04,303.65 243.59,301.08 C237.73,294.94 237.81,287.56 243.78,283.51 C248.04,280.61 252.50,280.30 256.03,282.65 C259.93,285.24 261.00,287.10 261.00,291.26 C261.00,295.56 259.88,298.14 256.36,301.93 L 254.00 304.48 L 254.10 330.99 C254.16,345.84 254.55,356.40 255.00,355.00 C255.75,352.67 255.81,352.65 255.90,354.69 C255.96,355.90 256.41,357.14 256.92,357.45 C257.42,357.76 261.47,354.36 265.92,349.90 L 274.00 341.79 L 274.02 329.14 C274.02,322.19 274.47,315.83 275.00,315.00 C275.83,313.72 275.97,313.75 275.98,315.25 C275.99,316.21 276.45,317.00 277.00,317.00 C277.55,317.00 278.00,316.56 278.00,316.03 C278.00,315.50 278.67,315.32 279.50,315.64 C281.34,316.34 281.66,329.94 279.88,331.72 C279.26,332.34 278.64,336.01 278.50,339.89 C278.26,346.50 277.99,347.23 274.21,351.72 C271.99,354.35 268.28,358.30 265.96,360.50 C263.65,362.70 260.46,366.26 258.88,368.40 L 256.00 372.30 L 255.78 391.90 L 255.57 411.50 L 255.00 392.00 C254.56,376.89 254.39,382.04 254.22,414.82 C254.03,451.46 254.20,457.35 255.51,458.66 C256.86,460.01 257.96,459.66 265.76,455.47 C270.57,452.89 275.91,449.72 277.63,448.43 C279.35,447.14 281.03,446.37 281.38,446.71 C281.72,447.05 282.00,446.73 282.00,446.00 C282.00,445.27 282.27,444.93 282.59,445.26 C282.92,445.58 289.91,441.35 298.14,435.84 C316.32,423.67 322.92,421.11 321.58,426.75 C321.22,428.26 320.86,430.08 320.79,430.80 C320.48,433.99 299.53,448.37 268.31,466.83 C259.78,471.88 252.35,476.09 250.65,476.86 C250.93,476.72 251.20,476.48 251.37,476.20 ZM 414.00 90.93 C414.00,89.54 394.83,80.54 379.50,74.72 C336.74,58.50 305.53,52.30 261.50,51.29 C243.86,50.88 227.43,51.45 211.56,53.10 C214.46,52.66 216.68,52.26 217.50,52.01 C219.15,51.52 224.89,50.80 230.25,50.42 C235.61,50.04 240.00,49.35 240.00,48.90 C240.00,47.71 236.49,46.00 234.07,46.00 C232.93,46.00 232.00,45.58 232.00,45.07 C232.00,44.56 231.21,43.97 230.25,43.75 C225.93,42.76 252.15,41.78 267.50,42.35 C310.25,43.94 351.17,52.91 389.59,69.11 C405.53,75.83 410.45,78.85 408.48,80.70 C407.78,81.35 406.94,81.61 406.61,81.27 C406.27,80.94 406.00,81.40 406.00,82.29 C406.00,83.18 408.05,85.12 410.55,86.58 L 415.10 89.25 L 414.78 133.37 C414.47,176.09 414.39,177.71 412.20,184.21 C410.96,187.90 409.51,191.19 408.97,191.52 L 408.97 191.52 C408.56,191.77 408.29,191.94 408.17,191.87 C407.92,191.71 408.41,190.42 409.95,186.38 L 409.96 186.36 C411.03,183.53 412.38,177.46 412.96,172.88 C414.07,164.00 414.40,102.03 413.36,95.77 C412.71,91.82 411.24,90.76 393.54,83.27 C397.75,85.01 401.77,86.77 405.50,88.52 C409.70,90.48 411.34,91.16 413.75,91.92 C413.89,91.96 414.00,91.52 414.00,90.93 ZM 228.57 420.11 C228.26,419.62 224.52,417.05 220.26,414.40 C204.30,404.50 178.56,384.63 162.75,370.00 C156.55,364.26 153.32,362.78 155.74,365.84 C154.62,364.47 154.02,363.45 154.01,362.84 C154.01,361.93 155.39,360.01 157.09,358.57 L 160.19 355.97 L 170.84 366.16 C176.71,371.76 181.38,376.75 181.23,377.25 C181.07,377.74 181.45,377.84 182.06,377.47 C182.66,377.09 184.36,377.90 185.83,379.27 C188.56,381.81 208.08,396.26 215.79,401.44 C218.81,403.47 220.39,404.01 221.13,403.27 C221.79,402.61 222.06,398.32 221.85,392.01 C221.64,386.03 221.49,383.49 220.82,381.95 C222.18,383.08 223.00,383.22 223.02,382.25 C223.02,381.84 218.19,376.89 212.28,371.25 C201.77,361.24 201.41,361.00 196.84,361.00 C191.26,361.00 186.54,357.65 185.10,352.67 C184.39,350.21 184.18,349.95 184.10,351.56 C183.90,348.73 184.39,345.88 185.56,344.22 C188.96,339.36 195.68,337.75 201.02,340.51 C204.86,342.50 206.11,345.04 206.15,350.98 L 206.19 355.87 L 217.60 366.96 L 229.00 378.06 L 229.00 398.45 C229.00,409.66 229.27,419.55 229.61,420.42 C230.55,422.86 228.58,422.35 221.64,417.95 C226.90,421.08 229.78,422.08 228.57,420.11 ZM 82.84 313.51 C81.73,310.22 80.41,305.05 79.91,302.02 C79.41,298.98 78.99,258.59 78.97,212.25 C78.95,152.96 78.67,129.94 77.92,128.12 C77.94,128.04 77.97,128.00 78.00,128.00 C78.64,128.00 79.05,139.00 79.13,158.75 C79.21,178.61 79.52,187.20 80.02,183.00 C81.87,167.26 83.09,149.79 82.93,141.21 C82.83,136.10 83.01,131.65 83.33,131.33 C83.65,131.01 84.61,131.02 85.46,131.35 C87.16,132.00 87.22,134.48 87.60,216.50 C87.85,269.98 88.32,295.00 89.10,295.00 C89.44,295.00 89.51,296.11 89.25,297.46 C88.99,298.81 89.55,303.36 90.48,307.56 L 92.18 315.20 L 89.40 318.10 C87.88,319.70 86.32,321.00 85.94,321.00 C85.45,321.00 84.92,320.63 84.35,319.88 C84.58,319.57 84.10,317.26 82.84,313.51 ZM 121.81 290.62 C118.37,293.72 117.23,294.17 116.32,292.77 C115.72,291.84 114.02,146.89 114.59,145.25 C114.64,145.11 116.10,145.49 117.84,146.09 L 121.00 147.20 L 121.20 168.85 C121.31,180.76 121.30,191.85 121.17,193.50 C120.69,199.85 121.08,211.83 122.02,219.47 C122.82,225.97 123.46,227.88 125.51,229.77 C127.95,232.04 127.97,232.16 126.26,234.52 C125.29,235.85 124.22,236.95 123.87,236.97 C122.66,237.03 122.85,258.11 124.07,259.59 C125.76,261.62 126.56,261.39 130.75,257.64 C132.81,255.80 136.37,253.12 138.66,251.69 C142.23,249.45 143.00,249.29 144.03,250.53 C144.98,251.68 144.90,252.10 143.62,252.59 C142.73,252.93 142.20,253.51 142.42,253.88 C142.65,254.24 140.96,256.42 138.67,258.72 C136.38,261.02 132.06,265.52 129.08,268.73 L 123.67 274.55 L 123.89 281.55 C124.09,287.74 123.86,288.78 121.81,290.62 ZM 112.18 325.29 C111.61,328.27 115.39,327.22 119.05,323.39 C126.49,315.60 128.69,314.83 146.04,313.91 L 161.70 313.08 L 169.60 304.84 C173.95,300.32 179.30,294.75 181.50,292.48 C185.50,288.35 187.57,286.38 188.66,283.96 C189.83,281.36 189.86,278.24 189.92,271.33 C189.93,270.63 189.94,269.89 189.94,269.11 C190.07,257.27 189.86,255.00 188.62,255.00 C184.39,255.00 181.42,264.73 182.56,274.85 C183.23,280.72 183.19,280.85 180.32,282.33 C176.43,284.34 167.93,293.20 166.02,297.22 C165.19,298.99 163.59,300.91 162.49,301.47 C161.38,302.04 158.86,303.51 156.89,304.74 C153.95,306.57 151.24,307.09 141.78,307.63 L 130.25 308.29 L 121.38 315.94 C116.50,320.14 112.36,324.35 112.18,325.29 ZM 327.83 95.64 C327.77,96.14 327.69,96.56 327.59,96.91 C326.83,96.15 322.63,95.29 304.33,91.68 C283.55,87.58 271.40,86.68 245.15,87.28 C232.08,87.58 223.82,87.99 215.43,89.04 C217.50,88.65 219.23,88.16 219.71,87.78 C221.24,86.56 239.61,84.07 247.31,84.03 C252.76,84.00 253.11,83.86 252.81,81.75 L 252.50 79.50 L 270.00 79.59 C283.35,79.66 290.35,80.20 299.50,81.87 C313.29,84.37 324.01,86.96 325.59,88.16 C326.19,88.61 327.01,88.66 327.40,88.26 C327.80,87.87 327.65,88.80 327.06,90.34 C325.73,93.84 325.73,94.28 327.08,93.45 C327.77,93.02 328.04,93.79 327.83,95.64 ZM 281.34 416.01 C277.40,418.75 273.71,421.00 273.15,421.00 C271.46,421.00 271.19,418.25 271.08,400.04 C270.99,383.27 272.01,375.27 274.08,376.55 C274.59,376.86 275.00,376.43 275.00,375.58 C275.00,374.74 277.23,372.29 279.95,370.14 C282.67,367.99 284.62,365.95 284.28,365.61 C283.94,365.28 284.23,365.00 284.91,365.00 C285.60,365.00 287.99,363.20 290.24,361.00 C292.60,358.69 295.28,357.00 296.61,357.00 C298.71,357.00 298.81,357.24 297.86,359.98 C297.28,361.63 292.81,367.20 287.91,372.38 L 279.00 381.79 L 279.08 392.65 C279.12,398.62 279.38,402.94 279.66,402.26 C280.04,401.32 280.52,401.38 281.66,402.52 C282.99,403.85 283.63,403.67 287.36,400.99 C289.68,399.33 292.57,397.78 293.79,397.54 C295.01,397.31 296.46,396.84 297.00,396.50 C298.59,395.51 298.16,398.91 296.25,402.35 C294.03,406.35 290.33,409.74 281.34,416.01 ZM 382.76 179.75 C381.13,183.04 377.00,184.76 377.00,182.13 C377.00,179.36 375.85,178.83 373.81,180.67 C372.19,182.13 372.25,181.72 374.23,177.42 C376.39,172.73 376.51,171.19 376.76,145.00 C376.90,129.88 377.22,116.59 377.47,115.47 C377.86,113.76 378.56,113.50 381.96,113.83 L 386.00 114.21 L 386.00 140.47 C386.00,166.13 385.30,174.58 382.76,179.75 ZM 171.61 156.53 C168.04,154.99 164.03,153.25 159.50,151.29 C132.71,139.65 113.89,131.59 80.00,117.24 C74.22,114.80 68.49,111.87 67.25,110.73 C66.10,109.67 65.33,109.27 65.08,109.60 C64.32,107.49 64.00,104.92 64.00,101.74 C64.00,96.35 66.13,86.49 68.09,82.83 C70.13,79.01 70.06,81.76 67.98,87.04 C66.83,89.96 65.63,95.11 65.32,98.48 C64.84,103.58 65.05,104.91 66.58,106.44 C67.75,107.61 68.55,107.86 68.79,107.13 C69.00,106.50 69.66,106.29 70.26,106.66 C70.97,107.10 71.09,106.68 70.61,105.41 C70.05,103.95 70.16,103.77 71.06,104.67 C71.71,105.32 72.77,105.64 73.42,105.39 C74.65,104.92 98.92,115.41 103.42,118.35 C105.20,119.52 106.00,120.93 106.00,122.93 C106.00,125.25 106.62,126.04 109.25,127.05 C111.04,127.73 112.84,128.22 113.25,128.14 C113.66,128.06 114.00,128.42 114.00,128.93 C114.00,129.45 114.91,130.15 116.01,130.50 C117.12,130.86 117.75,131.59 117.41,132.14 C117.08,132.69 117.44,132.99 118.22,132.82 C119.00,132.64 124.34,134.86 130.07,137.74 C135.81,140.62 153.10,148.47 168.50,155.18 C169.58,155.65 170.62,156.10 171.61,156.53 ZM 123.91 119.48 C126.51,122.08 123.30,121.21 114.00,116.79 C103.46,111.79 93.29,107.48 85.70,104.82 C79.50,102.64 76.51,99.52 77.63,96.39 C78.86,92.98 80.05,92.02 81.84,93.03 C82.75,93.55 88.90,96.18 95.50,98.87 C111.70,105.46 113.04,106.13 112.30,107.32 C111.91,107.96 112.37,108.07 113.56,107.62 C114.59,107.22 115.12,107.22 114.73,107.61 C114.33,108.00 114.91,108.95 116.01,109.72 C117.64,110.86 117.81,111.49 116.91,113.17 C115.64,115.54 116.57,116.84 120.02,117.50 C121.32,117.75 123.07,118.64 123.91,119.48 ZM 362.56 149.53 C364.40,148.14 364.33,148.06 361.28,148.03 C358.82,148.01 358.20,148.35 358.64,149.50 C358.87,150.10 359.10,150.51 359.39,150.72 C357.24,150.33 357.00,144.79 357.23,123.38 L 357.50 98.50 L 360.50 98.32 L 363.50 98.15 L 360.50 98.87 L 357.50 99.60 L 364.93 101.08 L 365.22 124.99 C365.46,145.55 365.29,148.96 364.00,149.34 C363.42,149.51 362.56,149.80 361.80,150.09 C362.03,149.92 362.28,149.74 362.56,149.53 ZM 140.50 300.86 C140.07,301.97 141.04,302.16 145.26,301.81 C150.67,301.36 156.00,298.14 156.00,295.32 C156.00,294.59 156.62,294.00 157.37,294.00 C159.99,294.00 171.82,282.08 173.05,278.20 C173.70,276.17 175.30,273.47 176.62,272.21 C178.98,269.94 179.88,266.00 178.05,266.00 C177.52,266.00 172.12,270.95 166.04,277.00 C159.97,283.05 154.74,288.00 154.43,288.00 C153.42,288.00 141.05,299.43 140.50,300.86 ZM 346.00 149.50 C346.00,148.50 345.00,148.00 343.03,148.00 C340.80,148.00 340.21,148.37 340.64,149.50 C340.85,150.04 341.49,150.52 342.28,150.78 C341.37,150.56 340.54,150.15 340.06,149.58 C338.73,147.97 337.96,117.14 339.24,116.35 C339.66,116.09 340.00,116.57 340.00,117.41 C340.00,118.25 340.56,118.73 341.25,118.48 C341.94,118.23 343.17,118.44 343.98,118.96 C345.14,119.70 345.52,122.81 345.73,133.55 C345.88,141.06 346.26,147.60 346.56,148.10 C346.87,148.59 346.84,149.45 346.50,150.00 C346.13,150.60 345.23,150.91 344.21,150.96 C345.32,150.82 346.00,150.28 346.00,149.50 ZM 135.29 349.50 C135.18,352.25 135.33,353.94 135.63,353.25 C135.92,352.56 136.70,352.00 137.35,352.00 C138.75,352.00 158.00,333.62 158.00,332.27 C158.00,331.76 156.65,331.33 155.00,331.33 C153.35,331.33 152.00,331.71 152.00,332.17 C152.00,332.62 150.57,333.00 148.83,333.00 C145.59,333.00 142.00,335.36 142.00,337.50 C142.00,338.15 141.12,339.49 140.04,340.46 C138.96,341.44 138.17,342.73 138.29,343.32 C138.41,343.92 137.82,344.43 137.00,344.45 C135.90,344.49 135.45,345.84 135.29,349.50 ZM 101.03 360.03 C103.36,362.36 107.26,362.60 108.98,360.53 C111.38,357.63 111.94,352.15 110.07,349.84 C108.67,348.10 107.70,347.83 104.81,348.38 C97.97,349.66 96.18,355.18 101.03,360.03 ZM 118.42 100.13 C119.48,101.16 120.16,101.97 119.92,101.94 C118.99,101.80 104.17,95.67 99.31,93.41 C96.46,92.08 93.62,91.00 93.01,91.00 C90.79,91.00 86.00,87.91 86.00,86.47 C86.00,84.52 86.69,84.61 89.73,87.00 C91.13,88.10 93.01,89.00 93.91,89.00 C94.82,89.00 96.58,89.72 97.84,90.60 C99.10,91.48 100.39,91.94 100.72,91.62 C101.04,91.29 102.84,91.97 104.71,93.13 C106.58,94.28 108.36,94.97 108.68,94.66 C108.99,94.34 110.69,95.19 112.46,96.54 C114.23,97.89 115.86,98.83 116.09,98.62 C116.31,98.42 117.37,99.10 118.42,100.13 ZM 130.43 342.57 C131.05,345.24 131.73,346.45 132.20,345.71 C132.62,345.04 132.98,344.95 132.99,345.50 C133.00,346.05 133.96,344.92 135.12,343.00 C136.28,341.08 138.08,338.69 139.11,337.71 C141.36,335.58 141.59,333.00 139.54,333.00 C138.74,333.00 136.13,334.18 133.75,335.62 L 129.42 338.23 ZM 247.00 295.00 C251.01,299.01 255.38,296.67 254.82,290.82 C254.52,287.67 254.30,287.50 250.50,287.50 C247.31,287.50 246.53,287.85 246.64,289.24 C246.71,290.20 246.38,290.73 245.89,290.43 C244.14,289.35 245.04,293.04 247.00,295.00 ZM 325.00 316.00 C325.00,317.12 321.70,317.37 320.67,316.33 C320.30,315.97 320.00,311.66 320.00,306.76 L 320.00 297.86 L 311.08 298.18 C303.90,298.44 302.37,298.25 303.23,297.21 C303.99,296.30 306.82,296.01 312.90,296.21 L 321.50 296.50 L 321.79 305.75 C322.02,313.07 322.38,315.00 323.54,315.00 C324.34,315.00 325.00,315.45 325.00,316.00 ZM 274.03 269.57 C273.49,270.11 272.93,277.44 272.78,285.86 C272.62,294.28 272.16,300.83 271.75,300.42 C271.34,300.01 271.00,292.68 271.00,284.15 C271.00,269.47 270.88,268.49 268.75,266.12 L 266.50 263.60 L 269.21 265.30 C270.71,266.24 272.62,267.00 273.46,267.00 C275.21,267.00 275.46,268.14 274.03,269.57 ZM 217.22 331.44 C218.44,332.30 219.92,333.00 220.51,333.00 C222.27,333.00 225.18,327.15 224.50,324.99 C223.22,320.96 215.00,323.66 215.00,328.10 C215.00,329.08 216.00,330.59 217.22,331.44 ZM 192.31 353.59 C196.15,356.89 200.00,354.68 200.00,349.17 C200.00,345.24 193.80,344.86 191.32,348.63 C189.64,351.20 189.66,351.31 192.31,353.59 ZM 299.08 290.38 C297.74,291.82 296.50,293.00 296.33,293.00 C296.15,293.00 296.00,287.63 296.00,281.08 C296.00,269.82 295.86,268.99 293.50,266.18 C292.12,264.55 291.01,262.60 291.01,261.86 C291.02,261.11 291.59,261.62 292.28,263.00 C292.99,264.41 294.94,265.92 296.76,266.46 C300.28,267.50 300.85,268.46 298.50,269.36 C297.31,269.82 297.00,271.93 297.00,279.54 C297.00,289.03 297.02,289.13 299.25,288.44 L 301.50 287.75 ZM 172.50 243.00 C172.16,243.55 168.31,244.00 163.94,244.00 C157.62,244.00 156.00,243.70 156.00,242.53 C156.00,241.68 156.59,241.29 157.40,241.60 C158.17,241.89 159.09,241.66 159.46,241.07 C160.29,239.72 170.00,239.65 170.00,241.00 C170.00,241.55 170.70,242.00 171.56,242.00 C172.42,242.00 172.84,242.45 172.50,243.00 ZM 167.48 140.97 C168.50,142.61 166.00,142.12 158.60,139.21 C153.22,137.10 151.62,136.00 151.35,134.24 C151.02,132.08 151.34,132.15 158.93,135.96 C163.29,138.15 167.13,140.41 167.48,140.97 ZM 297.26 244.32 C296.96,249.10 296.44,253.00 296.11,253.00 C295.77,253.00 295.50,249.06 295.50,244.25 L 295.50 235.50 L 292.25 235.19 C290.46,235.01 289.00,234.45 289.00,233.94 C289.00,232.46 296.72,232.82 297.29,234.32 C297.57,235.05 297.56,239.55 297.26,244.32 ZM 329.50 149.50 C329.50,150.55 327.43,150.97 325.26,150.81 C327.40,150.90 329.50,150.46 329.50,149.50 C329.50,148.95 327.28,148.36 324.58,148.19 C320.14,147.91 319.79,148.04 320.99,149.49 L 321.00 149.50 C320.89,149.41 320.79,149.32 320.70,149.22 C318.83,147.15 318.46,138.65 319.94,131.50 C320.65,128.06 320.79,128.65 320.89,135.71 C320.99,142.88 321.26,144.07 323.03,145.01 C324.14,145.61 324.81,146.50 324.51,146.98 C324.21,147.47 325.21,148.01 326.73,148.18 C328.25,148.36 329.50,148.95 329.50,149.50 ZM 191.96 133.67 C191.30,133.07 188.55,131.63 185.32,130.10 C194.58,134.16 205.70,139.30 206.42,140.02 C208.14,141.74 204.86,141.09 196.50,138.06 C190.44,135.87 185.30,133.92 181.46,132.37 C185.08,133.69 188.96,134.86 190.46,134.90 C192.99,134.99 193.21,134.81 191.96,133.67 ZM 323.77 268.38 C322.81,269.10 321.62,271.45 321.12,273.60 L 320.20 277.50 L 320.10 272.88 C320.04,269.91 319.29,267.37 318.00,265.73 C315.24,262.22 315.49,261.58 318.45,264.55 C319.80,265.90 321.94,267.01 323.20,267.03 C325.32,267.06 325.36,267.17 323.77,268.38 ZM 298.60 139.58 C298.68,141.08 298.05,141.63 296.10,141.72 C294.67,141.78 292.94,141.61 292.25,141.34 C290.50,140.63 290.69,138.02 292.50,137.89 C298.03,137.48 298.50,137.61 298.60,139.58 ZM 333.50 181.00 C333.16,181.55 331.22,181.99 329.19,181.98 C326.73,181.97 325.95,181.68 326.86,181.11 C327.61,180.63 327.84,180.04 327.36,179.78 C326.89,179.53 327.10,179.48 327.83,179.66 C328.56,179.85 330.28,180.00 331.64,180.00 C333.04,180.00 333.85,180.44 333.50,181.00 ZM 276.21 193.61 C275.60,194.74 274.36,196.29 273.44,197.05 C271.98,198.27 271.81,198.21 272.13,196.59 C272.34,195.57 273.58,194.02 274.91,193.14 C277.23,191.61 277.27,191.62 276.21,193.61 ZM 378.11 289.95 C379.19,292.67 378.93,296.63 377.75,295.43 C377.34,295.01 377.03,293.05 377.06,291.08 C377.12,287.72 377.19,287.65 378.11,289.95 ZM 321.59 248.97 C321.31,253.04 320.00,254.07 320.00,250.23 C320.00,248.52 320.41,246.87 320.90,246.56 C321.40,246.26 321.71,247.34 321.59,248.97 ZM 158.00 136.50 C154.73,134.63 153.45,134.63 155.00,136.50 C155.68,137.32 157.20,137.98 158.37,137.96 C160.38,137.93 160.35,137.85 158.00,136.50 ZM 77.71 247.22 C77.28,217.64 77.08,189.16 77.10,167.47 C77.14,179.57 77.25,194.82 77.41,213.73 C77.51,226.58 77.61,237.65 77.71,247.22 ZM 180.00 267.00 C180.00,268.10 180.17,269.00 180.38,269.00 C180.59,269.00 181.00,268.10 181.29,267.00 C181.58,265.90 181.40,265.00 180.91,265.00 C180.41,265.00 180.00,265.90 180.00,267.00 ZM 81.56 314.28 C81.33,313.69 81.09,313.06 80.84,312.39 C79.47,308.62 78.95,306.09 78.54,291.71 C79.09,305.26 79.95,309.93 81.56,314.28 ZM 276.00 337.00 C276.00,337.55 276.45,338.00 277.00,338.00 C277.55,338.00 278.00,337.55 278.00,337.00 C278.00,336.45 277.55,336.00 277.00,336.00 C276.45,336.00 276.00,336.45 276.00,337.00 ZM 209.63 166.48 C208.17,167.01 206.59,167.37 204.77,167.62 C202.13,167.98 200.14,167.94 194.68,166.02 C198.20,167.18 200.12,167.39 202.50,167.40 C205.35,167.41 207.59,167.17 209.63,166.48 ZM 359.60 71.04 C342.08,65.60 323.29,60.80 310.00,58.61 C324.34,60.97 342.10,65.50 359.60,71.04 ZM 209.57 332.53 L 211.83 335.73 C212.30,336.40 212.84,337.08 213.39,337.70 C211.45,336.08 209.85,334.23 209.67,333.00 C209.65,332.86 209.61,332.70 209.57,332.53 ZM 156.98 367.28 C157.59,367.94 158.35,368.72 159.27,369.61 C163.97,374.17 169.76,379.29 176.23,384.65 C167.68,377.63 160.71,371.39 156.98,367.28 ZM 214.24 375.56 C212.56,373.99 210.66,372.19 208.82,370.41 C205.85,367.55 204.00,365.80 202.55,364.71 C204.08,365.84 206.04,367.69 209.25,370.75 C210.96,372.39 212.69,374.06 214.24,375.56 ZM 67.13 113.17 C68.51,114.48 70.39,115.82 72.26,116.78 C70.07,115.79 68.39,114.62 67.13,113.17 ZM 103.69 383.72 C99.59,383.47 95.42,382.26 91.23,380.10 C90.06,379.50 88.97,378.82 87.95,378.06 C92.31,381.21 98.08,383.26 103.69,383.72 ZM 190.97 93.40 L 182.50 95.15 L 175.66 92.07 L 175.44 91.97 C169.94,89.51 168.51,88.86 168.13,89.25 C168.12,89.26 168.11,89.28 168.10,89.29 C168.11,89.28 168.12,89.26 168.13,89.25 C168.51,88.86 169.94,89.50 175.40,91.96 L 175.62 92.05 L 182.42 95.10 ZM 150.15 410.35 C159.61,418.49 170.32,427.01 179.00,433.13 C169.88,426.70 159.34,418.29 150.15,410.35 ZM 184.92 355.65 C185.62,357.36 186.71,359.08 187.95,360.35 C187.01,359.47 186.20,358.36 185.49,356.99 C185.28,356.57 185.08,356.12 184.92,355.65 ZM 326.73 98.23 C326.31,98.54 325.74,98.71 324.96,98.80 C324.81,98.81 324.66,98.83 324.52,98.84 C325.31,98.72 326.13,98.50 326.73,98.23 ZM 218.77 340.88 C219.41,340.95 220.04,340.95 220.63,340.89 C220.26,340.96 219.91,341.00 219.62,341.00 C219.36,341.00 219.08,340.96 218.77,340.88 ZM 191.71 362.44 C193.08,362.79 194.72,363.00 196.29,363.00 C194.54,363.00 193.03,362.82 191.71,362.44 ZM 241.47 472.49 C237.44,470.23 232.33,467.25 226.71,463.87 C232.20,467.17 237.37,470.18 241.47,472.49 ZM 186.62 246.41 C186.61,246.40 186.60,246.40 186.59,246.40 L 186.59 246.40 L 186.50 246.50 L 186.62 246.41 ZM 250.49 476.93 C250.40,476.97 250.34,476.99 250.31,476.99 C250.30,476.99 250.28,476.99 250.27,476.99 C250.34,476.98 250.41,476.96 250.49,476.93 ZM 173.98 128.81 C173.98,128.80 173.99,128.79 174.00,128.78 C174.06,128.72 174.09,128.64 174.09,128.52 C174.09,128.64 174.06,128.73 174.00,128.79 C173.99,128.80 173.99,128.80 173.98,128.81 ZM 87.20 122.99 C87.97,123.34 88.74,123.70 89.50,124.06 C88.74,123.70 87.97,123.34 87.20,122.99 ZM 172.87 125.00 C172.76,125.00 172.67,125.02 172.59,125.04 C172.66,125.01 172.74,125.00 172.85,125.00 C172.85,125.00 172.86,125.00 172.87,125.00 Z" fill="rgb(182,154,108)"/>
<path d="M 0.00 251.00 L 0.00 0.00 L 248.50 0.00 L 497.00 0.00 L 497.00 251.00 L 497.00 502.00 L 248.50 502.00 L 0.00 502.00 L 0.00 251.00 ZM 268.31 466.83 C299.53,448.37 320.48,433.99 320.79,430.80 C320.86,430.08 321.22,428.26 321.58,426.75 C322.92,421.11 316.32,423.67 298.14,435.84 C289.91,441.35 282.92,445.58 282.59,445.26 C282.27,444.93 282.00,445.27 282.00,446.00 C282.00,446.73 281.72,447.05 281.38,446.71 C281.03,446.37 279.35,447.14 277.63,448.43 C275.91,449.72 270.57,452.89 265.76,455.47 C257.96,459.66 256.86,460.01 255.51,458.66 C254.20,457.35 254.03,451.46 254.22,414.82 C254.39,382.04 254.56,376.89 255.00,392.00 L 255.57 411.50 L 255.78 391.90 L 256.00 372.30 L 258.88 368.40 C260.46,366.26 263.65,362.70 265.96,360.50 C268.28,358.30 271.99,354.35 274.21,351.72 C277.99,347.23 278.26,346.50 278.50,339.89 C278.64,336.01 279.26,332.34 279.88,331.72 C281.66,329.94 281.34,316.34 279.50,315.64 C278.67,315.32 278.00,315.50 278.00,316.03 C278.00,316.56 277.55,317.00 277.00,317.00 C276.45,317.00 275.99,316.21 275.98,315.25 C275.97,313.75 275.83,313.72 275.00,315.00 C274.47,315.83 274.02,322.19 274.02,329.14 L 274.00 341.79 L 265.92 349.90 C261.47,354.36 257.42,357.76 256.92,357.45 C256.41,357.14 255.96,355.90 255.90,354.69 C255.81,352.65 255.75,352.67 255.00,355.00 C254.55,356.40 254.16,345.84 254.10,330.99 L 254.00 304.48 L 256.36 301.93 C259.88,298.14 261.00,295.56 261.00,291.26 C261.00,287.10 259.93,285.24 256.03,282.65 C252.50,280.30 248.04,280.61 243.78,283.51 C237.81,287.56 237.73,294.94 243.59,301.08 C246.04,303.65 246.05,303.68 245.77,322.58 L 245.50 341.50 L 237.75 334.08 C233.49,330.00 230.00,325.87 230.00,324.91 C230.00,323.94 228.83,321.77 227.41,320.08 C225.18,317.42 224.16,317.00 219.99,317.00 C216.26,317.00 214.46,317.59 212.11,319.56 C208.96,322.21 207.13,327.79 208.62,330.19 C209.07,330.91 209.54,332.17 209.67,333.00 C210.05,335.59 216.78,341.00 219.62,341.00 C221.07,341.00 223.73,340.09 225.53,338.98 L 228.79 336.97 L 237.06 345.06 L 245.32 353.15 L 245.80 406.05 C246.22,453.29 246.11,459.02 244.72,459.55 C241.16,460.92 198.94,434.50 175.20,416.05 C168.44,410.80 160.79,404.92 158.20,403.00 C155.62,401.07 149.15,395.03 143.83,389.57 L 134.17 379.63 L 130.58 382.37 C128.61,383.87 127.00,385.77 127.00,386.59 C127.00,390.76 157.09,417.69 179.00,433.13 C188.59,439.89 215.85,458.00 216.43,458.00 C216.70,458.00 221.33,460.64 226.71,463.87 C239.27,471.41 249.28,476.97 250.31,476.99 C250.75,476.99 258.85,472.43 268.31,466.83 ZM 229.61 420.42 C229.27,419.55 229.00,409.66 229.00,398.45 L 229.00 378.06 L 217.60 366.96 L 206.19 355.87 L 206.15 350.98 C206.11,345.04 204.86,342.50 201.02,340.51 C195.68,337.75 188.96,339.36 185.56,344.22 C183.59,347.04 183.55,353.23 185.49,356.99 C187.71,361.27 190.82,363.00 196.29,363.00 C200.96,363.00 201.42,363.27 208.82,370.41 C213.04,374.49 217.62,378.73 219.00,379.83 C221.32,381.68 221.52,382.54 221.85,392.01 C222.06,398.32 221.79,402.61 221.13,403.27 C220.39,404.01 218.81,403.47 215.79,401.44 C208.08,396.26 188.56,381.81 185.83,379.27 C184.36,377.90 182.66,377.09 182.06,377.47 C181.45,377.84 181.07,377.74 181.23,377.25 C181.38,376.75 176.71,371.76 170.84,366.16 L 160.19 355.97 L 157.09 358.57 C155.39,360.01 154.01,361.93 154.01,362.84 C154.04,367.38 187.73,395.33 215.96,414.23 C227.51,421.96 230.76,423.43 229.61,420.42 ZM 281.34 416.01 C290.33,409.74 294.03,406.35 296.25,402.35 C298.16,398.91 298.59,395.51 297.00,396.50 C296.46,396.84 295.01,397.31 293.79,397.54 C292.57,397.78 289.68,399.33 287.36,400.99 C283.63,403.67 282.99,403.85 281.66,402.52 C280.52,401.38 280.04,401.32 279.66,402.26 C279.38,402.94 279.12,398.62 279.08,392.65 L 279.00 381.79 L 287.91 372.38 C292.81,367.20 297.28,361.63 297.86,359.98 C298.81,357.24 298.71,357.00 296.61,357.00 C295.28,357.00 292.60,358.69 290.24,361.00 C287.99,363.20 285.60,365.00 284.91,365.00 C284.23,365.00 283.94,365.28 284.28,365.61 C284.62,365.95 282.67,367.99 279.95,370.14 C277.23,372.29 275.00,374.74 275.00,375.58 C275.00,376.43 274.59,376.86 274.08,376.55 C272.01,375.27 270.99,383.27 271.08,400.04 C271.19,418.25 271.46,421.00 273.15,421.00 C273.71,421.00 277.40,418.75 281.34,416.01 ZM 113.72 382.41 C116.35,381.53 121.69,378.39 125.59,375.42 C132.97,369.82 170.43,333.94 179.82,323.50 C182.78,320.20 190.28,312.10 196.48,305.50 C208.63,292.55 211.56,289.14 214.47,284.50 C215.50,282.85 219.01,278.72 222.27,275.31 C225.53,271.91 227.92,268.68 227.58,268.13 C227.24,267.59 227.49,266.81 228.14,266.41 C228.94,265.92 229.04,266.13 228.46,267.10 C227.74,268.29 227.87,268.29 229.30,267.14 C231.74,265.16 230.59,264.22 226.27,264.64 C222.10,265.06 219.31,267.82 217.55,273.26 C216.97,275.04 216.14,276.36 215.70,276.20 C215.27,276.03 212.61,277.97 209.79,280.50 C206.58,283.39 204.42,284.69 203.99,283.99 C203.62,283.38 203.21,279.88 203.10,276.21 C202.89,269.80 201.42,266.74 199.79,269.30 C199.37,269.96 199.02,275.11 199.02,280.74 L 199.00 290.99 L 191.75 298.67 C187.76,302.90 180.23,310.64 175.00,315.88 L 165.50 325.41 L 151.29 325.96 L 137.09 326.50 L 133.25 330.25 C131.14,332.31 128.75,334.00 127.94,334.00 C127.13,334.00 124.77,332.85 122.71,331.45 L 118.96 328.90 L 124.17 324.45 C128.97,320.35 129.81,320.00 134.94,319.99 C138.00,319.98 145.85,319.51 152.38,318.94 L 164.27 317.89 L 176.88 304.80 C195.78,285.18 194.08,289.12 193.96,265.35 C193.87,247.42 193.66,245.00 192.09,243.58 C190.46,242.11 190.18,242.16 188.41,244.24 L 186.50 246.50 L 189.00 244.50 L 191.50 242.50 L 189.66 244.68 C188.64,245.88 187.26,246.65 186.59,246.40 C185.41,245.94 176.63,254.20 173.44,258.77 C172.53,260.07 171.36,260.73 170.68,260.32 C170.03,259.93 170.18,260.46 171.00,261.50 C171.96,262.71 172.04,263.11 171.21,262.61 C169.69,261.69 159.17,269.92 150.10,279.13 C148.49,280.77 135.89,291.67 125.98,300.00 C123.03,302.48 120.15,304.52 119.56,304.55 C118.98,304.57 118.60,305.10 118.72,305.72 C118.85,306.34 115.70,309.23 111.72,312.15 C94.79,324.57 81.34,337.13 78.87,342.83 C76.02,349.43 76.33,360.01 79.57,367.00 C82.60,373.51 86.12,377.47 91.23,380.10 C98.90,384.04 106.47,384.82 113.72,382.41 ZM 89.40 318.10 L 92.18 315.20 L 90.48 307.56 C89.55,303.36 88.99,298.81 89.25,297.46 C89.51,296.11 89.44,295.00 89.10,295.00 C88.32,295.00 87.85,269.98 87.60,216.50 C87.22,134.48 87.16,132.00 85.46,131.35 C84.61,131.02 83.65,131.01 83.33,131.33 C83.01,131.65 82.83,136.10 82.93,141.21 C83.09,149.79 81.87,167.26 80.02,183.00 C79.52,187.20 79.21,178.61 79.13,158.75 C79.05,139.00 78.64,128.00 78.00,128.00 C76.82,128.00 76.80,194.55 77.94,262.00 C78.65,303.97 78.82,306.84 80.84,312.39 C82.97,318.24 84.61,321.00 85.94,321.00 C86.32,321.00 87.88,319.70 89.40,318.10 ZM 325.00 316.00 C325.00,315.45 324.34,315.00 323.54,315.00 C322.38,315.00 322.02,313.07 321.79,305.75 L 321.50 296.50 L 312.90 296.21 C306.82,296.01 303.99,296.30 303.23,297.21 C302.37,298.25 303.90,298.44 311.08,298.18 L 320.00 297.86 L 320.00 306.76 C320.00,311.66 320.30,315.97 320.67,316.33 C321.70,317.37 325.00,317.12 325.00,316.00 ZM 355.42 304.98 C356.06,304.34 355.03,304.00 352.45,304.00 C348.30,303.99 342.33,301.03 341.36,298.49 C340.91,297.32 338.95,297.02 332.14,297.10 C322.75,297.21 324.15,298.72 333.81,298.90 C338.47,298.99 339.45,299.38 341.73,302.09 C343.17,303.80 345.27,305.59 346.42,306.07 C348.79,307.07 353.95,306.45 355.42,304.98 ZM 274.03 269.57 C275.46,268.14 275.21,267.00 273.46,267.00 C272.62,267.00 270.71,266.24 269.21,265.30 L 266.50 263.60 L 268.75 266.12 C270.88,268.49 271.00,269.47 271.00,284.15 C271.00,292.68 271.34,300.01 271.75,300.42 C272.16,300.83 272.62,294.28 272.78,285.86 C272.93,277.44 273.49,270.11 274.03,269.57 ZM 378.11 289.95 C377.19,287.65 377.12,287.72 377.06,291.08 C377.03,293.05 377.34,295.01 377.75,295.43 C378.93,296.63 379.19,292.67 378.11,289.95 ZM 121.81 290.62 C123.86,288.78 124.09,287.74 123.89,281.55 L 123.67 274.55 L 129.08 268.73 C132.06,265.52 136.38,261.02 138.67,258.72 C140.96,256.42 142.65,254.24 142.42,253.88 C142.20,253.51 142.73,252.93 143.62,252.59 C144.90,252.10 144.98,251.68 144.03,250.53 C143.00,249.29 142.23,249.45 138.66,251.69 C136.37,253.12 132.81,255.80 130.75,257.64 C126.56,261.39 125.76,261.62 124.07,259.59 C122.85,258.11 122.66,237.03 123.87,236.97 C124.22,236.95 125.29,235.85 126.26,234.52 C127.97,232.16 127.95,232.04 125.51,229.77 C123.46,227.88 122.82,225.97 122.02,219.47 C121.08,211.83 120.69,199.85 121.17,193.50 C121.30,191.85 121.31,180.76 121.20,168.85 L 121.00 147.20 L 117.84 146.09 C116.10,145.49 114.64,145.11 114.59,145.25 C114.02,146.89 115.72,291.84 116.32,292.77 C117.23,294.17 118.37,293.72 121.81,290.62 ZM 299.08 290.38 L 301.50 287.75 L 299.25 288.44 C297.02,289.13 297.00,289.03 297.00,279.54 C297.00,271.93 297.31,269.82 298.50,269.36 C300.85,268.46 300.28,267.50 296.76,266.46 C294.94,265.92 292.99,264.41 292.28,263.00 C291.59,261.62 291.02,261.11 291.01,261.86 C291.01,262.60 292.12,264.55 293.50,266.18 C295.86,268.99 296.00,269.82 296.00,281.08 C296.00,287.63 296.15,293.00 296.33,293.00 C296.50,293.00 297.74,291.82 299.08,290.38 ZM 377.44 284.75 C374.97,276.77 370.63,271.82 343.17,245.68 C331.43,234.50 329.44,233.00 326.42,233.00 C322.01,233.00 322.03,234.39 326.46,235.57 C328.86,236.22 334.31,240.65 344.21,250.00 C365.35,269.97 371.42,276.50 374.01,282.02 C376.36,287.04 378.73,288.92 377.44,284.75 ZM 323.77 268.38 C325.36,267.17 325.32,267.06 323.20,267.03 C321.94,267.01 319.80,265.90 318.45,264.55 C315.49,261.58 315.24,262.22 318.00,265.73 C319.29,267.37 320.04,269.91 320.10,272.88 L 320.20 277.50 L 321.12 273.60 C321.62,271.45 322.81,269.10 323.77,268.38 ZM 411.55 272.25 C408.90,264.95 406.75,260.49 403.72,256.02 C399.76,250.19 384.48,234.46 380.20,231.81 C374.50,228.29 375.28,230.89 381.52,236.24 C395.07,247.83 405.10,260.55 409.53,271.75 C411.61,276.99 413.44,277.44 411.55,272.25 ZM 297.26 244.32 C297.56,239.55 297.57,235.05 297.29,234.32 C296.72,232.82 289.00,232.46 289.00,233.94 C289.00,234.45 290.46,235.01 292.25,235.19 L 295.50 235.50 L 295.50 244.25 C295.50,249.06 295.77,253.00 296.11,253.00 C296.44,253.00 296.96,249.10 297.26,244.32 ZM 321.59 248.97 C321.71,247.34 321.40,246.26 320.90,246.56 C320.41,246.87 320.00,248.52 320.00,250.23 C320.00,254.07 321.31,253.04 321.59,248.97 ZM 172.50 243.00 C172.84,242.45 172.42,242.00 171.56,242.00 C170.70,242.00 170.00,241.55 170.00,241.00 C170.00,239.65 160.29,239.72 159.46,241.07 C159.09,241.66 158.17,241.89 157.40,241.60 C156.59,241.29 156.00,241.68 156.00,242.53 C156.00,243.70 157.62,244.00 163.94,244.00 C168.31,244.00 172.16,243.55 172.50,243.00 ZM 197.01 208.19 C199.21,206.41 199.16,206.39 192.95,206.44 C183.96,206.52 183.71,209.30 192.64,209.86 C193.82,209.94 195.78,209.19 197.01,208.19 ZM 276.21 193.61 C277.27,191.62 277.23,191.61 274.91,193.14 C273.58,194.02 272.34,195.57 272.13,196.59 C271.81,198.21 271.98,198.27 273.44,197.05 C274.36,196.29 275.60,194.74 276.21,193.61 ZM 340.99 190.00 C343.00,188.98 345.28,187.36 346.07,186.40 C347.38,184.80 347.29,184.72 345.00,185.39 C337.94,187.49 334.87,187.95 328.07,187.98 C323.56,187.99 317.54,187.17 312.77,185.88 C308.45,184.71 304.61,184.06 304.24,184.43 C302.77,185.89 305.96,188.57 310.60,189.76 C324.37,193.32 334.34,193.40 340.99,190.00 ZM 412.20 184.21 C414.39,177.71 414.47,176.09 414.78,133.37 L 415.10 89.25 L 410.55 86.58 C408.05,85.12 406.00,83.18 406.00,82.29 C406.00,81.40 406.27,80.94 406.61,81.27 C406.94,81.61 407.78,81.35 408.48,80.70 C410.45,78.85 405.53,75.83 389.59,69.11 C351.17,52.91 310.25,43.94 267.50,42.35 C252.15,41.78 225.93,42.76 230.25,43.75 C231.21,43.97 232.00,44.56 232.00,45.07 C232.00,45.58 232.93,46.00 234.07,46.00 C236.49,46.00 240.00,47.71 240.00,48.90 C240.00,49.35 235.61,50.04 230.25,50.42 C224.89,50.80 219.15,51.52 217.50,52.01 C215.85,52.51 208.64,53.60 201.48,54.42 C183.57,56.49 159.95,61.98 139.00,68.94 L 127.50 72.77 L 122.67 70.33 C120.01,68.98 117.09,68.03 116.17,68.21 C114.01,68.62 125.18,75.00 128.07,75.00 C129.23,75.00 134.08,73.68 138.84,72.06 C171.74,60.91 214.87,53.99 251.45,54.01 C267.24,54.01 295.68,56.25 310.00,58.61 C332.09,62.25 369.38,73.10 390.81,82.12 C411.09,90.66 412.68,91.62 413.36,95.77 C414.40,102.03 414.07,164.00 412.96,172.88 C412.38,177.46 411.03,183.53 409.96,186.36 C407.69,192.32 407.69,192.31 408.97,191.52 C409.51,191.19 410.96,187.90 412.20,184.21 ZM 382.76 179.75 C385.30,174.58 386.00,166.13 386.00,140.47 L 386.00 114.21 L 381.96 113.83 C378.56,113.50 377.86,113.76 377.47,115.47 C377.22,116.59 376.90,129.88 376.76,145.00 C376.51,171.19 376.39,172.73 374.23,177.42 C372.25,181.72 372.19,182.13 373.81,180.67 C375.85,178.83 377.00,179.36 377.00,182.13 C377.00,184.76 381.13,183.04 382.76,179.75 ZM 333.50 181.00 C333.85,180.44 333.04,180.00 331.64,180.00 C330.28,180.00 328.56,179.85 327.83,179.66 C327.10,179.48 326.89,179.53 327.36,179.78 C327.84,180.04 327.61,180.63 326.86,181.11 C325.95,181.68 326.73,181.97 329.19,181.98 C331.22,181.99 333.16,181.55 333.50,181.00 ZM 211.24 169.38 C213.00,168.47 216.93,165.37 219.97,162.50 C223.01,159.62 226.48,156.76 227.68,156.14 C231.13,154.34 236.41,154.80 243.60,157.50 C252.15,160.72 253.61,160.66 255.50,157.00 C256.35,155.35 256.61,154.00 256.06,154.00 C255.52,154.00 254.60,154.88 254.03,155.95 C253.01,157.85 252.80,157.82 246.74,154.95 C242.06,152.74 239.05,152.00 234.70,152.00 C227.77,152.00 224.94,153.35 219.05,159.51 C212.97,165.85 209.69,167.42 202.50,167.40 C197.04,167.38 193.97,166.28 168.50,155.18 C153.10,148.47 135.81,140.62 130.07,137.74 C124.34,134.86 119.00,132.64 118.22,132.82 C117.44,132.99 117.08,132.69 117.41,132.14 C117.75,131.59 117.12,130.86 116.01,130.50 C114.91,130.15 114.00,129.45 114.00,128.93 C114.00,128.42 113.66,128.06 113.25,128.14 C112.84,128.22 111.04,127.73 109.25,127.05 C106.62,126.04 106.00,125.25 106.00,122.93 C106.00,120.93 105.20,119.52 103.42,118.35 C98.92,115.41 74.65,104.92 73.42,105.39 C72.77,105.64 71.71,105.32 71.06,104.67 C70.16,103.77 70.05,103.95 70.61,105.41 C71.09,106.68 70.97,107.10 70.26,106.66 C69.66,106.29 69.00,106.50 68.79,107.13 C68.55,107.86 67.75,107.61 66.58,106.44 C65.05,104.91 64.84,103.58 65.32,98.48 C65.63,95.11 66.83,89.96 67.98,87.04 C70.06,81.76 70.13,79.01 68.09,82.83 C66.13,86.49 64.00,96.35 64.00,101.74 C64.00,111.13 66.82,115.16 75.34,117.96 C77.45,118.65 83.98,121.46 89.84,124.22 C95.70,126.97 106.57,131.62 114.00,134.55 C121.43,137.49 135.15,143.44 144.50,147.77 C164.25,156.93 164.83,157.20 180.00,164.09 C186.32,166.96 193.30,169.91 195.50,170.64 C200.23,172.21 206.77,171.69 211.24,169.38 ZM 329.50 149.50 C329.50,148.95 328.25,148.36 326.73,148.18 C325.21,148.01 324.21,147.47 324.51,146.98 C324.81,146.50 324.14,145.61 323.03,145.01 C321.26,144.07 320.99,142.88 320.89,135.71 C320.79,128.65 320.65,128.06 319.94,131.50 C318.46,138.65 318.83,147.15 320.70,149.22 C322.50,151.21 329.50,151.44 329.50,149.50 ZM 346.50 150.00 C346.84,149.45 346.87,148.59 346.56,148.10 C346.26,147.60 345.88,141.06 345.73,133.55 C345.52,122.81 345.14,119.70 343.98,118.96 C343.17,118.44 341.94,118.23 341.25,118.48 C340.56,118.73 340.00,118.25 340.00,117.41 C340.00,116.57 339.66,116.09 339.24,116.35 C337.96,117.14 338.73,147.97 340.06,149.58 C341.42,151.21 345.58,151.48 346.50,150.00 ZM 364.00 149.34 C365.29,148.96 365.46,145.55 365.22,124.99 L 364.93 101.08 L 361.22 100.34 L 357.50 99.60 L 360.50 98.87 L 363.50 98.15 L 360.50 98.32 L 357.50 98.50 L 357.23 123.38 C356.96,149.04 357.35,151.91 360.91,150.43 C361.78,150.07 363.17,149.58 364.00,149.34 ZM 167.48 140.97 C167.13,140.41 163.29,138.15 158.93,135.96 C151.34,132.15 151.02,132.08 151.35,134.24 C151.62,136.00 153.22,137.10 158.60,139.21 C166.00,142.12 168.50,142.61 167.48,140.97 ZM 298.60 139.58 C298.50,137.61 298.03,137.48 292.50,137.89 C290.69,138.02 290.50,140.63 292.25,141.34 C292.94,141.61 294.67,141.78 296.10,141.72 C298.05,141.63 298.68,141.08 298.60,139.58 ZM 206.42 140.02 C205.21,138.81 174.34,125.00 172.85,125.00 C172.17,125.00 172.28,125.63 173.13,126.65 C173.88,127.56 174.27,128.52 174.00,128.78 C173.48,129.27 182.60,133.03 196.50,138.06 C204.86,141.09 208.14,141.74 206.42,140.02 ZM 221.36 134.23 C221.95,133.28 136.20,96.47 135.35,97.31 C134.76,97.91 145.44,103.15 155.16,107.04 C162.46,109.95 188.42,121.63 200.00,127.20 C205.77,129.98 212.52,132.83 215.00,133.54 C220.64,135.15 220.78,135.16 221.36,134.23 ZM 123.91 119.48 C123.07,118.64 121.32,117.75 120.02,117.50 C116.57,116.84 115.64,115.54 116.91,113.17 C117.81,111.49 117.64,110.86 116.01,109.72 C114.91,108.95 114.33,108.00 114.73,107.61 C115.12,107.22 114.59,107.22 113.56,107.62 C112.37,108.07 111.91,107.96 112.30,107.32 C113.04,106.13 111.70,105.46 95.50,98.87 C88.90,96.18 82.75,93.55 81.84,93.03 C80.05,92.02 78.86,92.98 77.63,96.39 C76.51,99.52 79.50,102.64 85.70,104.82 C93.29,107.48 103.46,111.79 114.00,116.79 C123.30,121.21 126.51,122.08 123.91,119.48 ZM 118.42 100.13 C117.37,99.10 116.31,98.42 116.09,98.62 C115.86,98.83 114.23,97.89 112.46,96.54 C110.69,95.19 108.99,94.34 108.68,94.66 C108.36,94.97 106.58,94.28 104.71,93.13 C102.84,91.97 101.04,91.29 100.72,91.62 C100.39,91.94 99.10,91.48 97.84,90.60 C96.58,89.72 94.82,89.00 93.91,89.00 C93.01,89.00 91.13,88.10 89.73,87.00 C86.69,84.61 86.00,84.52 86.00,86.47 C86.00,87.91 90.79,91.00 93.01,91.00 C93.62,91.00 96.46,92.08 99.31,93.41 C104.17,95.67 118.99,101.80 119.92,101.94 C120.16,101.97 119.48,101.16 118.42,100.13 ZM 327.83 95.64 C328.04,93.79 327.77,93.02 327.08,93.45 C325.73,94.28 325.73,93.84 327.06,90.34 C327.65,88.80 327.80,87.87 327.40,88.26 C327.01,88.66 326.19,88.61 325.59,88.16 C324.01,86.96 313.29,84.37 299.50,81.87 C290.35,80.20 283.35,79.66 270.00,79.59 L 252.50 79.50 L 252.81 81.75 C253.11,83.86 252.76,84.00 247.31,84.03 C239.61,84.07 221.24,86.56 219.71,87.78 C219.05,88.30 216.02,89.04 213.00,89.42 C209.98,89.79 201.86,91.23 194.96,92.60 L 182.42 95.10 L 175.62 92.05 C167.93,88.60 168.00,88.62 168.00,90.05 C168.00,90.63 171.26,92.64 175.25,94.51 L 182.50 97.93 L 203.00 94.33 C222.99,90.81 224.17,90.72 250.50,90.63 C267.76,90.56 280.93,91.00 287.00,91.84 C297.80,93.32 321.18,97.85 321.93,98.60 C322.20,98.87 323.57,98.96 324.96,98.80 C326.92,98.57 327.57,97.85 327.83,95.64 ZM 90.17 80.38 C93.07,80.96 101.42,84.00 113.16,88.74 C115.18,89.56 117.38,90.04 118.05,89.82 C119.59,89.30 91.57,77.00 88.86,77.00 C85.54,77.00 83.01,78.92 79.93,83.77 C75.65,90.52 76.33,90.94 81.93,84.97 C86.46,80.15 87.13,79.78 90.17,80.38 ZM 276.00 337.00 C276.00,336.45 276.45,336.00 277.00,336.00 C277.55,336.00 278.00,336.45 278.00,337.00 C278.00,337.55 277.55,338.00 277.00,338.00 C276.45,338.00 276.00,337.55 276.00,337.00 ZM 217.22 331.44 C216.00,330.59 215.00,329.08 215.00,328.10 C215.00,323.66 223.22,320.96 224.50,324.99 C225.18,327.15 222.27,333.00 220.51,333.00 C219.92,333.00 218.44,332.30 217.22,331.44 ZM 247.00 295.00 C245.04,293.04 244.14,289.35 245.89,290.43 C246.38,290.73 246.71,290.20 246.64,289.24 C246.53,287.85 247.31,287.50 250.50,287.50 C254.30,287.50 254.52,287.67 254.82,290.82 C255.38,296.67 251.01,299.01 247.00,295.00 ZM 192.31 353.59 C189.66,351.31 189.64,351.20 191.32,348.63 C193.80,344.86 200.00,345.24 200.00,349.17 C200.00,354.68 196.15,356.89 192.31,353.59 ZM 101.03 360.03 C96.18,355.18 97.97,349.66 104.81,348.38 C107.70,347.83 108.67,348.10 110.07,349.84 C111.94,352.15 111.38,357.63 108.98,360.53 C107.26,362.60 103.36,362.36 101.03,360.03 ZM 135.29 349.50 C135.45,345.84 135.90,344.49 137.00,344.45 C137.82,344.43 138.41,343.92 138.29,343.32 C138.17,342.73 138.96,341.44 140.04,340.46 C141.12,339.49 142.00,338.15 142.00,337.50 C142.00,335.36 145.59,333.00 148.83,333.00 C150.57,333.00 152.00,332.62 152.00,332.17 C152.00,331.71 153.35,331.33 155.00,331.33 C156.65,331.33 158.00,331.76 158.00,332.27 C158.00,333.62 138.75,352.00 137.35,352.00 C136.70,352.00 135.92,352.56 135.63,353.25 C135.33,353.94 135.18,352.25 135.29,349.50 ZM 130.43 342.57 L 129.42 338.23 L 133.75 335.62 C136.13,334.18 138.74,333.00 139.54,333.00 C141.59,333.00 141.36,335.58 139.11,337.71 C138.08,338.69 136.28,341.08 135.12,343.00 C133.96,344.92 133.00,346.05 132.99,345.50 C132.98,344.95 132.62,345.04 132.20,345.71 C131.73,346.45 131.05,345.24 130.43,342.57 ZM 112.18 325.29 C112.36,324.35 116.50,320.14 121.38,315.94 L 130.25 308.29 L 141.78 307.63 C151.24,307.09 153.95,306.57 156.89,304.74 C158.86,303.51 161.38,302.04 162.49,301.47 C163.59,300.91 165.19,298.99 166.02,297.22 C167.93,293.20 176.43,284.34 180.32,282.33 C183.19,280.85 183.23,280.72 182.56,274.85 C181.42,264.73 184.39,255.00 188.62,255.00 C189.86,255.00 190.07,257.27 189.94,269.11 C189.78,284.74 190.25,283.44 181.50,292.48 C179.30,294.75 173.95,300.32 169.60,304.84 L 161.70 313.08 L 146.04 313.91 C128.69,314.83 126.49,315.60 119.05,323.39 C115.39,327.22 111.61,328.27 112.18,325.29 ZM 140.50 300.86 C141.05,299.43 153.42,288.00 154.43,288.00 C154.74,288.00 159.97,283.05 166.04,277.00 C172.12,270.95 177.52,266.00 178.05,266.00 C179.88,266.00 178.98,269.94 176.62,272.21 C175.30,273.47 173.70,276.17 173.05,278.20 C171.82,282.08 159.99,294.00 157.37,294.00 C156.62,294.00 156.00,294.59 156.00,295.32 C156.00,298.14 150.67,301.36 145.26,301.81 C141.04,302.16 140.07,301.97 140.50,300.86 ZM 180.00 267.00 C180.00,265.90 180.41,265.00 180.91,265.00 C181.40,265.00 181.58,265.90 181.29,267.00 C181.00,268.10 180.59,269.00 180.38,269.00 C180.17,269.00 180.00,268.10 180.00,267.00 Z" fill="rgb(224,203,161)"/>
<path d="M 0.00 251.00 L 0.00 0.00 L 248.50 0.00 L 497.00 0.00 L 497.00 251.00 L 497.00 502.00 L 248.50 502.00 L 0.00 502.00 L 0.00 251.00 ZM 268.31 466.84 C298.63,448.91 323.26,431.97 346.50,413.05 C364.12,398.71 386.52,376.69 385.42,374.79 C385.01,374.08 385.06,373.84 385.52,374.26 C385.98,374.68 387.40,374.04 388.68,372.83 C391.14,370.52 391.85,368.39 389.75,369.60 C389.02,370.02 388.85,369.94 389.33,369.41 C389.79,368.91 390.69,368.48 391.33,368.45 C391.98,368.43 392.35,367.75 392.17,366.95 C391.98,366.15 392.17,365.83 392.57,366.24 C393.43,367.10 396.00,365.24 396.00,363.76 C396.00,363.21 395.21,363.37 394.25,364.13 C392.67,365.37 392.63,365.33 393.86,363.76 C394.61,362.80 395.61,362.26 396.08,362.55 C397.30,363.31 403.17,354.88 402.54,353.25 C402.26,352.51 402.45,352.16 402.97,352.48 C404.31,353.31 409.36,345.39 408.44,343.90 C407.97,343.15 408.11,342.95 408.80,343.38 C410.28,344.29 413.16,338.65 412.40,336.31 C411.98,335.03 412.08,334.87 412.74,335.79 C413.41,336.72 414.12,335.93 415.31,332.90 C416.21,330.60 416.66,328.27 416.32,327.71 C415.97,327.15 416.15,326.98 416.72,327.33 C419.23,328.88 424.94,305.71 424.98,293.82 C424.99,289.59 424.35,283.03 423.55,279.24 C421.69,270.38 418.11,260.81 416.94,261.54 C416.43,261.85 416.28,261.44 416.59,260.63 C417.35,258.65 415.18,254.77 413.80,255.63 C413.13,256.04 412.97,255.85 413.40,255.16 C414.25,253.79 411.00,247.88 409.82,248.61 C409.37,248.89 409.00,248.40 409.00,247.53 C409.00,246.65 408.33,245.68 407.50,245.36 C406.67,245.05 405.99,244.27 405.98,243.64 C405.97,243.01 403.05,239.38 399.48,235.56 C395.92,231.74 393.00,228.56 393.00,228.49 C393.00,228.42 396.66,224.57 401.14,219.93 C405.62,215.29 409.85,210.82 410.55,210.00 C413.18,206.88 419.92,193.23 422.14,186.50 C424.40,179.64 424.46,178.52 424.78,131.30 L 425.11 83.11 L 421.96 81.48 C420.23,80.59 418.28,80.06 417.62,80.32 C416.96,80.57 415.56,80.15 414.52,79.39 C413.47,78.62 413.04,78.00 413.56,77.99 C416.14,77.96 380.49,62.82 377.42,62.63 C376.19,62.56 375.36,62.23 375.56,61.91 C376.05,61.10 348.98,52.64 336.00,49.54 C325.47,47.03 309.75,44.27 292.00,41.82 C285.60,40.94 271.57,40.53 249.00,40.58 C220.58,40.65 213.29,40.98 200.96,42.76 C176.39,46.29 142.68,54.46 145.24,56.25 C146.04,56.81 145.67,56.90 144.25,56.50 C143.01,56.15 141.04,56.17 139.87,56.54 C138.16,57.08 138.01,57.41 139.12,58.17 C140.10,58.85 139.84,58.94 138.23,58.49 C135.74,57.79 126.74,60.77 127.52,62.03 C127.79,62.46 127.20,62.60 126.22,62.35 C123.40,61.61 115.11,65.57 115.40,67.52 C115.54,68.44 118.19,70.60 121.31,72.33 L 126.97 75.46 L 132.74 73.81 C135.91,72.90 142.32,70.96 147.00,69.51 C167.31,63.18 192.85,58.15 215.45,56.05 C241.55,53.61 259.32,53.48 283.00,55.53 C305.48,57.47 315.50,59.16 336.97,64.61 C362.95,71.20 386.21,79.39 406.68,89.15 L 412.87 92.10 L 413.53 97.39 C413.89,100.30 413.99,119.07 413.75,139.09 C413.26,179.61 413.01,181.43 406.24,194.41 C403.47,199.73 399.79,204.25 391.51,212.50 C385.45,218.55 379.28,224.45 377.80,225.62 C373.94,228.67 374.96,230.78 384.03,238.53 C396.32,249.02 403.57,258.52 409.96,272.53 C412.93,279.04 413.16,280.30 413.32,291.75 C413.42,298.49 413.14,304.12 412.71,304.27 C412.27,304.41 411.84,306.44 411.74,308.76 C411.65,311.09 411.23,313.00 410.82,313.00 C410.40,313.00 410.32,313.67 410.64,314.50 C410.96,315.33 410.67,316.00 410.00,316.00 C409.33,316.00 409.04,316.67 409.36,317.50 C409.68,318.33 409.47,319.00 408.91,319.00 C408.34,319.00 408.16,319.45 408.50,320.00 C408.84,320.55 408.71,321.00 408.22,321.00 C407.72,321.00 406.70,322.88 405.94,325.17 C404.22,330.41 396.09,344.64 390.93,351.48 C386.89,356.83 386.06,358.66 388.25,357.40 C388.94,357.00 389.20,357.01 388.83,357.42 C388.47,357.83 387.79,358.16 387.33,358.14 C386.21,358.11 382.00,362.13 382.00,363.23 C382.00,363.72 382.56,363.79 383.25,363.40 C383.94,363.00 384.20,363.01 383.83,363.42 C383.47,363.83 382.93,364.02 382.63,363.83 C382.33,363.65 375.88,369.59 368.30,377.02 C341.99,402.81 318.43,421.73 291.66,438.57 C287.35,441.28 282.02,444.96 279.82,446.75 C276.17,449.71 262.00,457.93 257.75,459.55 C256.10,460.18 256.00,457.70 256.00,416.00 L 256.00 371.78 L 268.70 358.87 C275.69,351.77 281.76,345.41 282.19,344.73 C282.62,344.05 282.98,337.91 282.98,331.09 L 283.00 318.68 L 292.64 308.91 L 302.29 299.13 L 311.08 298.82 L 319.88 298.50 L 320.19 307.75 C320.36,312.84 320.26,317.00 319.97,317.00 C318.74,317.00 316.04,322.94 316.60,324.41 C316.94,325.28 316.72,326.00 316.11,326.00 C315.50,326.00 315.00,326.67 315.00,327.50 C315.00,328.33 315.45,329.00 316.00,329.00 C316.55,329.00 317.00,330.12 317.00,331.50 C317.00,332.88 316.46,334.00 315.80,334.00 C315.15,334.00 305.31,343.26 293.94,354.59 C277.91,370.54 273.01,376.03 272.12,378.98 C271.02,382.66 270.64,415.49 271.66,419.25 C271.92,420.21 272.57,421.00 273.10,421.00 C275.33,421.00 306.35,399.08 322.50,386.10 C346.96,366.43 377.95,332.97 375.46,328.93 C374.99,328.17 375.10,327.95 375.75,328.35 C377.39,329.36 382.24,320.38 381.49,317.72 C381.08,316.24 381.17,315.93 381.78,316.80 C382.98,318.54 386.65,308.99 387.96,300.68 C389.59,290.36 385.90,274.05 381.56,272.38 C380.71,272.06 380.26,271.39 380.56,270.90 C380.87,270.40 380.57,270.00 379.89,270.00 C379.22,270.00 378.94,269.73 379.27,269.39 C379.96,268.70 377.79,266.03 376.95,266.54 C376.65,266.72 375.79,265.89 375.04,264.69 C373.76,262.62 373.79,262.58 375.59,263.93 C376.64,264.71 376.38,264.25 375.00,262.89 C373.62,261.54 371.45,259.70 370.17,258.81 C367.93,257.26 361.55,251.58 347.14,238.29 C342.28,233.81 340.42,231.41 340.45,229.64 C340.49,227.88 343.13,224.76 350.00,218.36 C355.23,213.49 363.93,205.24 369.35,200.01 C387.86,182.14 388.00,181.70 388.00,141.99 C388.00,109.43 388.30,111.00 382.12,111.00 C377.07,111.00 377.00,111.40 377.00,141.02 C377.00,178.70 378.41,174.91 356.11,197.00 C346.39,206.62 336.25,216.41 333.58,218.75 L 328.72 223.00 L 314.97 223.00 C303.35,223.00 301.12,222.75 300.61,221.42 C300.27,220.55 300.00,213.54 300.00,205.84 C300.00,193.06 299.85,191.88 298.25,192.19 C296.93,192.45 296.58,193.32 296.83,195.77 C297.01,197.61 296.69,199.00 296.08,199.00 C295.37,199.00 295.00,203.11 295.00,211.00 L 295.00 223.00 L 286.60 223.00 L 278.19 223.00 L 274.67 227.75 C272.31,230.94 271.54,232.70 272.33,233.12 C272.97,233.46 278.16,233.98 283.86,234.28 C289.56,234.58 294.68,235.28 295.23,235.83 C295.80,236.40 296.05,239.81 295.81,243.67 C295.48,249.07 294.81,251.34 292.62,254.50 C289.36,259.21 289.63,262.96 293.52,267.02 C295.86,269.46 296.00,270.26 296.00,280.67 L 296.00 291.74 L 285.00 302.87 L 274.00 313.99 L 274.00 327.89 L 274.00 341.79 L 265.92 349.90 C261.47,354.36 257.42,357.76 256.92,357.45 C256.40,357.13 256.00,345.35 256.00,330.31 L 256.00 303.74 L 259.50 299.87 C262.29,296.79 263.00,295.17 263.00,291.95 C263.00,286.76 260.75,282.44 257.03,280.52 C250.05,276.91 241.88,280.04 239.99,287.04 C238.55,292.37 239.48,296.33 243.12,300.48 L 246.05 303.82 L 245.77 321.48 L 245.50 339.15 L 239.35 333.58 C234.98,329.62 232.80,326.78 231.85,323.78 C229.11,315.20 219.22,312.24 212.62,318.03 C209.06,321.16 206.97,327.54 208.64,330.21 C209.08,330.92 209.54,332.17 209.67,333.00 C210.05,335.59 216.78,341.00 219.62,341.00 C221.07,341.00 223.73,340.09 225.53,338.98 L 228.79 336.97 L 237.05 345.05 L 245.31 353.14 L 245.80 405.13 C246.13,441.02 245.95,457.45 245.22,458.18 C244.19,459.21 236.06,454.88 218.00,443.67 C207.80,437.34 187.85,423.93 184.08,420.87 C182.20,419.34 180.17,418.37 179.58,418.71 C178.99,419.04 178.83,418.96 179.23,418.51 C180.15,417.49 172.86,411.97 171.61,412.74 C171.11,413.05 170.98,412.84 171.34,412.26 C171.69,411.69 170.83,410.46 169.42,409.54 C168.02,408.62 166.08,407.11 165.11,406.18 C160.35,401.62 156.62,398.77 155.14,398.55 C154.24,398.42 153.50,397.79 153.50,397.16 C153.50,396.53 151.48,394.15 149.00,391.87 C146.52,389.59 142.40,385.70 139.82,383.22 L 135.14 378.72 L 131.07 381.94 C128.83,383.72 127.00,385.82 127.00,386.63 C127.00,390.76 157.18,417.76 179.00,433.13 C188.59,439.89 215.85,458.00 216.43,458.00 C216.70,458.00 221.33,460.64 226.71,463.87 C239.27,471.41 249.28,476.97 250.31,476.99 C250.75,476.99 258.85,472.43 268.31,466.84 ZM 231.00 399.71 L 231.00 377.42 L 226.69 373.19 C224.32,370.86 222.00,369.30 221.53,369.73 C221.06,370.15 220.96,370.01 221.30,369.41 C221.64,368.81 218.79,365.30 214.96,361.60 C208.33,355.21 208.00,354.67 208.00,350.29 C208.00,345.06 203.94,338.43 201.35,339.42 C200.55,339.73 200.16,339.55 200.49,339.02 C200.82,338.49 199.94,337.77 198.54,337.42 C191.99,335.78 185.09,341.02 184.27,348.27 C183.25,357.38 187.80,363.00 196.20,363.00 C200.98,363.00 201.38,363.23 208.82,370.41 C213.04,374.49 217.61,378.71 218.96,379.79 C221.07,381.48 221.48,382.78 221.82,388.87 C222.04,392.79 221.93,397.58 221.56,399.52 L 220.90 403.05 L 216.20 399.81 C213.61,398.02 210.49,395.68 209.25,394.61 C208.01,393.53 206.99,393.07 206.98,393.58 C206.98,394.08 206.64,394.03 206.23,393.45 C205.83,392.87 203.93,391.42 202.00,390.24 C200.07,389.05 197.23,386.97 195.67,385.61 C189.73,380.41 184.68,376.50 183.90,376.50 C183.46,376.50 182.51,375.85 181.80,375.05 C180.67,373.78 180.76,373.78 182.50,375.02 C183.99,376.08 183.87,375.74 182.05,373.69 C180.70,372.18 178.99,371.17 178.25,371.46 C177.50,371.74 177.13,371.60 177.41,371.14 C178.04,370.13 162.24,355.00 160.56,355.00 C158.69,355.00 154.00,360.41 154.01,362.55 C154.03,364.83 159.27,370.09 174.50,383.11 C192.40,398.42 225.51,421.92 229.25,421.98 C230.87,422.00 231.00,420.28 231.00,399.71 ZM 113.72 382.40 C122.60,379.42 130.16,372.88 168.38,335.10 C206.24,297.67 236.02,264.15 259.10,233.00 C277.96,207.54 285.08,197.34 296.46,179.50 C299.62,174.55 303.06,169.28 304.11,167.79 C306.13,164.90 309.07,154.94 308.90,151.54 C308.81,149.78 308.68,149.85 307.94,152.00 C307.34,153.73 307.24,152.92 307.61,149.36 C307.91,146.53 307.74,143.96 307.22,143.64 C306.70,143.32 306.44,144.27 306.64,145.78 L 306.99 148.50 L 306.06 145.67 C305.55,144.11 305.37,142.08 305.66,141.17 C306.07,139.87 305.97,139.80 305.22,140.86 C304.13,142.38 302.45,140.69 303.45,139.08 C304.31,137.69 299.26,134.15 294.66,132.91 C292.42,132.30 288.77,132.10 286.54,132.46 C278.42,133.75 274.89,136.97 260.37,156.26 C246.89,174.18 245.45,176.04 238.14,184.92 C202.89,227.75 154.68,275.08 103.11,317.50 C80.27,336.29 76.99,340.93 77.01,354.50 C77.02,365.69 82.55,375.64 91.23,380.10 C98.90,384.05 106.48,384.82 113.72,382.40 ZM 90.37 317.75 L 94.07 314.50 L 91.86 305.50 C89.70,296.69 89.64,294.76 89.08,213.50 L 88.50 130.50 L 83.63 128.17 C80.67,126.76 78.39,126.21 77.84,126.76 C76.77,127.83 76.82,194.27 77.94,261.00 C78.66,303.95 78.82,306.83 80.85,312.39 C82.98,318.26 84.61,321.00 85.96,321.00 C86.35,321.00 88.33,319.54 90.37,317.75 ZM 274.80 300.80 C275.63,299.97 276.00,294.84 276.00,284.19 C276.00,269.22 276.07,268.71 278.50,265.82 C281.90,261.78 281.73,257.89 278.00,254.15 C276.18,252.33 275.00,250.11 275.00,248.50 C275.00,246.52 274.56,245.94 273.25,246.19 C272.17,246.40 271.50,247.44 271.51,248.91 C271.51,250.26 270.12,252.68 268.26,254.54 C266.47,256.33 265.00,258.55 265.00,259.47 C265.00,261.78 266.97,265.25 269.16,266.81 C270.82,267.98 271.00,269.72 271.00,284.39 C271.00,302.10 271.47,304.13 274.80,300.80 ZM 123.50 289.82 C126.01,286.83 126.16,286.15 125.54,280.64 L 124.86 274.68 L 140.18 259.36 L 155.50 244.05 L 163.62 244.03 C170.17,244.00 172.21,243.62 174.26,242.01 C176.65,240.13 176.80,239.43 177.15,228.47 L 177.52 216.91 L 181.96 212.92 C186.10,209.21 186.70,208.98 190.73,209.59 C194.91,210.21 195.21,210.07 200.15,205.13 C205.25,200.04 205.25,200.03 204.79,194.51 C204.31,188.64 200.92,183.43 198.25,184.46 C197.50,184.74 197.14,184.58 197.44,184.09 C198.86,181.80 191.21,181.32 187.10,183.45 C183.91,185.10 180.62,189.57 181.52,191.03 C181.85,191.56 181.64,192.00 181.06,192.00 C179.61,192.00 179.72,196.32 181.21,197.81 C182.16,198.76 181.07,200.39 176.20,205.30 C169.07,212.49 168.00,215.23 168.00,226.24 L 168.00 234.00 L 160.30 234.00 L 152.59 234.00 L 139.05 247.25 L 125.50 260.50 L 125.21 250.55 L 124.92 240.60 L 139.22 226.05 C147.09,218.05 154.08,210.49 154.76,209.26 C155.44,208.03 156.00,203.65 156.00,199.52 C156.00,192.53 156.20,191.84 158.85,189.48 C163.12,185.67 164.68,180.05 162.81,175.28 C161.99,173.20 160.77,171.62 160.09,171.77 C159.41,171.93 159.12,171.62 159.44,171.09 C160.53,169.33 155.64,167.00 150.85,167.00 C146.94,167.00 145.64,167.51 143.07,170.08 C141.37,171.78 140.24,173.58 140.55,174.08 C140.86,174.59 140.61,175.00 140.00,175.00 C139.39,175.00 139.09,175.34 139.35,175.75 C139.60,176.17 139.96,178.53 140.13,181.00 C140.37,184.35 141.17,186.20 143.26,188.25 C144.81,189.76 146.39,191.00 146.78,191.00 C147.18,191.00 147.35,194.35 147.17,198.45 L 146.85 205.90 L 136.90 215.45 C131.43,220.70 126.51,225.00 125.97,225.00 C125.36,225.00 125.00,210.53 125.00,185.64 L 125.00 146.27 L 120.42 144.52 C117.89,143.56 115.53,143.16 115.16,143.63 C114.21,144.87 115.33,292.24 116.31,293.75 C117.39,295.42 119.98,294.00 123.50,289.82 ZM 340.93 189.99 C346.67,186.99 353.01,180.57 352.90,177.87 L 352.80 175.50 L 352.00 178.00 C351.56,179.38 351.15,179.78 351.10,178.90 C350.93,176.20 347.36,173.85 342.83,173.45 C339.11,173.13 338.92,173.19 341.50,173.92 C343.76,174.55 342.39,174.78 336.00,174.81 C330.26,174.84 328.15,174.57 329.50,173.97 C330.86,173.37 330.06,173.26 327.00,173.62 C323.65,174.02 322.88,173.89 324.00,173.10 C324.89,172.47 325.02,172.02 324.33,172.02 C323.69,172.01 322.34,171.73 321.33,171.41 C319.78,170.90 319.73,170.99 321.00,171.97 C322.21,172.91 322.02,173.00 320.00,172.45 C318.62,172.08 317.05,171.35 316.50,170.83 C315.86,170.22 316.22,170.11 317.50,170.50 C318.60,170.85 318.25,170.40 316.73,169.52 C315.20,168.63 313.51,168.18 312.98,168.51 C312.44,168.85 312.00,168.57 312.00,167.89 C312.00,167.22 311.70,166.96 311.34,167.32 C310.98,167.69 310.10,167.50 309.39,166.91 C307.62,165.44 306.00,166.63 306.00,169.39 C306.00,171.27 307.56,172.41 315.00,175.95 C319.95,178.30 324.00,180.33 324.00,180.47 C324.00,180.61 321.35,180.67 318.10,180.61 C314.86,180.55 312.60,180.25 313.09,179.95 C313.57,179.65 311.49,178.56 308.47,177.53 C303.07,175.70 302.94,175.70 301.51,177.58 C299.32,180.48 299.70,182.19 303.31,185.69 C306.42,188.72 310.50,190.10 323.00,192.37 C327.52,193.19 337.28,191.90 340.93,189.99 ZM 211.24 169.38 C213.00,168.47 216.93,165.37 219.97,162.50 C223.01,159.62 226.48,156.76 227.68,156.14 C231.13,154.34 236.41,154.80 243.60,157.50 C247.25,158.88 251.07,160.00 252.09,160.00 C253.99,160.00 257.44,154.77 256.29,153.63 C255.95,153.28 256.19,153.00 256.83,153.00 C257.48,153.00 258.00,152.47 258.00,151.82 C258.00,151.18 259.32,149.49 260.92,148.07 C264.44,144.98 266.12,140.63 263.40,141.68 C262.31,142.10 261.91,141.95 262.33,141.28 C263.08,140.06 250.80,134.51 247.85,134.74 C246.81,134.81 246.19,134.50 246.47,134.05 C247.16,132.92 239.16,129.78 237.78,130.64 C237.15,131.02 236.98,130.85 237.36,130.23 C238.17,128.92 234.49,127.58 232.85,128.59 C232.17,129.01 231.96,128.88 232.34,128.26 C233.16,126.93 230.55,125.89 228.25,126.63 C226.89,127.06 226.81,126.97 227.88,126.20 C228.99,125.41 228.85,125.09 227.14,124.54 C225.97,124.17 224.49,124.19 223.85,124.59 C223.17,125.01 222.96,124.87 223.35,124.25 C224.22,122.84 209.72,116.82 207.33,117.60 C205.98,118.03 205.85,117.94 206.83,117.23 C207.91,116.47 207.83,116.15 206.44,115.62 C205.49,115.25 203.92,115.21 202.94,115.52 C201.97,115.83 200.88,115.62 200.53,115.05 C200.15,114.43 200.62,114.23 201.70,114.55 C202.69,114.83 200.15,113.46 196.05,111.50 C191.96,109.54 187.99,108.17 187.25,108.46 C186.51,108.74 186.14,108.57 186.45,108.08 C186.75,107.59 183.51,105.75 179.25,104.00 C174.99,102.24 167.90,99.22 163.50,97.28 C159.10,95.33 153.70,92.96 151.50,92.00 C149.30,91.04 143.90,88.67 139.50,86.73 C123.89,79.83 121.11,78.81 119.91,79.56 C119.18,80.01 118.95,79.89 119.33,79.27 C120.15,77.94 114.52,75.56 112.91,76.56 C112.18,77.01 111.95,76.89 112.33,76.27 C113.15,74.94 107.52,72.56 105.91,73.56 C105.19,74.00 104.95,73.89 105.31,73.30 C106.15,71.94 101.45,69.89 99.35,70.70 C98.12,71.17 97.89,70.98 98.50,70.00 C99.11,69.01 98.88,68.83 97.61,69.32 C96.67,69.68 96.13,69.60 96.42,69.13 C97.23,67.81 92.31,66.00 87.90,66.00 C85.70,66.00 82.62,66.66 81.06,67.47 C78.01,69.05 69.66,77.99 70.47,78.81 C70.75,79.08 70.36,79.80 69.61,80.40 C67.47,82.13 64.93,90.84 64.31,98.59 C63.37,110.28 66.02,114.94 75.34,117.97 C77.45,118.65 83.98,121.46 89.84,124.22 C95.70,126.97 106.57,131.62 114.00,134.55 C121.43,137.49 135.15,143.44 144.50,147.77 C164.25,156.93 164.83,157.20 180.00,164.09 C186.32,166.96 193.30,169.91 195.50,170.64 C200.23,172.21 206.77,171.69 211.24,169.38 ZM 329.70 139.00 C329.82,131.71 329.57,128.23 329.02,129.50 C328.34,131.04 328.12,131.13 328.07,129.88 C327.99,128.05 322.17,126.43 320.76,127.84 C320.28,128.32 319.62,132.83 319.30,137.86 C318.78,145.87 318.93,147.27 320.55,149.06 C321.89,150.53 323.38,151.01 325.95,150.80 L 329.50 150.50 L 329.70 139.00 ZM 346.90 149.62 C347.69,148.67 347.96,143.09 347.78,131.87 L 347.50 115.50 L 343.00 115.50 L 338.50 115.50 L 338.69 131.82 C338.82,142.66 339.28,148.63 340.06,149.57 C341.57,151.39 345.41,151.42 346.90,149.62 ZM 365.77 149.44 C366.76,149.14 366.98,143.49 366.77,123.77 L 366.50 98.50 L 361.75 98.20 L 357.00 97.89 L 357.00 123.25 C357.00,141.33 357.34,148.94 358.18,149.78 C359.21,150.81 361.68,150.70 365.77,149.44 ZM 328.63 94.00 C329.37,91.53 329.98,89.17 329.98,88.77 C330.02,86.96 324.54,84.96 313.00,82.59 C290.76,78.02 280.90,76.88 258.50,76.31 C235.23,75.71 222.28,76.54 201.50,79.99 C190.51,81.81 169.55,86.58 167.75,87.67 C165.92,88.77 169.41,91.89 175.69,94.78 L 182.50 97.90 L 203.00 94.31 C222.97,90.82 224.20,90.72 250.50,90.63 C267.76,90.56 280.93,91.00 287.00,91.84 C297.80,93.32 321.18,97.85 321.93,98.60 C322.20,98.87 323.52,98.96 324.86,98.80 C326.79,98.56 327.57,97.56 328.63,94.00 ZM 281.00 391.31 L 281.00 380.61 L 291.25 370.60 C296.89,365.09 306.10,356.09 311.72,350.60 C321.71,340.82 322.04,340.60 326.96,340.37 C333.88,340.05 335.17,339.50 337.75,335.69 C340.38,331.81 340.68,326.22 338.49,321.98 C336.75,318.61 333.96,316.87 329.00,316.05 L 325.50 315.47 L 325.21 307.24 L 324.92 299.00 L 331.99 299.00 C338.79,299.00 339.18,299.13 342.07,302.43 C345.94,306.83 349.85,307.73 354.74,305.33 C359.83,302.83 363.00,297.84 363.00,292.29 C363.00,289.21 362.65,288.10 361.85,288.60 C361.10,289.05 360.96,288.87 361.45,288.07 C362.64,286.16 357.07,280.84 354.68,281.60 C353.29,282.04 352.97,281.86 353.53,280.95 C354.14,279.96 353.24,279.83 349.44,280.35 C345.74,280.86 343.70,281.86 340.99,284.51 C337.68,287.74 336.95,288.00 331.21,288.00 L 325.00 288.00 L 325.00 278.39 C325.00,269.61 325.21,268.54 327.50,265.82 C330.64,262.09 330.68,258.29 327.63,254.74 C326.16,253.03 325.00,250.06 324.58,246.93 C324.05,242.89 323.57,241.94 322.21,242.19 C320.98,242.43 320.41,243.71 320.19,246.80 C320.01,249.26 318.84,252.62 317.44,254.68 C314.40,259.16 314.36,262.04 317.26,265.67 C319.36,268.29 319.49,269.21 319.01,278.00 L 318.50 287.50 L 309.50 287.50 L 300.50 287.50 L 300.21 278.00 C299.95,269.67 300.15,268.31 301.81,266.96 C304.07,265.12 306.00,261.73 306.00,259.60 C306.00,258.76 304.65,256.53 303.00,254.65 C300.16,251.42 300.00,250.77 300.00,242.62 L 300.00 234.00 L 311.25 234.08 C317.44,234.12 324.17,234.68 326.20,235.33 C328.70,236.12 334.52,240.86 344.20,250.00 C372.95,277.14 376.17,281.45 377.32,294.25 C377.69,298.33 377.54,301.00 376.96,301.00 C376.43,301.00 376.00,301.71 376.00,302.58 C376.00,308.44 364.73,328.76 356.30,338.08 C354.26,340.35 353.14,342.41 353.57,343.12 C353.99,343.79 353.89,344.05 353.33,343.71 C352.80,343.38 347.67,347.84 341.93,353.63 C327.94,367.74 285.41,402.00 281.88,402.00 C281.40,402.00 281.00,397.19 281.00,391.31 ZM 325.20 330.80 C323.31,328.91 323.75,325.30 325.94,324.73 C327.52,324.31 330.01,325.36 332.91,327.66 C333.14,327.84 332.50,328.89 331.51,329.99 C329.45,332.26 326.98,332.58 325.20,330.80 ZM 218.17 330.13 C217.41,329.65 216.98,328.03 217.17,326.39 C217.45,323.96 218.01,323.45 220.66,323.19 C223.12,322.96 223.97,323.34 224.47,324.91 C225.81,329.12 221.81,332.43 218.17,330.13 ZM 346.82 292.38 C347.22,288.97 349.10,287.58 352.05,288.52 C354.41,289.26 355.23,291.70 353.95,294.10 C353.19,295.51 352.00,296.00 349.67,295.84 C346.66,295.64 346.47,295.41 346.82,292.38 ZM 248.00 293.00 C246.36,289.94 248.43,286.80 251.82,287.19 C253.94,287.44 254.57,288.10 254.83,290.39 C255.35,294.92 250.10,296.93 248.00,293.00 ZM 147.81 55.32 C148.53,55.03 149.40,55.06 149.73,55.40 C150.06,55.73 149.47,55.96 148.42,55.92 C147.25,55.87 147.01,55.64 147.81,55.32 ZM 193.57 352.43 C191.60,350.46 191.57,348.60 193.49,347.01 C195.80,345.09 200.00,346.58 200.00,349.32 C200.00,353.60 196.46,355.31 193.57,352.43 ZM 102.21 359.15 C101.51,358.71 100.67,356.75 100.36,354.80 C99.88,351.87 100.18,350.99 102.11,349.63 C108.79,344.96 114.60,352.02 109.20,358.25 C107.60,360.10 104.36,360.52 102.21,359.15 ZM 137.00 348.58 C137.00,347.15 138.16,344.68 139.58,343.09 C141.00,341.50 142.91,338.69 143.83,336.85 C145.07,334.35 146.27,333.41 148.50,333.16 C150.14,332.97 151.74,332.43 152.03,331.95 C152.33,331.47 153.60,331.35 154.87,331.68 C157.04,332.24 156.88,332.56 151.83,337.72 C148.90,340.71 144.36,344.96 141.75,347.17 L 137.00 351.19 L 137.00 348.58 ZM 132.11 340.88 C131.21,338.29 131.42,337.78 134.40,335.51 C138.00,332.77 141.00,332.23 141.00,334.34 C141.00,335.08 139.22,337.49 137.05,339.71 L 133.10 343.74 L 132.11 340.88 ZM 124.50 330.41 L 121.50 327.90 L 125.86 324.08 L 130.22 320.26 L 143.36 319.52 C165.35,318.29 162.39,319.75 180.28,301.33 L 196.00 285.17 L 196.00 266.30 L 196.00 247.44 L 199.68 243.97 C205.98,238.04 220.96,220.75 220.48,219.97 C219.91,219.04 222.48,216.81 223.25,217.58 C223.55,217.89 227.32,214.06 231.60,209.07 C235.89,204.08 240.16,200.00 241.09,200.00 C242.11,200.00 243.39,198.50 244.31,196.25 C245.16,194.19 247.21,190.93 248.88,189.00 L 251.92 185.50 L 251.96 190.84 C251.99,194.72 251.45,196.88 250.00,198.73 C248.90,200.13 248.00,200.76 248.00,200.13 C248.00,199.51 247.32,199.00 246.50,199.00 C245.68,199.00 245.00,199.48 245.00,200.06 C245.00,200.64 245.52,200.80 246.15,200.40 C246.89,199.95 247.04,200.13 246.55,200.91 C246.14,201.58 245.56,201.89 245.26,201.59 C244.96,201.30 243.40,202.17 241.78,203.53 C240.16,204.90 238.48,205.80 238.06,205.54 C236.87,204.80 232.70,209.71 233.47,210.95 C233.85,211.57 233.57,211.93 232.82,211.77 C232.10,211.62 231.50,212.17 231.50,212.99 C231.50,217.41 241.09,212.18 245.12,205.57 L 246.99 202.50 L 247.00 205.25 C247.00,209.29 248.34,208.62 251.35,203.09 C253.96,198.29 254.09,198.21 257.01,199.31 C259.03,200.07 259.98,201.10 259.93,202.47 C259.87,204.32 259.80,204.34 259.14,202.68 C258.45,200.93 258.37,200.93 256.84,202.68 C255.97,203.68 254.73,205.53 254.08,206.78 C253.43,208.03 252.51,208.81 252.03,208.52 C251.10,207.95 249.86,209.00 245.86,213.75 C244.49,215.38 242.05,216.98 240.43,217.30 C238.82,217.62 236.15,218.16 234.50,218.50 C232.85,218.84 230.53,219.32 229.35,219.55 C228.17,219.79 223.49,224.15 218.96,229.24 C214.43,234.33 208.13,241.22 204.96,244.54 C200.10,249.64 199.24,251.09 199.45,253.81 C199.59,255.59 199.94,257.27 200.22,257.55 C201.08,258.41 217.98,239.78 217.32,238.71 C216.97,238.15 217.17,237.99 217.76,238.35 C219.10,239.18 226.17,231.08 225.32,229.70 C224.97,229.15 225.14,228.97 225.70,229.31 C226.25,229.66 227.56,229.29 228.60,228.50 C230.81,226.83 234.61,226.55 235.50,228.00 C236.39,229.43 243.56,229.24 244.80,227.74 C245.37,227.05 246.13,225.33 246.49,223.91 C246.84,222.50 248.12,220.25 249.34,218.92 C252.72,215.20 260.64,204.75 261.82,202.44 C262.94,200.23 270.00,197.43 270.00,199.19 C270.00,200.40 262.12,211.56 250.75,226.45 L 242.39 237.40 L 235.68 239.09 C231.99,240.02 227.91,241.48 226.62,242.33 C225.32,243.18 223.30,243.63 222.13,243.32 C218.93,242.49 215.00,245.51 215.00,248.80 C215.00,250.88 213.37,253.15 208.39,258.03 C200.02,266.22 199.00,268.63 199.00,280.09 L 199.00 289.24 L 191.18 297.37 C186.88,301.84 179.41,309.63 174.59,314.68 L 165.82 323.86 L 151.45 324.18 L 137.08 324.50 L 132.75 328.75 C130.37,331.09 128.22,332.98 127.96,332.96 C127.71,332.94 126.15,331.80 124.50,330.41 ZM 112.18 325.29 C112.36,324.35 116.50,320.14 121.38,315.94 L 130.25 308.29 L 141.78 307.63 C151.24,307.09 153.95,306.57 156.89,304.74 C158.86,303.51 161.38,302.04 162.49,301.47 C163.59,300.91 165.19,298.98 166.04,297.19 C168.06,292.93 177.83,283.00 180.00,283.00 C183.51,283.00 184.78,279.90 184.72,271.50 C184.66,263.58 186.30,256.00 188.08,256.00 C188.58,256.00 189.07,261.40 189.15,268.00 C189.23,274.60 189.35,280.40 189.40,280.89 C189.46,281.38 183.01,288.58 175.07,296.89 L 160.64 312.00 L 150.07 312.07 C131.43,312.20 129.91,312.65 122.17,320.33 C115.63,326.82 111.49,328.88 112.18,325.29 ZM 142.01 299.25 C142.03,298.16 152.66,289.00 153.91,289.00 C154.49,289.00 155.26,290.19 155.63,291.66 C156.56,295.36 151.12,299.93 145.75,299.97 C143.69,299.99 142.01,299.66 142.01,299.25 ZM 158.00 290.08 C158.00,289.58 157.73,288.45 157.40,287.59 C156.97,286.49 159.90,282.96 166.99,276.01 C172.61,270.50 177.60,266.00 178.10,266.00 C179.93,266.00 178.92,270.08 176.58,272.12 C175.25,273.27 173.92,275.19 173.62,276.37 C173.15,278.26 160.04,291.00 158.57,291.00 C158.26,291.00 158.00,290.59 158.00,290.08 ZM 205.00 275.98 C205.00,270.90 205.15,270.63 212.14,263.43 C216.16,259.28 220.70,255.59 222.53,254.99 C224.61,254.30 226.22,252.88 226.97,251.08 C228.14,248.24 234.35,244.02 235.56,245.23 C236.58,246.25 208.61,279.84 205.90,280.83 C205.41,281.02 205.00,278.83 205.00,275.98 ZM 230.27 220.31 C231.24,220.05 232.59,220.07 233.27,220.34 C233.95,220.62 233.15,220.83 231.50,220.81 C229.85,220.78 229.30,220.56 230.27,220.31 ZM 281.75 165.84 C280.24,165.29 279.00,164.39 279.00,163.86 C279.00,163.32 278.63,163.11 278.18,163.39 C276.77,164.26 278.16,157.59 279.78,155.75 C282.02,153.19 287.51,153.46 289.44,156.22 C291.64,159.35 291.38,161.71 288.55,164.55 C285.84,167.25 285.70,167.28 281.75,165.84 ZM 298.04 136.37 C295.58,135.06 294.23,134.00 295.04,134.00 C296.59,134.01 303.00,137.62 303.00,138.49 C303.00,138.77 302.89,138.94 302.75,138.87 C302.61,138.79 300.49,137.67 298.04,136.37 ZM 190.11 196.63 C188.72,194.96 189.61,192.28 191.97,191.02 C193.32,190.30 194.00,190.63 194.99,192.48 C195.69,193.79 196.00,195.57 195.66,196.43 C194.92,198.37 191.64,198.48 190.11,196.63 ZM 201.46 188.93 C201.10,188.35 201.01,187.65 201.28,187.39 C201.54,187.13 202.02,187.61 202.35,188.46 C203.02,190.22 202.44,190.53 201.46,188.93 ZM 149.20 181.80 C147.42,180.02 147.74,177.21 149.85,176.08 C151.12,175.40 152.05,175.45 152.85,176.25 C154.52,177.92 154.26,181.69 152.42,182.39 C150.40,183.17 150.60,183.20 149.20,181.80 ZM 211.28 150.00 C211.54,148.62 212.35,145.36 213.08,142.74 C214.78,136.70 214.54,136.47 201.50,130.99 C191.98,126.98 188.89,125.67 179.34,121.56 C177.05,120.58 174.67,120.08 174.06,120.46 C173.45,120.84 173.07,120.66 173.23,120.05 C173.56,118.73 162.03,113.80 160.20,114.49 C159.48,114.76 159.15,114.56 159.46,114.06 C160.20,112.87 156.37,111.65 154.85,112.59 C154.17,113.01 153.96,112.88 154.34,112.26 C154.70,111.68 154.29,110.94 153.44,110.62 C152.59,110.29 152.16,110.45 152.48,110.97 C152.82,111.52 151.79,111.47 150.03,110.86 C146.51,109.63 145.95,108.60 149.25,109.42 C150.68,109.78 150.41,109.46 148.50,108.54 C146.85,107.75 144.60,107.34 143.50,107.62 C141.87,108.04 141.78,107.94 143.00,107.08 C144.27,106.19 144.19,106.00 142.50,105.86 C141.40,105.76 139.94,105.71 139.26,105.73 C138.58,105.75 138.32,105.30 138.67,104.72 C139.09,104.05 138.69,103.90 137.61,104.32 C136.67,104.68 136.15,104.57 136.46,104.06 C136.77,103.56 136.01,102.83 134.76,102.45 C133.52,102.08 130.11,100.69 127.18,99.37 C124.26,98.05 121.38,97.27 120.78,97.64 C120.18,98.01 119.97,97.85 120.33,97.28 C121.13,95.98 112.47,92.59 110.87,93.58 C110.18,94.01 109.96,93.88 110.33,93.27 C111.15,91.94 105.52,89.56 103.91,90.56 C103.18,91.01 102.95,90.89 103.33,90.27 C104.15,88.94 98.52,86.56 96.91,87.56 C96.19,88.00 95.95,87.89 96.32,87.29 C96.66,86.74 95.17,85.48 93.00,84.50 C89.78,83.05 88.76,82.95 87.52,83.98 C86.69,84.68 86.00,85.85 86.00,86.60 C86.00,87.93 90.87,91.00 92.99,91.00 C93.59,91.00 96.97,92.35 100.50,94.00 C104.03,95.65 107.26,97.00 107.67,97.00 C108.08,97.00 113.16,99.21 118.96,101.91 C141.23,112.27 145.61,114.25 149.00,115.49 C155.40,117.84 169.78,124.83 170.45,125.92 C171.38,127.42 169.57,127.27 165.27,125.47 C163.25,124.63 161.00,124.17 160.25,124.46 C159.41,124.78 159.17,124.54 159.61,123.82 C160.11,123.02 159.75,122.88 158.44,123.38 C157.41,123.78 156.89,123.78 157.28,123.38 C158.35,122.32 145.85,116.93 143.50,117.44 C142.40,117.68 140.38,117.20 139.00,116.37 C136.67,114.97 137.48,115.05 141.75,116.66 C142.71,117.02 143.25,117.04 142.95,116.69 C142.39,116.05 113.65,103.91 106.63,101.34 C104.50,100.56 101.45,99.25 99.85,98.42 C98.25,97.60 96.39,97.23 95.72,97.62 C95.05,98.01 94.84,97.95 95.25,97.50 C96.30,96.34 88.31,92.95 86.31,93.71 C85.23,94.12 84.91,93.95 85.38,93.20 C86.37,91.60 81.33,90.48 79.60,91.92 C77.53,93.64 76.96,98.22 78.53,100.64 C79.28,101.82 82.51,103.70 85.70,104.82 C96.83,108.73 144.45,130.05 146.40,132.00 C147.81,133.41 142.80,131.82 134.10,128.12 C129.67,126.23 125.86,125.20 124.60,125.55 C123.15,125.95 122.91,125.85 123.82,125.21 C124.80,124.53 124.38,123.99 122.13,123.05 C120.47,122.37 118.57,122.15 117.91,122.56 C117.16,123.02 116.95,122.89 117.36,122.23 C118.17,120.92 114.49,119.58 112.85,120.59 C112.08,121.07 111.96,120.87 112.51,119.98 C113.11,119.01 112.87,118.84 111.61,119.32 C110.67,119.68 110.14,119.59 110.43,119.12 C110.98,118.22 99.44,113.43 97.26,113.65 C96.58,113.72 96.24,113.42 96.50,112.99 C96.77,112.56 95.30,111.53 93.24,110.70 C91.18,109.87 86.19,107.70 82.15,105.87 L 74.80 102.56 L 75.46 97.53 C76.16,92.14 79.46,86.47 84.26,82.44 C87.54,79.68 89.04,79.52 94.00,81.44 C104.63,85.55 114.86,89.27 117.50,89.99 C122.18,91.26 133.34,96.05 135.00,97.50 C136.30,98.64 156.30,108.00 157.43,108.00 C158.07,108.00 190.18,122.41 202.00,128.00 C207.77,130.73 214.41,133.44 216.75,134.02 C219.09,134.60 221.00,135.51 221.00,136.04 C221.00,136.57 220.58,137.00 220.07,137.00 C219.55,137.00 218.83,137.96 218.46,139.13 C217.26,142.91 210.77,152.74 211.28,150.00 ZM 180.00 124.00 C179.18,123.47 178.95,123.03 179.50,123.03 C180.05,123.03 181.18,123.47 182.00,124.00 C182.82,124.53 183.05,124.97 182.50,124.97 C181.95,124.97 180.82,124.53 180.00,124.00 ZM 191.00 111.00 C190.18,110.47 189.95,110.03 190.50,110.03 C191.05,110.03 192.18,110.47 193.00,111.00 C193.82,111.53 194.05,111.97 193.50,111.97 C192.95,111.97 191.82,111.53 191.00,111.00 ZM 171.00 102.50 C169.62,101.71 168.98,101.05 169.56,101.04 C170.14,101.02 171.49,101.66 172.56,102.47 C175.03,104.34 174.24,104.35 171.00,102.50 ZM 159.00 97.00 C158.10,96.42 157.98,96.02 158.69,96.02 C159.35,96.01 160.16,96.45 160.50,97.00 C161.27,98.24 160.92,98.24 159.00,97.00 ZM 106.00 92.00 C105.18,91.47 104.95,91.03 105.50,91.03 C106.05,91.03 107.18,91.47 108.00,92.00 C108.82,92.53 109.05,92.97 108.50,92.97 C107.95,92.97 106.82,92.53 106.00,92.00 Z" fill="rgb(254,254,253)"/>
</g>
</svg>